<svg viewBox="0 0 1193.3333740234375 400" xmlns="http://www.w3.org/2000/svg"><g><g><g><g><g><line x1="61.91500186920166" y1="376.57899951934814" x2="56.91500186920166" y2="376.57899951934814" style="visibility: inherit;" fill="rgb(0, 0, 0)" stroke="rgb(204, 204, 204)" stroke-width="1px"></line><line x1="61.91500186920166" y1="334.73688846164276" x2="56.91500186920166" y2="334.73688846164276" style="visibility: inherit;" fill="rgb(0, 0, 0)" stroke="rgb(204, 204, 204)" stroke-width="1px"></line><line x1="61.91500186920166" y1="292.8947774039374" x2="56.91500186920166" y2="292.8947774039374" style="visibility: inherit;" fill="rgb(0, 0, 0)" stroke="rgb(204, 204, 204)" stroke-width="1px"></line><line x1="61.91500186920166" y1="251.0526663462321" x2="56.91500186920166" y2="251.0526663462321" style="visibility: inherit;" fill="rgb(0, 0, 0)" stroke="rgb(204, 204, 204)" stroke-width="1px"></line><line x1="61.91500186920166" y1="209.21055528852676" x2="56.91500186920166" y2="209.21055528852676" style="visibility: inherit;" fill="rgb(0, 0, 0)" stroke="rgb(204, 204, 204)" stroke-width="1px"></line><line x1="61.91500186920166" y1="167.36844423082138" x2="56.91500186920166" y2="167.36844423082138" style="visibility: inherit;" fill="rgb(0, 0, 0)" stroke="rgb(204, 204, 204)" stroke-width="1px"></line><line x1="61.91500186920166" y1="125.52633317311602" x2="56.91500186920166" y2="125.52633317311602" style="visibility: inherit;" fill="rgb(0, 0, 0)" stroke="rgb(204, 204, 204)" stroke-width="1px"></line><line x1="61.91500186920166" y1="83.68422211541065" x2="56.91500186920166" y2="83.68422211541065" style="visibility: inherit;" fill="rgb(0, 0, 0)" stroke="rgb(204, 204, 204)" stroke-width="1px"></line><line x1="61.91500186920166" y1="41.842111057705324" x2="56.91500186920166" y2="41.842111057705324" style="visibility: inherit;" fill="rgb(0, 0, 0)" stroke="rgb(204, 204, 204)" stroke-width="1px"></line><line x1="61.91500186920166" y1="0" x2="56.91500186920166" y2="0" style="visibility: inherit;" fill="rgb(0, 0, 0)" stroke="rgb(204, 204, 204)" stroke-width="1px"></line></g><g transform="translate(51.91500186920166, 0)"><text style="text-anchor: end; visibility: hidden; font-family: Roboto, sans-serif; font-size: 12px; font-weight: 200;" x="0" y="376.57899951934814" dx="0em" dy="0.3em" fill="rgb(255, 255, 255)" stroke="none" stroke-width="1px">-0.05</text><text style="text-anchor: end; visibility: inherit; font-family: Roboto, sans-serif; font-size: 12px; font-weight: 200;" x="0" y="334.73688846164276" dx="0em" dy="0.3em" fill="rgb(255, 255, 255)" stroke="none" stroke-width="1px">-0.04</text><text style="text-anchor: end; visibility: inherit; font-family: Roboto, sans-serif; font-size: 12px; font-weight: 200;" x="0" y="292.8947774039374" dx="0em" dy="0.3em" fill="rgb(255, 255, 255)" stroke="none" stroke-width="1px">-0.03</text><text style="text-anchor: end; visibility: inherit; font-family: Roboto, sans-serif; font-size: 12px; font-weight: 200;" x="0" y="251.0526663462321" dx="0em" dy="0.3em" fill="rgb(255, 255, 255)" stroke="none" stroke-width="1px">-0.02</text><text style="text-anchor: end; visibility: inherit; font-family: Roboto, sans-serif; font-size: 12px; font-weight: 200;" x="0" y="209.21055528852676" dx="0em" dy="0.3em" fill="rgb(255, 255, 255)" stroke="none" stroke-width="1px">-0.01</text><text style="text-anchor: end; visibility: inherit; font-family: Roboto, sans-serif; font-size: 12px; font-weight: 200;" x="0" y="167.36844423082138" dx="0em" dy="0.3em" fill="rgb(255, 255, 255)" stroke="none" stroke-width="1px">0</text><text style="text-anchor: end; visibility: inherit; font-family: Roboto, sans-serif; font-size: 12px; font-weight: 200;" x="0" y="125.52633317311602" dx="0em" dy="0.3em" fill="rgb(255, 255, 255)" stroke="none" stroke-width="1px">0.01</text><text style="text-anchor: end; visibility: inherit; font-family: Roboto, sans-serif; font-size: 12px; font-weight: 200;" x="0" y="83.68422211541065" dx="0em" dy="0.3em" fill="rgb(255, 255, 255)" stroke="none" stroke-width="1px">0.02</text><text style="text-anchor: end; visibility: inherit; font-family: Roboto, sans-serif; font-size: 12px; font-weight: 200;" x="0" y="41.842111057705324" dx="0em" dy="0.3em" fill="rgb(255, 255, 255)" stroke="none" stroke-width="1px">0.03</text><text style="text-anchor: end; visibility: hidden; font-family: Roboto, sans-serif; font-size: 12px; font-weight: 200;" x="0" y="0" dx="0em" dy="0.3em" fill="rgb(255, 255, 255)" stroke="none" stroke-width="1px">0.04</text></g><line x1="61.91500186920166" y1="0" x2="61.91500186920166" y2="376.57899951934814" fill="rgb(0, 0, 0)" stroke="rgb(204, 204, 204)" stroke-width="1px"></line></g></g><g transform="translate(61, 0)" clip-path="url(#clip_0)"><clipPath id="clip_0"><rect width="1131" height="376"></rect></clipPath><g><g><g><line x1="0" y1="0" x2="0" y2="376.57899951934814" fill="rgb(0, 0, 0)" stroke="rgb(189, 189, 189)" stroke-width="1px" opacity="0.25"></line><line x1="94.28458317756652" y1="0" x2="94.28458317756652" y2="376.57899951934814" fill="rgb(0, 0, 0)" stroke="rgb(189, 189, 189)" stroke-width="1px" opacity="0.25"></line><line x1="188.56916635513304" y1="0" x2="188.56916635513304" y2="376.57899951934814" fill="rgb(0, 0, 0)" stroke="rgb(189, 189, 189)" stroke-width="1px" opacity="0.25"></line><line x1="282.85374953269957" y1="0" x2="282.85374953269957" y2="376.57899951934814" fill="rgb(0, 0, 0)" stroke="rgb(189, 189, 189)" stroke-width="1px" opacity="0.25"></line><line x1="377.13833271026607" y1="0" x2="377.13833271026607" y2="376.57899951934814" fill="rgb(0, 0, 0)" stroke="rgb(189, 189, 189)" stroke-width="1px" opacity="0.25"></line><line x1="471.42291588783263" y1="0" x2="471.42291588783263" y2="376.57899951934814" fill="rgb(0, 0, 0)" stroke="rgb(189, 189, 189)" stroke-width="1px" opacity="0.25"></line><line x1="565.7074990653991" y1="0" x2="565.7074990653991" y2="376.57899951934814" fill="rgb(0, 0, 0)" stroke="rgb(189, 189, 189)" stroke-width="1px" opacity="0.25"></line><line x1="659.9920822429657" y1="0" x2="659.9920822429657" y2="376.57899951934814" fill="rgb(0, 0, 0)" stroke="rgb(189, 189, 189)" stroke-width="1px" opacity="0.25"></line><line x1="754.2766654205321" y1="0" x2="754.2766654205321" y2="376.57899951934814" fill="rgb(0, 0, 0)" stroke="rgb(189, 189, 189)" stroke-width="1px" opacity="0.25"></line><line x1="848.5612485980987" y1="0" x2="848.5612485980987" y2="376.57899951934814" fill="rgb(0, 0, 0)" stroke="rgb(189, 189, 189)" stroke-width="1px" opacity="0.25"></line><line x1="942.8458317756653" y1="0" x2="942.8458317756653" y2="376.57899951934814" fill="rgb(0, 0, 0)" stroke="rgb(189, 189, 189)" stroke-width="1px" opacity="0.25"></line><line x1="1037.1304149532316" y1="0" x2="1037.1304149532316" y2="376.57899951934814" fill="rgb(0, 0, 0)" stroke="rgb(189, 189, 189)" stroke-width="1px" opacity="0.25"></line><line x1="1131.4149981307983" y1="0" x2="1131.4149981307983" y2="376.57899951934814" fill="rgb(0, 0, 0)" stroke="rgb(189, 189, 189)" stroke-width="1px" opacity="0.25"></line></g><g><line x1="0" y1="376.57899951934814" x2="1131.4149981307983" y2="376.57899951934814" fill="rgb(0, 0, 0)" stroke="rgb(189, 189, 189)" stroke-width="1px" opacity="0.25"></line><line x1="0" y1="334.73688846164276" x2="1131.4149981307983" y2="334.73688846164276" fill="rgb(0, 0, 0)" stroke="rgb(189, 189, 189)" stroke-width="1px" opacity="0.25"></line><line x1="0" y1="292.8947774039374" x2="1131.4149981307983" y2="292.8947774039374" fill="rgb(0, 0, 0)" stroke="rgb(189, 189, 189)" stroke-width="1px" opacity="0.25"></line><line x1="0" y1="251.0526663462321" x2="1131.4149981307983" y2="251.0526663462321" fill="rgb(0, 0, 0)" stroke="rgb(189, 189, 189)" stroke-width="1px" opacity="0.25"></line><line x1="0" y1="209.21055528852676" x2="1131.4149981307983" y2="209.21055528852676" fill="rgb(0, 0, 0)" stroke="rgb(189, 189, 189)" stroke-width="1px" opacity="0.25"></line><line x1="0" y1="167.36844423082138" x2="1131.4149981307983" y2="167.36844423082138" fill="rgb(0, 0, 0)" stroke="rgb(189, 189, 189)" stroke-width="1px" opacity="0.25"></line><line x1="0" y1="125.52633317311602" x2="1131.4149981307983" y2="125.52633317311602" fill="rgb(0, 0, 0)" stroke="rgb(189, 189, 189)" stroke-width="1px" opacity="0.25"></line><line x1="0" y1="83.68422211541065" x2="1131.4149981307983" y2="83.68422211541065" fill="rgb(0, 0, 0)" stroke="rgb(189, 189, 189)" stroke-width="1px" opacity="0.25"></line><line x1="0" y1="41.842111057705324" x2="1131.4149981307983" y2="41.842111057705324" fill="rgb(0, 0, 0)" stroke="rgb(189, 189, 189)" stroke-width="1px" opacity="0.25"></line><line x1="0" y1="0" x2="1131.4149981307983" y2="0" fill="rgb(0, 0, 0)" stroke="rgb(189, 189, 189)" stroke-width="1px" opacity="0.25"></line></g></g></g><g><g><line x1="0" y1="167.36844423082138" x2="1131.4149981307983" y2="167.36844423082138" fill="rgb(0, 0, 0)" stroke="rgb(153, 153, 153)" stroke-width="1.5px"></line></g></g><g><g><line x1="94.28458317756652" y1="0" x2="94.28458317756652" y2="376.57899951934814" fill="rgb(0, 0, 0)" stroke="rgb(153, 153, 153)" stroke-width="1.5px"></line></g></g><g><g><g><g><g><path style="fill: none;" stroke="rgb(255, 112, 67)" stroke-width="2px" d="M95.22742900934219,167.3716840018204L96.17027484111786,251.8092701737473L97.11312067289352,297.88548793863623L98.05596650466919,324.0156339436611L98.99881233644484,337.06815662078213L99.94165816822051,339.2581120668791L100.88450399999618,338.6516601723788L101.82734983177184,309.06181866935106L102.77019566354751,273.29662416263307L103.71304149532317,197.16655577308603L104.65588732709884,150.39290391231054L105.59873315887451,137.43853609062825L106.54157899065017,153.75583931799366L107.48442482242584,117.24159102124604L108.42727065420151,98.38438649979786L109.37011648597716,118.39672398593389L110.31296231775283,136.96844345534416L111.25580814952849,140.06627459183318L112.19865398130416,148.3308676602856L113.14149981307983,142.80485003186178L114.08434564485549,150.83318933703885L115.02719147663116,128.0907002531289L115.97003730840682,167.15688235860347L116.91288314018249,147.26085868465574L117.85572897195816,178.47627438369423L118.79857480373381,187.62752270029202L119.74142063550948,192.61864913393921L120.68426646728516,206.36159577185265L121.62711229906081,196.7392972938078L122.56995813083648,207.11711202882898L123.51280396261214,206.2529774990065L124.45564979438781,211.70798376928886L125.39849562616348,225.89224799771512L126.34134145793914,227.43657347750764L127.28418728971481,202.77431538154L128.22703312149045,211.57998373822738L129.16987895326614,204.36132256456327L130.11272478504182,214.94590016489468L131.05557061681745,223.2151907863028L131.99841644859313,212.86298922253215L132.9412622803688,233.5361590591374L133.88410811214445,237.17098192420914L134.82695394392013,242.49192329007238L135.7697997756958,230.25270232642322L136.71264560747147,231.46307405363626L137.65549143924713,238.43407445106484L138.59833727102279,219.092545475974L139.54118310279847,207.2230685891314L140.4840289345741,219.26013920650183L141.42687476634978,227.34186151767946L142.36972059812544,221.18817716435862L143.31256642990112,221.30112236680483L144.25541226167678,228.889525240185L145.19825809345244,242.07663415343367L146.14110392522812,209.87604805130096L147.08394975700378,212.64174815449854L148.02679558877944,216.65923803930397L148.9696414205551,193.17550725500502L149.91248725233078,193.37229478864046L150.85533308410643,222.96112976548042L151.7981789158821,220.12984143233072L152.74102474765778,217.58286909372072L153.68387057943343,203.98023904604173L154.6267164112091,216.5767926661548L155.56956224298477,205.46664154837316L156.51240807476043,212.1892281978327L157.4552539065361,228.40837747135052L158.39809973831177,228.5042485386186L159.34094557008743,214.17176856854354L160.28379140186308,228.77491185875718L161.22663723363874,248.46496570986815L162.16948306541443,239.49869017635623L163.11232889719008,229.7164723039451L164.05517472896574,217.9061283736753L164.99802056074142,235.06346044490812L165.94086639251708,229.70328786130668L166.88371222429274,223.10541971872016L167.82655805606842,223.1024227066536L168.76940388784408,214.4886789497483L169.71224971961973,218.87325403560848L170.65509555139542,231.7590749299197L171.59794138317108,232.56604536876338L172.54078721494673,239.64558122963052L173.4836330467224,228.49912468912729L174.42647887849807,231.70025805295862L175.36932471027373,227.0711854154362L176.3121705420494,213.77345493451887L177.25501637382507,192.80316212085532L178.19786220560073,216.6220422222922L179.14070803737638,202.50984561115322L180.08355386915207,202.59532719057762L181.02639970092773,216.21689057731575L181.96924553270338,201.7987764208824L182.91209136447904,223.10183734022212L183.85493719625472,191.6068943402915L184.79778302803038,172.65160905871565L185.74062885980604,183.906612642876L186.68347469158172,216.32817992433803L187.62632052335738,197.41328345539372L188.56916635513304,194.11853202337522L189.51201218690872,197.3258395404659L190.45485801868438,159.66835878096512L191.39770385046003,193.6943969315833L192.34054968223572,226.22320115804905L193.28339551401137,176.5380766309319L194.22624134578703,205.84026101892377L195.1690871775627,201.12259657359724L196.11193300933837,198.1975982675987L197.05477884111403,184.38993895507645L197.99762467288969,214.11974601863503L198.94047050466537,192.82165564818516L199.88331633644103,206.03390826835397L200.82616216821668,208.20304008561698L201.76900799999237,231.1279635710161L202.71185383176802,232.19787510928086L203.65469966354368,216.21406159676002L204.59754549531937,228.22524432504406L205.54039132709502,231.42616959135214L206.48323715887068,182.511140939998L207.42608299064634,211.8638209101133L208.36892882242202,205.32281177304847L209.31177465419768,220.68655980957567L210.25462048597333,244.8297077166137L211.19746631774902,185.79172430511457L212.14031214952468,221.14828595078959L213.08315798130033,223.84665691192188L214.02600381307602,170.24939378456818L214.96884964485167,194.61943162189323L215.91169547662733,208.36726455307547L216.85454130840301,225.98626653806159L217.79738714017867,223.94762239743784L218.74023297195433,223.1550176031458L219.68307880372998,242.6792296986794L220.62592463550567,209.1172131923717L221.56877046728133,211.24075338314077L222.51161629905698,240.63714115682956L223.45446213083267,182.3081662374768L224.39730796260832,202.06845447652742L225.34015379438398,223.32529234471855L226.28299962615966,225.98848573058132L227.22584545793532,216.2014092466446L228.16869128971098,222.35086691189957L229.11153712148666,232.2408604866009L230.05438295326232,213.0090077856964L230.99722878503798,220.73236602512452L231.94007461681363,164.37014667286158L232.88292044858932,199.2353651537072L233.82576628036497,211.46915585601676L234.76861211214063,211.4471625200597L235.71145794391632,213.57542758157356L236.65430377569197,191.19130883867345L237.59714960746763,201.98368998240923L238.5399954392433,177.3476349516943L239.48284127101897,183.57590206293827L240.42568710279463,203.23888095142027L241.3685329345703,215.47694222055776L242.31137876634597,194.83114883971572L243.25422459812162,207.5435990307764L244.19707042989728,237.22459175748276L245.13991626167297,152.25905527370588L246.08276209344862,207.59481487003728L247.02560792522428,229.2484256225461L247.96845375699996,225.24659799390548L248.91129958877562,156.7893208465294L249.85414542055128,195.16658439480526L250.79699125232696,221.02441262739433L251.73983708410262,221.08758234402143L252.68268291587827,197.55408012783943L253.62552874765393,170.07129327439185L254.56837457942962,198.67562944545352L255.51122041120527,161.0226320576869L256.4540662429809,170.03353246336738L257.39691207475664,230.2374431110341L258.33975790653227,139.78473723160334L259.2826037383079,87.92104918149592L260.22544957008364,151.63557420938523L261.16829540185927,199.59387948760542L262.1111412336349,149.51249072367543L263.05398706541064,155.1279316846467L263.99683289718627,190.10612479923765L264.9396787289619,234.54714737806398L265.8825245607376,170.48999745524026L266.82537039251326,108.66898512616604L267.7682162242889,115.17174936761374L268.7110620560646,165.54887611127958L269.65390788784026,124.22765022422035L270.5967537196159,178.43860626754716L271.5395995513916,171.22877664850915L272.48244538316726,212.18915443971042L273.42529121494294,140.1028444834645L274.3681370467186,102.57131359058454L275.31098287849426,167.57621927048407L276.25382871026994,179.70913548339945L277.19667454204557,218.01648688815354L278.1395203738212,138.4517666277237L279.08236620559694,117.7703744447729L280.02521203737257,187.29197724429932L280.9680578691482,213.80949243653896L281.91090370092394,166.87742401548724L282.85374953269957,160.01734394920112L283.79659536447525,199.81416887882605L284.7394411962509,193.41116072086714L285.68228702802656,131.48681985049683L286.62513285980225,179.74903754829108L287.5679786915779,199.6924375731663L288.51082452335356,197.81621469142738L289.45367035512925,202.25969023033295L290.3965161869049,223.80963913295946L291.33936201868056,227.7534717755267L292.28220785045625,167.641471386954L293.2250536822319,205.48340151361342L294.16789951400756,129.54162522464398L295.1107453457832,148.96832784292116L296.05359117755887,210.7128789729084L296.99643700933456,132.58768895691352L297.9392828411102,121.18970858335366L298.88212867288587,193.73364764836626L299.82497450466155,136.55943351803464L300.7678203364372,178.18540644890155L301.71066616821287,177.18967332418475L302.65351199998855,160.13987115988343L303.5963578317642,182.91678853594917L304.53920366353987,152.92240107517244L305.48204949531555,193.05359220928017L306.4248953270912,131.17513806026935L307.36774115886686,142.03658642174895L308.31058699064255,141.56017809428042L309.2534328224182,159.9714416871235L310.19627865419386,170.33746296780197L311.13912448596955,218.38989109143077L312.0819703177452,197.89065710046654L313.02481614952086,153.18016406311753L313.96766198129654,102.56871630736907L314.9105078130722,191.72273429228588L315.85335364484786,130.34233726274724L316.79619947662354,126.37999384923812L317.73904530839917,86.36927080172615L318.68189114017486,67.3092150022605L319.6247369719505,76.91975802752887L320.56758280372617,112.63912409208172L321.51042863550185,189.35609983922436L322.4532744672775,179.01500638713222L323.39612029905317,173.30474945618693L324.33896613082885,120.23616156893519L325.2818119626045,183.57345966218287L326.22465779438016,152.21028903963995L327.16750362615585,183.15157626354156L328.1103494579315,154.53972480806692L329.05319528970716,204.60761664839313L329.99604112148285,167.2364413896253L330.9388869532585,191.12573779972524L331.88173278503416,212.25180466302712L332.82457861680984,142.58239115651335L333.7674244485855,214.89699454130235L334.71027028036116,136.41731381292368L335.65311611213684,169.3872684481424L336.59596194391247,192.71656740183553L337.53880777568816,174.14033258735722L338.48165360746384,213.20341156961967L339.42449943923947,139.21482744780982L340.36734527101515,126.48761000222945L341.31019110279084,180.0273300891874L342.25303693456647,170.5332779519026L343.19588276634215,119.72333893738666L344.1387285981178,200.6153726894445L345.08157442989346,133.2644512961226L346.02442026166915,83.88419711677635L346.9672660934448,73.09741225699895L347.91011192522046,166.4452213993252L348.85295775699615,108.62689832718443L349.7958035887718,161.63516489822183L350.73864942054746,212.1127121102239L351.68149525232315,145.2670647655927L352.6243410840988,204.22066821001977L353.56718691587446,158.33691824246245L354.51003274765014,98.46031712174644L355.45287857942577,129.28425995318398L356.39572441120146,208.01342378543708L357.33857024297714,131.2528787158994L358.28141607475277,90.57904959688979L359.22426190652845,91.75188156195485L360.16710773830414,71.01682522590367L361.10995357007977,142.6573937538048L362.05279940185545,198.19048118883475L362.99564523363114,191.27605770960838L363.93849106540677,146.27090357219123L364.88133689718245,218.02827473143373L365.8241827289581,185.66333027908505L366.76702856073376,118.63446930109873L367.70987439250945,156.03714134719277L368.6527202242851,117.11459461724445L369.59556605606076,177.17959957348756L370.53841188783645,199.3871939372829L371.4812577196121,126.901109530812L372.42410355138776,197.31374354385716L373.36694938316344,175.22615768265396L374.3097952149391,116.1041636496121L375.25264104671476,142.90153429993768L376.19548687849044,213.97554622812967L377.13833271026607,139.7008596134724L378.08117854204176,91.13600255507829L379.02402437381744,70.02711877915718L379.96687020559307,160.20150929949727L380.90971603736875,104.45033409940174L381.85256186914444,171.47764651916793L382.79540770092007,111.35100332420228L383.73825353269575,168.2552799411321L384.68109936447144,117.17203170360601L385.62394519624706,200.83464197847331L386.56679102802275,125.06911100519531L387.50963685979843,83.88842177715843L388.45248269157406,180.9172237877209L389.39532852334975,117.19469064292875L390.3381743551254,103.16307056105255L391.28102018690106,86.61851104948174L392.22386601867674,100.31435847674157L393.1667118504524,150.11953611469795L394.10955768222806,100.19928159758412L395.05240351400374,125.05988074407715L395.99524934577937,163.64317984878454L396.93809517755506,144.96514955212763L397.88094100933074,210.1357329234294L398.82378684110637,145.6036946329858L399.76663267288205,110.03293338483348L400.70947850465774,89.13762929206902L401.65232433643337,69.87901922176538L402.59517016820905,174.02703926318418L403.53801599998474,111.73643020993997L404.48086183176036,191.36180776254187L405.42370766353605,117.82671401645496L406.36655349531173,67.5415950880714L407.30939932708736,73.28799832895113L408.25224515886305,49.77995533542144L409.19509099063873,159.32170818956476L410.13793682241436,99.69518768141609L411.08078265419005,147.4376659380154L412.02362848596573,120.03501591543143L412.96647431774136,93.25593323483213L413.90932014951704,178.1422255285275L414.85216598129267,117.8579256659709L415.79501181306836,71.70212522739018L416.73785764484404,51.1028203348938L417.68070347661967,132.98601395038335L418.62354930839535,86.01006010705737L419.56639514017104,63.99610725381696L420.50924097194667,170.10750729707237L421.45208680372235,109.41616017060927L422.39493263549804,79.27272447917602L423.33777846727367,176.73220129128842L424.28062429904935,114.78641058783735L425.22347013082504,110.8100122129771L426.16631596260066,120.04148344608146L427.10916179437635,90.44766890940679L428.05200762615203,72.44964765460834L428.99485345792766,172.10984877691797L429.93769928970335,114.76933167487006L430.88054512147903,84.73953822580303L431.82339095325466,54.7532690710394L432.76623678503034,102.8681239122299L433.70908261680603,195.35966440566222L434.65192844858166,134.64439434200384L435.59477428035734,98.64292876595873L436.53762011213297,76.72179379606368L437.48046594390865,50.576742827305765L438.42331177568434,143.54918249364357L439.36615760745997,108.81892786499486L440.30900343923565,133.82861453791935L441.25184927101134,209.13811309653533L442.19469510278697,132.41788489043424L443.13754093456265,90.10094888978585L444.08038676633834,72.08882170289063L445.02323259811396,104.24283519435345L445.96607842988965,194.27582638762632L446.90892426166533,125.98394124335212L447.85177009344096,86.74173011486269L448.79461592521665,81.16659747648764L449.73746175699233,181.58286558815033L450.68030758876796,128.99402746741796L451.62315342054364,94.50013021416095L452.56599925231933,76.65931020815324L453.50884508409496,172.9860191871621L454.45169091587064,118.21065728536958L455.3945367476463,86.88069003483261L456.33738257942196,182.4541768079001L457.28022841119764,116.09100535175428L458.2230742429733,77.99510502045409L459.16592007474895,59.00183117830285L460.10876590652464,96.09104479666998L461.05161173830027,188.94183303101156L461.99445757007595,127.31350583966679L462.93730340185164,86.74149369881911L463.88014923362726,67.29008983483419L464.82299506540295,168.11574981356924L465.76584089717863,115.16933933271103L466.70868672895426,80.67336117450103L467.65153256072995,176.03151308239686L468.59437839250563,118.39930626591955L469.53722422428126,85.1318926670041L470.48007005605695,150.43286969175256L471.42291588783263,109.45381202242446L472.36576171960826,194.94280165499325L473.30860755138394,125.28085015822877L474.2514533831596,98.54211872747356L475.19429921493526,86.13235293090479L476.13714504671094,70.65724548138037L477.0799908784866,173.3782101476972L478.02283671026225,110.86314393838546L478.96568254203794,82.72224758403132L479.9085283738136,180.74072597512114L480.85137420558925,120.79505194514519L481.79422003736494,93.4012418353085L482.7370658691406,183.83248280614959L483.67991170091625,128.9765769733997L484.62275753269194,85.94103662606564L485.56560336446756,178.845180215969L486.50844919624325,118.50185635300471L487.45129502801893,87.38455615323429L488.39414085979456,74.48302016075863L489.33698669157025,66.79180678718664L490.27983252334593,84.21229864881353L491.22267835512156,173.82551233815252L492.16552418689724,127.36623364709122L493.10837001867293,197.6463576187136L494.05121585044856,140.77255653911553L494.99406168222424,102.16943572152086L495.9369075139999,73.49686516966536L496.87975334577555,73.37680574680323L497.82259917755124,169.32523985289296L498.7654450093269,114.40677947989944L499.70829084110255,196.33741771754572L500.65113667287824,130.8756552580471L501.5939825046539,97.0278828480197L502.53682833642955,76.59180486842988L503.47967416820524,70.719929445933L504.4225199999809,167.41013831017483L505.36536583175655,112.29316394301216L506.30821166353223,94.43727409552712L507.25105749530786,84.35316255847297L508.19390332708355,169.92957583997426L509.13674915885923,124.50640340645029L510.07959499063486,89.85027700390971L511.02244082241054,179.3447272425028L511.96528665418623,133.1756030789654L512.9081324859618,98.44577256981844L513.8509783177375,89.88852351970847L514.7938241495133,87.86675673604465L515.7366699812889,81.0961865217473L516.6795158130645,174.41933403676697L517.6223616448402,130.4847949442305L518.5652074766158,100.78217946814075L519.5080533083916,84.59240843506123L520.4508991401673,119.69989577220359L521.3937449719429,114.8729516556717L522.3365908037185,106.23178042951523L523.2794366354942,186.88639641900102L524.2222824672698,143.83729267189108L525.1651282990456,108.54394923521033L526.1079741308213,99.46495725693914L527.0508199625968,187.93397585296873L527.9936657943725,139.75338243062302L528.9365116261482,94.85386800653787L529.8793574579238,79.35382467668565L530.8222032896996,72.87865348939684L531.7650491214752,168.5031792049351L532.7078949532508,212.69858182929568L533.6507407850265,153.98864373989701L534.5935866168021,114.10379999946055L535.5364324485778,100.60815371904472L536.4792782803536,184.40235451645438L537.4221241121292,139.25041472655602L538.3649699439048,103.80079073612876L539.3078157756805,102.69878764615974L540.2506616074561,94.78442204840839L541.1935074392318,125.07165680753675L542.1363532710076,196.0681537089919L543.0791991027832,242.09450070840265L544.0220449345588,171.57909305890138L544.9648907663345,125.56393140224722L545.9077365981101,104.79641594506907L546.8505824298859,107.34963367818504L547.7934282616616,181.52559471094708L548.7362740934371,148.96103762181139L549.6791199252128,216.51771721884L550.6219657569885,153.5633376144048L551.5648115887641,112.94824439542714L552.5076574205399,195.7761521042637L553.4505032523156,133.93015009225616L554.3933490840911,204.19374537660886L555.3361949158668,139.26821878530865L556.2790407476424,210.42784976762195L557.2218865794181,143.44260037256115L558.1647324111939,210.01494745773323L559.1075782429695,161.89974023348017L560.0504240747451,124.39901151907259L560.9932699065208,92.59045176563613L561.9361157382964,170.42967723727392L562.8789615700721,124.21101305521776L563.8218074018479,101.28544146112331L564.7646532336234,88.70119241465078L565.7074990653991,172.95295627171538L566.6503448971748,132.67798075532406L567.5931907289505,113.34654563084982L568.5360365607261,192.02097355854988L569.4788823925018,134.4582748749025L570.4217282242774,108.45173689526906L571.3645740560531,98.46124561155584L572.3074198878288,180.14754690164568L573.2502657196045,135.69377323280114L574.1931115513801,198.86669629930208L575.1359573831558,144.42259028780887L576.0788032149314,135.46015242680417L577.0216490467071,114.95180623782888L577.9644948784828,185.68920753158363L578.9073407102585,228.16684777686288L579.8501865420341,161.68199222032845L580.7930323738098,139.08110888708728L581.7358782055854,201.49612944395145L582.6787240373611,159.12462986081903L583.6215698691368,115.54719011509262L584.5644157009125,185.84767978981284L585.5072615326881,128.91059587892053L586.4501073644637,107.54461354421412L587.3929531962394,188.36772939909736L588.3357990280151,152.30553168226814L589.2786448597908,110.36799560125449L590.2214906915664,105.73349503478765L591.1643365233421,179.845347378623L592.1071823551177,226.76248959772133L593.0500281868934,168.39717187008L593.9928740186691,129.20200426584796L594.9357198504448,193.55842814376697L595.8785656822204,145.73850079695225L596.821411513996,205.54359292820521L597.7642573457717,240.46980624173474L598.7071031775474,261.85255419879724L599.6499490093231,198.91484242072363L600.5927948410988,232.64484963548077L601.5356406728744,259.74994272420963L602.47848650465,185.65271005490308L603.4213323364257,145.60621285600894L604.3641781682014,206.16319975347267L605.3070239999771,153.7721032741548L606.2498698317528,124.4971795598902L607.1927156635284,190.71598360180914L608.135561495304,148.18974501174054L609.0784073270797,208.73433122473148L610.0212531588554,247.6733567877781L610.9640989906311,187.5086316447677L611.9069448224068,139.26265962844306L612.8497906541824,194.35890735798222L613.792636485958,230.61087297882966L614.7354823177337,229.5868517760416L615.6783281495094,252.21619378741875L616.6211739812851,264.1919909012698L617.5640198130607,189.13086557004817L618.5068656448364,148.1994348305275L619.449711476612,206.67975256697954L620.3925573083877,153.98625661783439L621.3354031401634,203.7517398272178L622.2782489719391,170.5588188186184L623.2210948037147,216.0687894087846L624.1639406354903,246.3550641366682L625.106786467266,184.5849036719742L626.0496322990417,227.35486333961816L626.9924781308174,170.4250088999398L627.9353239625931,214.98452519161307L628.8781697943687,180.85631588315735L629.8210156261443,222.6702829495045L630.76386145792,172.04179646392757L631.7067072896957,216.50676894189306L632.6495531214714,244.56145279965543L633.5923989532471,182.17706467175825L634.5352447850227,172.24888388460627L635.4780906167983,214.21820394274374L636.420936448574,163.68276402579002L637.3637822803497,209.4287715763608L638.3066281121254,240.33553838024812L639.249473943901,259.78074976137054L640.1923197756767,189.20713697078267L641.1351656074523,220.82213833104848L642.078011439228,242.65610345818416L643.0208572710037,258.0843268279978L643.9637031027794,183.39782524316433L644.906548934555,227.8988922215146L645.8493947663306,255.24138105606983L646.7922405981063,270.8312386575934L647.735086429882,203.8575393868704L648.6779322616577,234.0230811856349L649.6207780934334,252.1793252185278L650.563623925209,263.3117085132108L651.5064697569846,192.90380564292136L652.4493155887603,228.01745543695552L653.392161420536,248.15598154060544L654.3350072523117,265.62766797695315L655.2778530840874,276.13569138246896L656.220698915863,205.13008257752813L657.1635447476386,232.75868934233017L658.1063905794143,248.3498193513232L659.04923641119,265.1398934060365L659.9920822429657,198.43383890120504L660.9349280747413,235.59465478883922L661.877773906517,255.7723644855836L662.8206197382926,268.37217878998575L663.7634655700683,276.87705356061906L664.706311401844,205.07125848692584L665.6491572336197,232.31247358681713L666.5920030653953,182.58988487851784L667.534848897171,220.0428585212838L668.4776947289466,239.9858425217357L669.4205405607223,253.57931921818698L670.363386392498,269.9573259544044L671.3062322242737,272.7334216520203L672.2490780560493,272.3340664158978L673.1919238878249,271.2023489029973L674.1347697196006,270.92924861059595L675.0776155513763,195.4277226498072L676.020461383152,228.70990068917956L676.9633072149277,252.91093126152623L677.9061530467033,264.80381930281186L678.8489988784789,198.220279429916L679.7918447102546,233.30785422845094L680.7346905420303,250.2323471631593L681.677536373806,260.78147275483667L682.6203822055817,265.18865058158434L683.5632280373572,265.2352732497534L684.5060738691329,272.4706303975732L685.4489197009086,275.18709193896035L686.3917655326843,278.8626001440328L687.33461136446,210.48293917663938L688.2774571962356,231.8565514797309L689.2203030280112,247.26792815596707L690.1631488597869,254.60565292716967L691.1059946915626,261.85623065893276L692.0488405233383,259.7952797318987L692.991686355114,263.489892606187L693.9345321868896,263.5554057035991L694.8773780186652,267.08479500429235L695.8202238504409,274.14143689053856L696.7630696822166,272.0107058454595L697.7059155139923,274.8802242739515L698.648761345768,275.70405738647486L699.5916071775436,278.07328155300985L700.5344530093192,281.08459378978415L701.4772988410949,280.7912407101751L702.4201446728706,277.4218161891793L703.3629905046463,274.3696565715292L704.305836336422,272.361412624344L705.2486821681975,265.5332770389155L706.1915279999732,265.97900391514503L707.1343738317489,264.56865583776306L708.0772196635246,265.6262734493614L709.0200654953003,267.20167148571517L709.9629113270759,271.5195625053057L710.9057571588515,269.7586501397028L711.8486029906272,274.7505692349669L712.7914488224029,205.25671791374697L713.7342946541786,230.61117766552528L714.6771404859543,242.41683109952285L715.6199863177299,249.33677990758642L716.5628321495055,253.43231656570282L717.5056779812812,257.8467209329902L718.4485238130569,259.27017512681255L719.3913696448326,258.71633123165543L720.3342154766083,262.17376788682225L721.2770613083838,266.7066124221962L722.2199071401595,272.0535662361108L723.1627529719352,274.0504228848342L724.1055988037109,270.2639884173622L725.0484446354866,269.5115688852838L725.9912904672623,270.26724914722314L726.9341362990378,267.86732431206593L727.8769821308135,270.68898979488773L728.8198279625892,270.66975049020436L729.7626737943649,270.9148222907001L730.7055196261406,275.41609985692736L731.6483654579162,271.58638756222723L732.5912112896918,273.0630680518928L733.5340571214675,271.2786365647228L734.4769029532432,269.3468548194991L735.4197487850189,274.5715996329447L736.3625946167946,273.2157942186688L737.3054404485702,273.65708428382544L738.2482862803458,275.58618436398206L739.1911321121215,279.4256874543788L740.1339779438972,279.79851559230644L741.0768237756729,279.73454387140725L742.0196696074486,280.10844136139L742.9625154392241,272.97597548210103L743.9053612709998,272.0177066113968L744.8482071027755,271.48330994143834L745.7910529345512,266.43448635016625L746.7338987663269,269.0272560021652L747.6767445981026,268.04248005454104L748.6195904298781,269.95562135108156L749.5624362616538,274.3546888279672L750.5052820934295,271.7327704373006L751.4481279252052,270.79608727960704L752.3909737569809,271.2291458925214L753.3338195887566,269.2598860698003L754.2766654205321,268.2719444019539L755.2195112523078,265.23810199160573L756.1623570840835,263.8143712026322L757.1052029158592,266.954553884553L758.0480487476349,272.10688322200235L758.9908945794105,274.764732851972L759.9337404111861,271.563077748512L760.8765862429618,274.1945005066563L761.8194320747375,272.7632929692547L762.7622779065132,271.5122086228193L763.7051237382889,270.22471545325254L764.6479695700644,271.7652776364191L765.5908154018401,273.340897088973L766.5336612336158,270.4041361248055L767.4765070653915,274.9914078408261L768.4193528971672,277.5488379505244L769.3621987289429,274.95111029317525L770.3050445607184,271.83190051649916L771.2478903924941,269.97768601808747L772.1907362242698,267.5325031147668L773.1335820560455,267.4877343651465L774.0764278878212,266.32099141723074L775.0192737195969,268.55551705753743L775.9621195513724,264.95364838609277L776.9049653831481,267.19136657596914L777.8478112149238,267.19664836042824L778.7906570466995,271.32142242644665L779.7335028784752,270.24430161932514L780.6763487102507,269.4416158005859L781.6191945420264,268.34127177753817L782.5620403738021,266.75743391514095L783.5048862055778,267.9313105092587L784.4477320373535,266.8086371899431L785.3905778691292,268.82466107000215L786.3334237009047,265.9189926525561L787.2762695326804,266.363548323736L788.2191153644561,263.68411952597506L789.1619611962318,260.9161174090909L790.1048070280075,263.01691451990547L791.0476528597832,265.58807499016325L791.9904986915587,270.3997017861022L792.9333445233344,267.012066217285L793.8761903551101,267.3688152316655L794.8190361868858,270.3047490796525L795.7618820186615,275.9391207583231L796.7047278504372,276.72795801019913L797.6475736822127,280.60829213083474L798.5904195139884,279.68757631236593L799.5332653457641,279.37439472235275L800.4761111775398,278.21059911653305L801.4189570093155,272.27626434560983L802.361802841091,269.1126870574412L803.3046486728667,262.5935402997478L804.2474945046424,258.9031065317071L805.1903403364181,263.80704182653585L806.1331861681938,266.55590412441467L807.0760319999695,267.7366673453885L808.018877831745,270.0226014379261L808.9617236635207,271.461870446082L809.9045694952964,271.8741142412911L810.8474153270721,272.47661633361093L811.7902611588478,277.46118174569267L812.7331069906235,277.85609186578574L813.675952822399,277.2304841615044L814.6187986541747,274.63723500729327L815.5616444859504,268.15172629144615L816.5044903177261,266.81169516196377L817.4473361495018,269.3772174368052L818.3901819812775,272.58051080246963L819.333027813053,273.06257571104493L820.2758736448287,270.3901398742073L821.2187194766044,268.76073470181535L822.1615653083801,271.3813683087184L823.1044111401558,270.9569431676348L824.0472569719315,269.6741805202118L824.990102803707,272.680611360709L825.9329486354827,271.50402473469325L826.8757944672584,274.30924083745543L827.8186402990341,275.89296029024615L828.7614861308098,273.35145513768424L829.7043319625853,272.10122699229663L830.647177794361,271.26073305872103L831.5900236261367,273.4708578903168L832.5328694579124,271.41719455898357L833.4757152896881,267.00331808245556L834.4185611214638,272.3095921045459L835.3614069532393,279.0958854711418L836.304252785015,280.7027104180277L837.2470986167907,278.89570840424017L838.1899444485664,271.91127686522304L839.1327902803421,267.0027620093211L840.0756361121178,267.7770470296717L841.0184819438933,269.1418870937733L841.961327775669,270.3607700778565L842.9041736074447,268.09246976479346L843.8470194392204,267.86392049740266L844.7898652709961,269.59673973757737L845.7327111027718,269.1967072196714L846.6755569345473,269.84242930305066L847.618402766323,270.1633667002456L848.5612485980987,271.42112536336776L849.5040944298744,273.51497523899064L850.4469402616501,272.5150057464826L851.3897860934256,267.091686730778L852.3326319252013,266.95674050422826L853.275477756977,266.4712921812561L854.2183235887527,267.61559788332704L855.1611694205284,268.2362310107734L856.1040152523041,263.99792936193694L857.0468610840796,263.3442161980921L857.9897069158553,263.4079447200189L858.932552747631,263.94874769999564L859.8753985794067,265.4300952182974L860.8182444111824,262.8100893484637L861.7610902429581,261.22920100797126L862.7039360747336,261.1614029245848L863.6467819065093,264.433904102407L864.589627738285,266.9429638454667L865.5324735700607,269.52225939360517L866.4753194018364,270.9079989724603L867.4181652336121,269.55623392048244L868.3610110653876,270.29772056002713L869.3038568971633,270.8089836973782L870.246702728939,267.5527734502843L871.1895485607147,270.0654456083544L872.1323943924904,268.0080388241558L873.0752402242659,264.70285840528305L874.0180860560416,263.746804008422L874.9609318878173,264.6138244414181L875.903777719593,265.21719860323924L876.8466235513687,261.9287504188744L877.7894693831444,260.33704597955693L878.7323152149199,261.3649121895442L879.6751610466956,264.34354715025995L880.6180068784713,264.28632084142276L881.560852710247,261.8432702085173L882.5036985420227,263.59569881926075L883.4465443737984,265.35372975732633L884.3893902055739,265.55851122686295L885.3322360373496,265.67624561868263L886.2750818691253,265.7322185093968L887.217927700901,263.866602126426L888.1607735326767,263.2161106723387L889.1036193644524,264.8834150866441L890.0464651962279,267.53335315506547L890.9893110280036,266.6030202969174L891.9321568597793,268.39358628523536L892.875002691555,267.03152157141744L893.8178485233307,266.17753388643695L894.7606943551064,264.6011265756424L895.7035401868819,260.11259950337325L896.6463860186576,258.89588447666745L897.5892318504333,258.9644603654783L898.532077682209,258.52005212143825L899.4749235139847,256.1261290881316L900.4177693457602,256.9168688363239L901.3606151775359,259.32708708043634L902.3034610093116,255.87538228217807L903.2463068410873,255.74027720250984L904.189152672863,255.89097075083757L905.1319985046387,252.63738432516575L906.0748443364142,250.51218737838755L907.0176901681899,249.04155955656813L907.9605359999656,251.80329900279037L908.9033818317413,254.21950521576883L909.846227663517,254.91498266459848L910.7890734952927,254.51219726035092L911.7319193270682,255.1018395249771L912.6747651588439,255.81592765877022L913.6176109906196,258.705568813507L914.5604568223953,258.78972950194645L915.503302654171,262.6963431783758L916.4461484859467,260.16094982721904L917.3889943177222,258.7325710819948L918.3318401494979,259.41604667954897L919.2746859812736,258.5963048009821L920.2175318130493,257.8204509919502L921.160377644825,256.53845193522477L922.1032234766005,255.97405224596133L923.0460693083762,253.57151895310574L923.9889151401519,253.80794217200273L924.9317609719276,253.6846637641074L925.8746068037033,252.03178963600155L926.817452635479,251.87418128101953L927.7602984672545,249.9905286690512L928.7031442990302,248.13614021463582L929.6459901308059,246.21712724151396L930.5888359625816,246.34893042581865L931.5316817943573,246.79668866325713L932.474527626133,246.95281504013911L933.4173734579085,246.85730346237727L934.3602192896842,249.40993224081637L935.3030651214599,249.72681451970925L936.2459109532356,249.83474528640568L937.1887567850113,251.5279694126557L938.131602616787,252.9077824132216L939.0744484485625,251.00656257256105L940.0172942803382,246.93514987440787L940.9601401121139,244.97655604359593L941.9029859438896,244.608418729024L942.8458317756653,245.01604529001673L943.7886776074408,245.60807686569353L944.7315234392165,242.5785976697983L945.6743692709922,239.61574744264558L946.6172151027679,237.88204989192778L947.5600609345436,238.10441396313982L948.5029067663193,241.06121888331177L949.4457525980948,242.5831943284896L950.3885984298705,243.7179233265642L951.3314442616462,243.82451775365044L952.2742900934219,244.41926282504414L953.2171359251976,245.92223587888017L954.1599817569733,244.5774730665088L955.1028275887488,244.11205428136597L956.0456734205245,243.27408508995666L956.9885192523002,241.41617545601926L957.9313650840759,238.84059715515895L958.8742109158516,237.49439169283738L959.8170567476272,235.7202776083456L960.7599025794028,234.84461622895623L961.7027484111785,236.39610965560644L962.6455942429542,234.8591959091744L963.5884400747299,234.44309575352787L964.5312859065056,234.19454548309395L965.4741317382812,235.5065471194315L966.4169775700568,229.19032160806535L967.3598234018325,227.0830420484568L968.3026692336082,228.28215081762502L969.2455150653839,227.21594367971443L970.1883608971596,225.48573573145734L971.1312067289351,225.57397526646568L972.0740525607108,228.18386690147466L973.0168983924865,228.38681147830428L973.9597442242622,228.66535630405275L974.9025900560379,227.17780420094223L975.8454358878136,225.62069630207577L976.7882817195891,224.7360353490825L977.7311275513648,223.75962615638232L978.6739733831405,221.93463993154205L979.6168192149162,220.28476945319025L980.5596650466919,217.8473683721513L981.5025108784675,218.37993736015372L982.4453567102431,218.13621866396863L983.3882025420188,217.31674889050007L984.3310483737945,216.37203012639986L985.2738942055702,214.05487869408486L986.2167400373459,213.1577981434128L987.1595858691215,213.4536628174109L988.1024317008971,212.5412793663577L989.0452775326728,210.87177776200946L989.9881233644485,210.54454987732032L990.9309691962242,209.34226151557093L991.8738150279999,209.25780840985783L992.8166608597754,206.44661873359607L993.7595066915511,204.95560786536447L994.7023525233268,204.75828814250602L995.6451983551025,204.06955018729218L996.5880441868782,203.3607359981813L997.5308900186538,201.95103608327472L998.4737358504294,200.40312529924995L999.4165816822051,200.0191920080619L1000.3594275139808,198.52090217377992L1001.3022733457565,196.68332902279442L1002.2451191775322,196.4227401580672L1003.1879650093078,196.42542275392208L1004.1308108410834,193.94874933425464L1005.0736566728591,192.44981709203236L1006.0165025046348,192.0577489341447L1006.9593483364105,190.56931450878514L1007.9021941681862,189.3202734648601L1008.8450399999618,188.69161690427538L1009.7878858317374,187.57977862514372L1010.7307316635131,186.66210896533215L1011.6735774952888,185.78502048161187L1012.6164233270645,184.52786051768305L1013.5592691588402,183.06410203260856L1014.5021149906157,182.16858857113343L1015.4449608223914,181.81781726059276L1016.3878066541671,180.428067046928L1017.3306524859428,179.27218082357743L1018.2734983177185,178.39552323625514L1019.2163441494941,177.4660199712742L1020.1591899812697,176.39989089298925L1021.1020358130454,175.50232457204766L1022.0448816448211,175.17469049892648L1022.9877274765968,174.5591511105563L1023.9305733083725,173.40054617663137L1024.8734191401481,172.89650209399872L1025.8162649719236,171.9836633750258L1026.7591108036993,171.4857869272247L1027.701956635475,170.90515122020216L1028.6448024672509,170.28882548960766L1029.5876482990266,169.63619821813765L1030.5304941308023,169.30825683547002L1031.4733399625777,168.89080592293305L1032.4161857943534,168.43870513379784L1033.359031626129,168.18174122970723L1034.3018774579048,167.9672481452364L1035.2447232896805,167.75419929893755L1036.1875691214561,167.66830356145235L1037.1304149532316,167.60921916212905" fill="none"></path></g></g></g></g><g opacity="0.2"><g><g><g><path style="fill: none;" stroke="rgb(255, 112, 67)" stroke-width="2px" d="M95.22742900934219,167.3716840018204L96.17027484111786,302.4718218769035L97.11312067289352,342.1186569929295L98.05596650466919,354.7446856455704L98.99881233644484,354.1095302280315L99.94165816822051,342.2876088327917L100.88450399999618,337.78442426001305L101.82734983177184,265.9195456954583L102.77019566354751,220.54990929660494L103.71304149532317,84.12227671729903L104.65588732709884,80.65665970098382L105.59873315887451,118.07748145572559L106.54157899065017,178.178515332887L107.48442482242584,62.5417537897588L108.42727065420151,70.12074565366828L109.37011648597716,148.40111596424958L110.31296231775283,164.81816373019046L111.25580814952849,144.71223475757674L112.19865398130416,160.72649823539336L113.14149981307983,134.51632868912588L114.08434564485549,162.87525800159673L115.02719147663116,93.97771497855462L115.97003730840682,225.7553842231977L116.91288314018249,117.41705886110233L117.85572897195816,225.2991760664372L118.79857480373381,201.35435614929483L119.74142063550948,200.10532601348552L120.68426646728516,226.9759946300626L121.62711229906081,182.30585844023733L122.56995813083648,222.68382839570023L123.51280396261214,204.95677599082924L124.45564979438781,219.89049208934873L125.39849562616348,247.1686426470382L126.34134145793914,229.75306158657963L127.28418728971481,165.78092929749266L128.22703312149045,224.788486046195L129.16987895326614,193.5333309157516L130.11272478504182,230.82276646713527L131.05557061681745,235.6191266723568L131.99841644859313,197.33468691147192L132.9412622803688,264.54591377259305L133.88410811214445,242.62321621744377L134.82695394392013,250.47333533502635L135.7697997756958,211.8938708862504L136.71264560747147,233.27863164414126L137.65549143924713,248.89057504612086L138.59833727102279,190.08025201514718L139.54118310279847,189.41885325953388L140.4840289345741,237.315745132152L141.42687476634978,239.46444498428258L142.36972059812544,211.9576506344519L143.31256642990112,221.47054017047344L144.25541226167678,240.2721295502222L145.19825809345244,261.85729752327205L146.14110392522812,161.57516889815255L147.08394975700378,216.7902983092923L148.02679558877944,222.68547286650988L148.9696414205551,157.94991107856455L149.91248725233078,193.66747608909358L150.85533308410643,267.34438223073676L151.7981789158821,215.88290893260643L152.74102474765778,213.7624105858057L153.68387057943343,183.57629397452354L154.6267164112091,235.4716230963243L155.56956224298477,188.8014148717009L156.51240807476043,222.27310817202192L157.4552539065361,252.73710138162713L158.39809973831177,228.64805513952078L159.34094557008743,192.67304861343092L160.28379140186308,250.67962679407756L161.22663723363874,278.0000464865347L162.16948306541443,226.0492768760883L163.11232889719008,215.04314549532847L164.05517472896574,200.1906124782706L164.99802056074142,260.79945855175737L165.94086639251708,221.6630289859046L166.88371222429274,213.20861750484033L167.82655805606842,223.0979271885537L168.76940388784408,201.56806331439037L169.71224971961973,225.4501166643988L170.65509555139542,251.08780627138646L171.59794138317108,233.77650102702884L172.54078721494673,250.2648850209312L173.4836330467224,211.7794398783725L174.42647887849807,236.5019580987056L175.36932471027373,220.12757645915258L176.3121705420494,193.82685921314294L177.25501637382507,161.34772290035994L178.19786220560073,252.35036237444746L179.14070803737638,181.3415506944449L180.08355386915207,202.7235495597142L181.02639970092773,236.64923565742305L181.96924553270338,180.17160518623226L182.91209136447904,255.05642871923163L183.85493719625472,144.3644798403957L184.79778302803038,144.21868113635188L185.74062885980604,200.78911801911653L186.68347469158172,264.96053084653107L187.62632052335738,169.04093875197728L188.56916635513304,189.17640487534746L189.51201218690872,202.13680081610198L190.45485801868438,103.182137641714L191.39770385046003,244.7334541575105L192.34054968223572,275.0164074977477L193.28339551401137,102.01038984025621L194.22624134578703,249.79353760091155L195.1690871775627,194.04609990560738L196.11193300933837,193.81010080860085L197.05477884111403,163.6784499862931L197.99762467288969,258.71445661397286L198.94047050466537,160.8745200925104L199.88331633644103,225.85228719860717L200.82616216821668,211.45673781151146L201.76900799999237,265.5153487991148L202.71185383176802,233.80274241667806L203.65469966354368,192.23834132797862L204.59754549531937,246.24201841747018L205.54039132709502,236.22755749081426L206.48323715887068,109.13859796296681L207.42608299064634,255.89284086528625L208.36892882242202,195.51129806745126L209.31177465419768,243.7321818643665L210.25462048597333,281.0444295771708L211.19746631774902,97.23474918786589L212.14031214952468,274.183128419302L213.08315798130033,227.8942133536203L214.02600381307602,89.8534990935377L214.96884964485167,231.17448837788075L215.91169547662733,228.98901394984878L216.85454130840301,252.41476951554077L217.79738714017867,220.88965618650215L218.74023297195433,221.96611041170772L219.68307880372998,271.9655478419799L220.62592463550567,158.77418843291022L221.56877046728133,214.42606366929434L222.51161629905698,284.7317228173628L223.45446213083267,94.8147038584476L224.39730796260832,231.70888683510336L225.34015379438398,255.21054914700517L226.28299962615966,229.98327580937553L227.22584545793532,201.52079452073949L228.16869128971098,231.57505340978213L229.11153712148666,247.07585084865275L230.05438295326232,184.16122873433983L230.99722878503798,232.31740338426656L231.94007461681363,79.82681764446721L232.88292044858932,251.53319287497558L233.82576628036497,229.81984190948114L234.76861211214063,211.41417251612407L235.71145794391632,216.76782517384422L236.65430377569197,157.61513072432336L237.59714960746763,218.17226169801287L238.5399954392433,140.39355240562185L239.48284127101897,192.91830272980434L240.42568710279463,232.7333492841432L241.3685329345703,233.83403412426398L242.31137876634597,163.8624587684527L243.25422459812162,226.61227431736728L244.19707042989728,281.7460808475423L245.13991626167297,24.810750548040588L246.08276209344862,290.5984542645344L247.02560792522428,261.7288417513093L247.96845375699996,219.2438565509445L248.91129958877562,54.10340512546527L249.85414542055128,252.7324797172191L250.79699125232696,259.81115497627786L251.73983708410262,221.18233691896205L252.68268291587827,162.25382680356637L253.62552874765393,128.8471129942205L254.56837457942962,241.58213370204604L255.51122041120527,104.54313597603704L256.4540662429809,183.54988307188805L257.39691207475664,320.5433090825343L258.33975790653227,4.105678412457167L259.2826037383079,10.125517106334755L260.22544957008364,247.2073617512192L261.16829540185927,271.53133740493575L262.1111412336349,74.39040757778051L263.05398706541064,163.5510931261036L263.99683289718627,242.573414471124L264.9396787289619,301.20868124630357L265.8825245607376,74.40427257100471L266.82537039251326,15.937466632554653L267.7682162242889,124.92589572978535L268.7110620560646,241.11456622677832L269.65390788784026,62.24581139363153L270.5967537196159,259.7550403325373L271.5395995513916,160.4140322199521L272.48244538316726,273.6297211265123L273.42529121494294,31.973379549095643L274.3681370467186,46.27401725126463L275.31098287849426,265.0835777903333L276.25382871026994,197.90850980277253L277.19667454204557,275.4775139952847L278.1395203738212,19.10468623707893L279.08236620559694,86.7482861703467L280.02521203737257,291.5743814435889L280.9680578691482,253.58576522489838L281.91090370092394,96.47932138390966L282.85374953269957,149.72722384977186L283.79659536447525,259.50940627326355L284.7394411962509,183.8066484839288L285.68228702802656,38.600308544941385L286.62513285980225,252.14236409498247L287.5679786915779,229.60753761047908L288.51082452335356,195.00188036881895L289.45367035512925,208.9249035386914L290.3965161869049,256.13456248689914L291.33936201868056,233.6692207393776L292.28220785045625,77.47347080409499L293.2250536822319,262.24629670360247L294.16789951400756,15.628960791189868L295.1107453457832,178.10838177033693L296.05359117755887,303.32970566788936L296.99643700933456,15.399903932921147L297.9392828411102,104.09273802301388L298.88212867288587,302.5495562458852L299.82497450466155,50.79811232253712L300.7678203364372,240.624365845202L301.71066616821287,175.69607363710944L302.65351199998855,134.56516791343145L303.5963578317642,217.0821646000479L304.53920366353987,107.9308198840073L305.48204949531555,253.2503789104418L306.4248953270912,38.357456836753094L307.36774115886686,158.32875896396826L308.31058699064255,140.8455656030777L309.2534328224182,187.58833707638811L310.19627865419386,185.8864948888197L311.13912448596955,290.468533276874L312.0819703177452,167.1418061140203L313.02481614952086,86.11442450709399L313.96766198129654,26.65154467374642L314.9105078130722,325.453761269661L315.85335364484786,38.271741718439394L316.79619947662354,120.43647872897445L317.73904530839917,26.353186230458114L318.68189114017486,38.719131303062014L319.6247369719505,91.33557256543152L320.56758280372617,166.21817318891087L321.51042863550185,304.4315634599383L322.4532744672775,163.50336620899404L323.39612029905317,164.739364059769L324.33896613082885,40.633279738057595L325.2818119626045,278.5794068020544L326.22465779438016,105.16553310582552L327.16750362615585,229.56350709939406L328.1103494579315,111.62194762485493L329.05319528970716,279.70945440888244L329.99604112148285,111.17967850147359L330.9388869532585,226.9596824148752L331.88173278503416,243.9409049579798L332.82457861680984,38.078270896742794L333.7674244485855,323.36889961848584L334.71027028036116,18.697792720355732L335.65311611213684,218.84220040097046L336.59596194391247,227.71051583237517L337.53880777568816,146.27598036563975L338.48165360746384,271.7980300430133L339.42449943923947,28.231951265095045L340.36734527101515,107.3967838338589L341.31019110279084,260.3369102196243L342.25303693456647,156.29219974597535L343.19588276634215,43.508430415612835L344.1387285981178,321.9534233175313L345.08157442989346,32.23806920613966L346.02442026166915,9.813815847757034L346.9672660934448,56.917234967332924L347.91011192522046,306.46693511281455L348.85295775699615,21.899413718973204L349.7958035887718,241.14756475477802L350.73864942054746,287.829032928227L351.68149525232315,44.998593748645895L352.6243410840988,292.6510733766603L353.56718691587446,89.51129329112653L354.51003274765014,8.645415440672378L355.45287857942577,175.52017420034036L356.39572441120146,326.10716953381666L357.33857024297714,16.112061111592975L358.28141607475277,29.568305918375376L359.22426190652845,93.5111295095524L360.16710773830414,39.914240721827035L361.10995357007977,250.11824654565638L362.05279940185545,281.4901123413797L362.99564523363114,180.90442249076875L363.93849106540677,78.76317236606546L364.88133689718245,325.6643314702975L365.8241827289581,137.1159136005621L366.76702856073376,18.091177834119282L367.70987439250945,212.14114941633377L368.6527202242851,58.730774522322015L369.59556605606076,267.2771070078522L370.53841188783645,232.69858548297586L371.4812577196121,18.171982921105684L372.42410355138776,302.9326945634249L373.36694938316344,142.09477889084926L374.3097952149391,27.42117260004919L375.25264104671476,183.09759027542609L376.19548687849044,320.58656412041756L377.13833271026607,28.28882969148652L378.08117854204176,18.288716967487073L379.02402437381744,38.36379311527545L379.96687020559307,295.4630950800074L380.90971603736875,20.82357129925845L381.85256186914444,272.01861514881733L382.79540770092007,21.16103853175374L383.73825353269575,253.61169486652685L384.68109936447144,40.54715934731687L385.62394519624706,326.3285573907742L386.56679102802275,11.42081454527826L387.50963685979843,22.11738793510321L388.45248269157406,326.46042680356453L389.39532852334975,21.610890925740524L390.3381743551254,82.1156404382383L391.28102018690106,61.80167178212553L392.22386601867674,120.85812961763136L393.1667118504524,224.8273025716325L394.10955768222806,25.318899821913387L395.05240351400374,162.35077946381665L395.99524934577937,221.51812850584562L396.93809517755506,116.94810410714221L397.88094100933074,307.89160798038205L398.82378684110637,48.80563719732037L399.76663267288205,56.67679151260515L400.70947850465774,57.794673152922236L401.65232433643337,40.991104116309906L402.59517016820905,330.24906932531235L403.53801599998474,18.300516630073663L404.48086183176036,310.79987409144474L405.42370766353605,7.524073397324641L406.36655349531173,-7.886083304503994L407.30939932708736,81.9076031902707L408.25224515886305,14.517890845126843L409.19509099063873,323.6343374707797L410.13793682241436,10.255406919193115L411.08078265419005,219.0513833229144L412.02362848596573,78.93104088155543L412.96647431774136,53.08730921393314L413.90932014951704,305.4716639690705L414.85216598129267,27.431475872136L415.79501181306836,2.4684245695191707L416.73785764484404,20.20386299614919L417.68070347661967,255.8108043736177L418.62354930839535,15.54612934206843L419.56639514017104,30.975177973956328L420.50924097194667,329.27460736195553L421.45208680372235,18.37913948091456L422.39493263549804,34.057570942026146L423.33777846727367,322.92141650945695L424.28062429904935,21.867724532660862L425.22347013082504,104.84541465068668L426.16631596260066,133.888690295738L427.10916179437635,46.0569471043949L428.05200762615203,45.452615772410645L428.99485345792766,321.6001504603824L429.93769928970335,28.758556021798114L430.88054512147903,39.69484805220249L431.82339095325466,9.773865338893946L432.76623678503034,175.04040617401566L433.70908261680603,334.0969751458107L434.65192844858166,43.571489246516286L435.59477428035734,44.64073040189105L436.53762011213297,43.84009134122107L437.48046594390865,11.359166374168838L438.42331177568434,283.0078419931503L439.36615760745997,56.72354592202178L440.30900343923565,171.34314454730605L441.25184927101134,322.10236093445934L442.19469510278697,17.337542581282577L443.13754093456265,26.625544888813327L444.08038676633834,45.070630922547835L445.02323259811396,152.47385543154763L445.96607842988965,329.3253131775355L446.90892426166533,23.546113526940918L447.85177009344096,27.878413422128506L448.79461592521665,72.80389851892511L449.73746175699233,332.2072677556443L450.68030758876796,50.110770286319465L451.62315342054364,42.75928433427537L452.56599925231933,49.898080199141724L453.50884508409496,317.47608265567544L454.45169091587064,36.047614432680874L455.3945367476463,39.88573915902716L456.33738257942196,325.8144069675014L457.28022841119764,16.546248167535534L458.2230742429733,20.851254523503762L459.16592007474895,30.511920415075974L460.10876590652464,151.72486522422054L461.05161173830027,328.21801538252396L461.99445757007595,34.87101505264968L462.93730340185164,25.88347548754755L463.88014923362726,38.112984038856744L464.82299506540295,319.3542397816718L465.76584089717863,35.74972361142371L466.70868672895426,28.929393937186006L467.65153256072995,319.06874094424074L468.59437839250563,31.950996041203584L469.53722422428126,35.23077226863081L470.48007005605695,248.38433522887527L471.42291588783263,47.98522551843236L472.36576171960826,323.1762861038464L473.30860755138394,20.787922913082124L474.2514533831596,58.43402158134069L475.19429921493526,67.51770423605166L476.13714504671094,47.44458430709368L477.0799908784866,327.45965714717244L478.02283671026225,17.090544624417905L478.96568254203794,40.51090305250009L479.9085283738136,327.7684435617559L480.85137420558925,30.876540900181272L481.79422003736494,52.31052667055345L482.7370658691406,319.4793442624112L483.67991170091625,46.69271822427489L484.62275753269194,21.387726105064516L485.56560336446756,318.2013956008242L486.50844919624325,27.986870558558163L487.45129502801893,40.70860585357878L488.39414085979456,55.130716172045005L489.33698669157025,55.25498672682879L490.27983252334593,110.3430364412537L491.22267835512156,308.24533287216104L492.16552418689724,57.67731561049928L493.10837001867293,303.0665435761472L494.05121585044856,55.46185491971845L494.99406168222424,44.26475449512876L495.9369075139999,30.488009341882076L496.87975334577555,73.19671661251003L497.82259917755124,313.24789101202754L498.7654450093269,32.02908892040918L499.70829084110255,319.23337507401504L500.65113667287824,32.683011568799145L501.5939825046539,46.25622423297855L502.53682833642955,45.93768789904519L503.47967416820524,61.91211631218769L504.4225199999809,312.4454516065376L505.36536583175655,29.617702392268097L506.30821166353223,67.65343932429964L507.25105749530786,69.22699525289158L508.19390332708355,298.29419576222625L509.13674915885923,56.37164475616433L510.07959499063486,37.86608740009881L511.02244082241054,313.58640260039243L511.96528665418623,63.921916833659346L512.9081324859618,46.35102680609799L513.8509783177375,77.05264994454343L514.7938241495133,84.83410656054906L515.7366699812889,70.94033120030122L516.6795158130645,314.40405530929655L517.6223616448402,64.58298630542572L518.5652074766158,56.22825625400613L519.5080533083916,60.307751885442045L520.4508991401673,172.36112677791706L521.3937449719429,107.63253548087391L522.3365908037185,93.27002359028045L523.2794366354942,307.8683204032297L524.2222824672698,79.26363705122604L525.1651282990456,55.60393408018935L526.1079741308213,85.84646928953231L527.0508199625968,320.63750374701317L527.9936657943725,67.48249229710446L528.9365116261482,27.50459637041018L529.8793574579238,56.10375968190733L530.8222032896996,63.16589670846366L531.7650491214752,311.9399677782425L532.7078949532508,278.9916857658365L533.6507407850265,65.92373660579904L534.5935866168021,54.27653438880596L535.5364324485778,80.36468429842095L536.4792782803536,310.09365571256876L537.4221241121292,71.52250504170841L538.3649699439048,50.62635475048793L539.3078157756805,101.04578301120632L540.2506616074561,82.9128736517812L541.1935074392318,170.50250894622934L542.1363532710076,302.5628990611746L543.0791991027832,311.1340212075187L544.0220449345588,65.80598158464962L544.9648907663345,56.541188917266L545.9077365981101,73.64514275930176L546.8505824298859,111.17946027785905L547.7934282616616,292.78953626009013L548.7362740934371,100.11420198810788L549.6791199252128,317.8527366143829L550.6219657569885,59.1317682077519L551.5648115887641,52.02560456696077L552.5076574205399,320.01801366751846L553.4505032523156,41.16114707424482L554.3933490840911,309.58913830313804L555.3361949158668,41.87992889835823L556.2790407476424,317.16729624109195L557.2218865794181,42.964726279969966L558.1647324111939,309.87346808549125L559.1075782429695,89.72692939710066L560.0504240747451,68.1479184474612L560.9932699065208,44.87761213548139L561.9361157382964,287.1885154447306L562.8789615700721,54.88301678213357L563.8218074018479,66.8970840699816L564.7646532336234,69.82481884494203L565.7074990653991,299.3306020573123L566.6503448971748,72.26551748073703L567.5931907289505,84.34939294413842L568.5360365607261,310.0326154500999L569.4788823925018,48.11422684943152L570.4217282242774,69.441929925819L571.3645740560531,83.47550868598601L572.3074198878288,302.6769988367804L573.2502657196045,69.01311272953436L574.1931115513801,293.62608089905353L575.1359573831558,62.756431270569045L576.0788032149314,122.01649563529708L577.0216490467071,84.1892869543659L577.9644948784828,291.79530947221576L578.9073407102585,291.88330814478167L579.8501865420341,61.95470888552687L580.7930323738098,105.17978388722548L581.7358782055854,295.1186602792477L582.6787240373611,95.56738048612043L583.6215698691368,50.18103049650296L584.5644157009125,291.29841430189316L585.5072615326881,43.50497001258218L586.4501073644637,75.49564004215439L587.3929531962394,309.6024031814223L588.3357990280151,98.21223510702428L589.2786448597908,47.461691479734036L590.2214906915664,98.78174418508729L591.1643365233421,291.01312589437606L592.1071823551177,297.13820292636876L593.0500281868934,80.8491952786181L593.9928740186691,70.40925285949993L594.9357198504448,290.09306396064545L595.8785656822204,74.00860977673018L596.821411513996,295.25123112508476L597.7642573457717,292.8591262120289L598.7071031775474,293.92667613439096L599.6499490093231,104.50827475361322L600.5927948410988,283.2398604576165L601.5356406728744,300.40758235730294L602.47848650465,74.5068610509432L603.4213323364257,85.53646705766783L604.3641781682014,296.99868009966826L605.3070239999771,75.18545855517795L606.2498698317528,80.58479398849329L607.1927156635284,290.04418966468756L608.135561495304,84.40038712663765L609.0784073270797,299.5512105442179L610.0212531588554,306.08189513234805L610.9640989906311,97.261543930252L611.9069448224068,66.89370160395615L612.8497906541824,277.003278952291L613.792636485958,284.9888214101008L614.7354823177337,228.05081997185957L615.6783281495094,286.1602068044844L616.6211739812851,282.1556865720463L617.5640198130607,76.53917757321578L618.5068656448364,86.80228872124648L619.449711476612,294.4002291716576L620.3925573083877,74.9460126941167L621.3354031401634,278.3999646412929L622.2782489719391,120.76943730571918L623.2210948037147,284.3337452940339L624.1639406354903,291.78447622849365L625.106786467266,91.92966297493312L626.0496322990417,291.50980284108414L626.9924781308174,85.0302272404223L627.9353239625931,281.823799629123L628.8781697943687,129.66400192047368L629.8210156261443,285.39123354902523L630.76386145792,96.0990667355622L631.7067072896957,283.2042276588412L632.6495531214714,286.6434785862989L633.5923989532471,88.60048247991263L634.5352447850227,157.35661270387826L635.4780906167983,277.1721840299501L636.420936448574,87.87960415035947L637.3637822803497,278.04778290221674L638.3066281121254,286.69568858607914L639.249473943901,288.9485668330542L640.1923197756767,83.34671778490093L641.1351656074523,268.2446403714472L642.078011439228,275.4070511488877L643.0208572710037,281.22666188271825L643.9637031027794,71.36807286591412L644.906548934555,294.65049268904L645.8493947663306,296.2551143079028L646.7922405981063,294.21602505987875L647.735086429882,103.39699048078589L648.6779322616577,279.2713938837817L649.6207780934334,279.4136912678671L650.563623925209,280.0102834552355L651.5064697569846,87.29195133748699L652.4493155887603,280.6879301280068L653.392161420536,278.3637706960803L654.3350072523117,291.8351976314747L655.2778530840874,291.8977264907428L656.220698915863,98.62166937011683L657.1635447476386,274.20159948953324L658.1063905794143,271.7365143648127L659.04923641119,290.3250044881064L659.9920822429657,98.37475714395788L660.9349280747413,291.3358786202905L661.877773906517,286.0389290307001L662.8206197382926,287.271900246589L663.7634655700683,289.63436571656905L664.706311401844,97.36256587638603L665.6491572336197,273.1742962366541L666.5920030653953,108.00600181606886L667.534848897171,276.2223189854328L668.4776947289466,269.9003185224134L669.4205405607223,273.969534262864L670.363386392498,294.5243360587305L671.3062322242737,276.89756519844417L672.2490780560493,271.735033561714L673.1919238878249,269.50477263364655L674.1347697196006,270.51959817199406L675.0776155513763,82.17543370862406L676.020461383152,278.633167748238L676.9633072149277,289.2124771200463L677.9061530467033,282.64315136474033L678.8489988784789,98.34496962057229L679.7918447102546,285.9392164262534L680.7346905420303,275.61908656522183L681.677536373806,276.60516114235276L682.6203822055817,271.79941732170573L683.5632280373572,265.30520725200694L684.5060738691329,283.3236661193029L685.4489197009086,279.26178425104115L686.3917655326843,284.37586245164147L687.33461136446,107.91344772554929L688.2774571962356,263.9169699343682L689.2203030280112,270.38499317032137L690.1631488597869,265.6122400839735L691.1059946915626,272.7320972565774L692.0488405233383,256.70385334134767L692.991686355114,269.0318119176194L693.9345321868896,263.65367534971716L694.8773780186652,272.3788789553322L695.8202238504409,284.726399719908L696.7630696822166,268.8146092778409L697.7059155139923,279.18450191668956L698.648761345768,276.93980705525996L699.5916071775436,281.62711780281234L700.5344530093192,285.6015621449456L701.4772988410949,280.3512110907614L702.4201446728706,272.36767940768567L703.3629905046463,269.7914171450541L704.305836336422,269.34904670356605L705.2486821681975,255.29107366077287L706.1915279999732,266.6475942294894L707.1343738317489,262.45313372169005L708.0772196635246,267.21269986675884L709.0200654953003,269.5647685402459L709.9629113270759,277.9963990346916L710.9057571588515,267.11728159129837L711.8486029906272,282.2384478778631L712.7914488224029,101.01594093191704L713.7342946541786,268.64286729319264L714.6771404859543,260.12531125051925L715.6199863177299,259.7167031196818L716.5628321495055,259.5756215528774L717.5056779812812,264.4683274839212L718.4485238130569,261.405356417546L719.3913696448326,257.8855653889196L720.3342154766083,267.35992286957264L721.2770613083838,273.5058792252571L722.2199071401595,280.0739969569825L723.1627529719352,277.04570785791924L724.1055988037109,264.5843367161543L725.0484446354866,268.3829395871661L725.9912904672623,271.4007695401322L726.9341362990378,264.26743705933L727.8769821308135,274.9214880191205L728.8198279625892,270.6408915331794L729.7626737943649,271.2824299914438L730.7055196261406,282.1680162062682L731.6483654579162,265.84181912017704L732.5912112896918,275.27808878639115L733.5340571214675,268.60198933396777L734.4769029532432,266.4491822016634L735.4197487850189,282.40871685311305L736.3625946167946,271.18208609725497L737.3054404485702,274.31901938156034L738.2482862803458,278.47983448421695L739.1911321121215,285.184942089974L740.1339779438972,280.3577577991978L741.0768237756729,279.6385862900584L742.0196696074486,280.66928759636414L742.9625154392241,262.2772766631675L743.9053612709998,270.58030330534064L744.8482071027755,270.68171493650067L745.7910529345512,258.86125096325804L746.7338987663269,272.9164104801636L747.6767445981026,266.5653161331048L748.6195904298781,272.8253332958925L749.5624362616538,280.95329004329557L750.5052820934295,267.7998928513007L751.4481279252052,269.39106254306677L752.3909737569809,271.8787338118929L753.3338195887566,266.30599633571876L754.2766654205321,266.79003190018415L755.2195112523078,260.6873383760835L756.1623570840835,261.6787750191719L757.1052029158592,271.66482790743413L758.0480487476349,279.83537722817636L758.9908945794105,278.7515072969265L759.9337404111861,266.7605950933219L760.8765862429618,278.14163464387286L761.8194320747375,270.61648166315223L762.7622779065132,269.63558210316626L763.7051237382889,268.29347569890257L764.6479695700644,274.07612091116897L765.5908154018401,275.7043262678039L766.5336612336158,265.99899467855425L767.4765070653915,281.872315414857L768.4193528971672,281.38498311507186L769.3621987289429,271.0545188071514L770.3050445607184,267.15308585148506L771.2478903924941,267.19636427047L772.1907362242698,263.8647287597858L773.1335820560455,267.4205812407161L774.0764278878212,264.5708769953571L775.0192737195969,271.9073055179975L775.9621195513724,259.5508453789258L776.9049653831481,270.5479438607835L777.8478112149238,267.20457103711703L778.7906570466995,277.5085835254742L779.7335028784752,268.62862040864303L780.6763487102507,268.237587072477L781.6191945420264,266.6907557429665L782.5620403738021,264.3816771215451L783.5048862055778,269.6921254004354L784.4477320373535,265.12462721096966L785.3905778691292,271.84869689009065L786.3334237009047,261.56049002638713L787.2762695326804,267.0303818305057L788.2191153644561,259.66497632933374L789.1619611962318,256.76411423376453L790.1048070280075,266.16811018612736L791.0476528597832,269.4448156955499L791.9904986915587,277.61714198001056L792.9333445233344,261.9306128640592L793.8761903551101,267.9039387532363L794.8190361868858,274.7086498516328L795.7618820186615,284.3906782763291L796.7047278504372,277.9112138880132L797.6475736822127,286.4287933117881L798.5904195139884,278.30650258466284L799.5332653457641,278.90462233733297L800.4761111775398,276.46490570780344L801.4189570093155,263.37476218922507L802.361802841091,264.3673211251882L803.3046486728667,252.8148201632078L804.2474945046424,253.3674558796461L805.1903403364181,271.162944768779L806.1331861681938,270.6791975712328L807.0760319999695,269.5078121768492L808.018877831745,273.4515025767324L808.9617236635207,273.6207739583159L809.9045694952964,272.4924799341048L810.8474153270721,273.38036947209076L811.7902611588478,284.9380298638151L812.7331069906235,278.44845704592535L813.675952822399,276.2920726050825L814.6187986541747,270.7473612759765L815.5616444859504,258.4234632176754L816.5044903177261,264.8016484677401L817.4473361495018,273.2255008490673L818.3901819812775,277.38545085096627L819.333027813053,273.78567307390796L820.2758736448287,266.3814861189508L821.2187194766044,266.3166269432274L822.1615653083801,275.3123187190729L823.1044111401558,270.32030545600935L824.0472569719315,267.7500365490773L824.990102803707,277.19025762145486L825.9329486354827,269.7391447956697L826.8757944672584,278.5170649915987L827.8186402990341,278.2685394694322L828.7614861308098,269.5391974088413L829.7043319625853,270.22588477421533L830.647177794361,269.99999215835754L831.5900236261367,276.78604513771035L832.5328694579124,268.3366995619838L833.4757152896881,260.3825033676635L834.4185611214638,280.2690031376815L835.3614069532393,289.2753255210357L836.304252785015,283.1129478383566L837.2470986167907,276.18520538355887L838.1899444485664,261.43462955669736L839.1327902803421,259.63998972546807L840.0756361121178,268.9384745601976L841.0184819438933,271.1891471899257L841.961327775669,272.18909455398136L842.9041736074447,264.690019295199L843.8470194392204,267.52109659631634L844.7898652709961,272.19596859783957L845.7327111027718,268.5966584428124L846.6755569345473,270.81101242811945L847.618402766323,270.64477279603807L848.5612485980987,273.30776335805086L849.5040944298744,276.655750052425L850.4469402616501,271.01505150772056L851.3897860934256,258.9567082072211L852.3326319252013,266.75432116440373L853.275477756977,265.74311969679786L854.2183235887527,269.33205643643345L855.1611694205284,269.16718070194304L856.1040152523041,257.6404768886822L857.0468610840796,262.36364645232493L857.9897069158553,263.50353750290907L858.932552747631,264.7599521699607L859.8753985794067,267.65211649575L860.8182444111824,258.8800805437132L861.7610902429581,258.8578684972326L862.7039360747336,261.05970579950525L863.6467819065093,269.34265586914L864.589627738285,270.7065534600563L865.5324735700607,273.3912027158129L866.4753194018364,272.9866083407429L867.4181652336121,267.52858634251555L868.3610110653876,271.4099505193442L869.3038568971633,271.57587840340483L870.246702728939,262.66845807964336L871.1895485607147,273.8344538454596L872.1323943924904,264.9219286478579L873.0752402242659,259.7450877769739L874.0180860560416,262.31272241313036L874.9609318878173,265.9143550909123L875.903777719593,266.12225984597103L876.8466235513687,256.99607814232706L877.7894693831444,257.9494893205807L878.7323152149199,262.90671150452516L879.6751610466956,268.8114995913336L880.6180068784713,264.2004813781668L881.560852710247,258.17869425915933L882.5036985420227,266.2243417353757L883.4465443737984,267.9907761644248L884.3893902055739,265.86568343116784L885.3322360373496,265.85284720641215L886.2750818691253,265.8161778454678L887.217927700901,261.06817755196994L888.1607735326767,262.2403734912076L889.1036193644524,267.3843717081023L890.0464651962279,271.50826025769743L890.9893110280036,265.2075210096953L891.9321568597793,271.0794352677123L892.875002691555,264.9884245006905L893.8178485233307,264.89655235896635L894.7606943551064,262.23651560945046L895.7035401868819,253.3798088949695L896.6463860186576,257.0708119366088L897.5892318504333,259.0673241986947L898.532077682209,257.85343975537813L899.4749235139847,252.53524453817153L900.4177693457602,258.1029784586122L901.3606151775359,262.9424144466051L902.3034610093116,250.69782508479062L903.2463068410873,255.53761958300743L904.189152672863,256.1170110733292L905.1319985046387,247.75700468665795L906.0748443364142,247.3243919582203L907.0176901681899,246.83561782383904L907.9605359999656,255.94590817212364L908.9033818317413,257.8438145352365L909.846227663517,255.9581988378429L910.7890734952927,253.90801915397955L911.7319193270682,255.98630292191632L912.6747651588439,256.88705985946L913.6176109906196,263.04003054561207L914.5604568223953,258.91597053460555L915.503302654171,268.55626369301973L916.4461484859467,256.357859800484L917.3889943177222,256.59000296415843L918.3318401494979,260.44126007588017L919.2746859812736,257.36669198313194L920.2175318130493,256.6566702784025L921.160377644825,254.61545335013656L922.1032234766005,255.12745271206606L923.0460693083762,249.96771901382235L923.9889151401519,254.16257700034822L924.9317609719276,253.49974615226444L925.8746068037033,249.55247844384277L926.817452635479,251.63776874854653L927.7602984672545,247.16504975109873L928.7031442990302,245.35455753301275L929.6459901308059,243.33860778183117L930.5888359625816,246.5466352022757L931.5316817943573,247.46832601941483L932.474527626133,247.18700460546222L933.4173734579085,246.71403609573446L934.3602192896842,253.238875408475L935.3030651214599,250.2021379380485L936.2459109532356,249.99664143645032L937.1887567850113,254.0678056020308L938.131602616787,254.97750191407044L939.0744484485625,248.15473281157017L940.0172942803382,240.8280308271781L940.9601401121139,242.03866529737806L941.9029859438896,244.05621275716612L942.8458317756653,245.62748513150586L943.7886776074408,246.49612422920868L944.7315234392165,238.03437887595553L945.6743692709922,235.1714721019165L946.6172151027679,235.2815035658511L947.5600609345436,238.43796006995797L948.5029067663193,245.49642626356962L949.4457525980948,244.8661574962564L950.3885984298705,245.4200168236762L951.3314442616462,243.98440939427977L952.2742900934219,245.31138043213457L953.2171359251976,248.17669545963417L954.1599817569733,242.56032884795172L955.1028275887488,243.41392610365185L956.0456734205245,242.0171313028426L956.9885192523002,238.62931100511327L957.9313650840759,234.9772297038685L958.8742109158516,235.47508349935498L959.8170567476272,233.05910648160793L960.7599025794028,233.53112415987223L961.7027484111785,238.72334979558178L962.6455942429542,232.55382528952626L963.5884400747299,233.81894552005815L964.5312859065056,233.8217200774431L965.4741317382812,237.47454957393776L966.4169775700568,219.71598334101606L967.3598234018325,223.92212270904395L968.3026692336082,230.0808139713773L969.2455150653839,225.6166329728486L970.1883608971596,222.8904238090717L971.1312067289351,225.7063345689781L972.0740525607108,232.0987043539883L973.0168983924865,228.6912283435487L973.9597442242622,229.08317354267544L974.9025900560379,224.9464760462765L975.8454358878136,223.28503445377615L976.7882817195891,223.4090439195925L977.7311275513648,222.29501236733205L978.6739733831405,219.1971605942818L979.6168192149162,217.80996373566234L980.5596650466919,214.19126675059292L981.5025108784675,219.17879084215724L982.4453567102431,217.7706406196911L983.3882025420188,216.08754423029725L984.3310483737945,214.95495198024955L985.2738942055702,210.57915154561223L986.2167400373459,211.81217731740475L987.1595858691215,213.897459828408L988.1024317008971,211.17270418977796L989.0452775326728,208.36752535548706L989.9881233644485,210.0537080502866L990.9309691962242,207.5388289729468L991.8738150279999,209.1311287512882L992.8166608597754,202.22983421920347L993.7595066915511,202.719091563017L994.7023525233268,204.46230855821844L995.6451983551025,203.0364432544714L996.5880441868782,202.29751471451505L997.5308900186538,199.83648621091487L998.4737358504294,198.08125912321285L999.4165816822051,199.44329207127984L1000.3594275139808,196.2734674223569L1001.3022733457565,193.92696929631623L1002.2451191775322,196.03185686097635L1003.1879650093078,196.42944664770434L1004.1308108410834,190.23373920475348L1005.0736566728591,190.20141872869902L1006.0165025046348,191.4696466973131L1006.9593483364105,188.33666287074593L1007.9021941681862,187.4467118989725L1008.8450399999618,187.74863206339825L1009.7878858317374,185.91202120644627L1010.7307316635131,185.28560447561483L1011.6735774952888,184.46938775603147L1012.6164233270645,182.6421205717898L1013.5592691588402,180.8684643049968L1014.5021149906157,180.82531837892074L1015.4449608223914,181.29166029478174L1016.3878066541671,178.34344172643085L1017.3306524859428,177.53835148855168L1018.2734983177185,177.08053685527165L1019.2163441494941,176.07176507380274L1020.1591899812697,174.80069727556187L1021.1020358130454,174.15597509063522L1022.0448816448211,174.6832393892447L1022.9877274765968,173.63584202800106L1023.9305733083725,171.66263877574391L1024.8734191401481,172.14043597004974L1025.8162649719236,170.6144052965664L1026.7591108036993,170.73897225552307L1027.701956635475,170.03419765966837L1028.6448024672509,169.36433689371597L1029.5876482990266,168.65725731093264L1030.5304941308023,168.8163447614685L1031.4733399625777,168.26462955412754L1032.4161857943534,167.76055395009504L1033.359031626129,167.7962953735713L1034.3018774579048,167.6455085185301L1035.2447232896805,167.43462602948938L1036.1875691214561,167.53945995522446L1037.1304149532316,167.52059256314413" fill="none"></path></g></g></g></g></g><g><g opacity="0.0103212"><span fill="rgb(0, 0, 0)" stroke="none" stroke-width="1px">Alt + Scroll to Zoom</span></g></g></g><g transform="translate(61, 376)" clip-path="url(#clip_1)"><clipPath id="clip_1"><rect width="1131" height="23"></rect></clipPath><g><g><line x1="0" y1="0" x2="0" y2="5" style="visibility: inherit;" fill="rgb(0, 0, 0)" stroke="rgb(204, 204, 204)" stroke-width="1px"></line><line x1="94.28458317756652" y1="0" x2="94.28458317756652" y2="5" style="visibility: inherit;" fill="rgb(0, 0, 0)" stroke="rgb(204, 204, 204)" stroke-width="1px"></line><line x1="188.56916635513304" y1="0" x2="188.56916635513304" y2="5" style="visibility: inherit;" fill="rgb(0, 0, 0)" stroke="rgb(204, 204, 204)" stroke-width="1px"></line><line x1="282.85374953269957" y1="0" x2="282.85374953269957" y2="5" style="visibility: inherit;" fill="rgb(0, 0, 0)" stroke="rgb(204, 204, 204)" stroke-width="1px"></line><line x1="377.13833271026607" y1="0" x2="377.13833271026607" y2="5" style="visibility: inherit;" fill="rgb(0, 0, 0)" stroke="rgb(204, 204, 204)" stroke-width="1px"></line><line x1="471.42291588783263" y1="0" x2="471.42291588783263" y2="5" style="visibility: inherit;" fill="rgb(0, 0, 0)" stroke="rgb(204, 204, 204)" stroke-width="1px"></line><line x1="565.7074990653991" y1="0" x2="565.7074990653991" y2="5" style="visibility: inherit;" fill="rgb(0, 0, 0)" stroke="rgb(204, 204, 204)" stroke-width="1px"></line><line x1="659.9920822429657" y1="0" x2="659.9920822429657" y2="5" style="visibility: inherit;" fill="rgb(0, 0, 0)" stroke="rgb(204, 204, 204)" stroke-width="1px"></line><line x1="754.2766654205321" y1="0" x2="754.2766654205321" y2="5" style="visibility: inherit;" fill="rgb(0, 0, 0)" stroke="rgb(204, 204, 204)" stroke-width="1px"></line><line x1="848.5612485980987" y1="0" x2="848.5612485980987" y2="5" style="visibility: inherit;" fill="rgb(0, 0, 0)" stroke="rgb(204, 204, 204)" stroke-width="1px"></line><line x1="942.8458317756653" y1="0" x2="942.8458317756653" y2="5" style="visibility: inherit;" fill="rgb(0, 0, 0)" stroke="rgb(204, 204, 204)" stroke-width="1px"></line><line x1="1037.1304149532316" y1="0" x2="1037.1304149532316" y2="5" style="visibility: inherit;" fill="rgb(0, 0, 0)" stroke="rgb(204, 204, 204)" stroke-width="1px"></line><line x1="1131.4149981307983" y1="0" x2="1131.4149981307983" y2="5" style="visibility: inherit;" fill="rgb(0, 0, 0)" stroke="rgb(204, 204, 204)" stroke-width="1px"></line></g><g transform="translate(0, 8)"><text style="text-anchor: middle; visibility: hidden; font-family: Roboto, sans-serif; font-size: 12px; font-weight: 200;" x="0" y="0" dx="0em" dy="0.95em" fill="rgb(255, 255, 255)" stroke="none" stroke-width="1px">-100</text><text style="text-anchor: middle; visibility: inherit; font-family: Roboto, sans-serif; font-size: 12px; font-weight: 200;" x="94.28458317756652" y="0" dx="0em" dy="0.95em" fill="rgb(255, 255, 255)" stroke="none" stroke-width="1px">0</text><text style="text-anchor: middle; visibility: inherit; font-family: Roboto, sans-serif; font-size: 12px; font-weight: 200;" x="188.56916635513304" y="0" dx="0em" dy="0.95em" fill="rgb(255, 255, 255)" stroke="none" stroke-width="1px">100</text><text style="text-anchor: middle; visibility: inherit; font-family: Roboto, sans-serif; font-size: 12px; font-weight: 200;" x="282.85374953269957" y="0" dx="0em" dy="0.95em" fill="rgb(255, 255, 255)" stroke="none" stroke-width="1px">200</text><text style="text-anchor: middle; visibility: inherit; font-family: Roboto, sans-serif; font-size: 12px; font-weight: 200;" x="377.13833271026607" y="0" dx="0em" dy="0.95em" fill="rgb(255, 255, 255)" stroke="none" stroke-width="1px">300</text><text style="text-anchor: middle; visibility: inherit; font-family: Roboto, sans-serif; font-size: 12px; font-weight: 200;" x="471.42291588783263" y="0" dx="0em" dy="0.95em" fill="rgb(255, 255, 255)" stroke="none" stroke-width="1px">400</text><text style="text-anchor: middle; visibility: inherit; font-family: Roboto, sans-serif; font-size: 12px; font-weight: 200;" x="565.7074990653991" y="0" dx="0em" dy="0.95em" fill="rgb(255, 255, 255)" stroke="none" stroke-width="1px">500</text><text style="text-anchor: middle; visibility: inherit; font-family: Roboto, sans-serif; font-size: 12px; font-weight: 200;" x="659.9920822429657" y="0" dx="0em" dy="0.95em" fill="rgb(255, 255, 255)" stroke="none" stroke-width="1px">600</text><text style="text-anchor: middle; visibility: inherit; font-family: Roboto, sans-serif; font-size: 12px; font-weight: 200;" x="754.2766654205321" y="0" dx="0em" dy="0.95em" fill="rgb(255, 255, 255)" stroke="none" stroke-width="1px">700</text><text style="text-anchor: middle; visibility: inherit; font-family: Roboto, sans-serif; font-size: 12px; font-weight: 200;" x="848.5612485980987" y="0" dx="0em" dy="0.95em" fill="rgb(255, 255, 255)" stroke="none" stroke-width="1px">800</text><text style="text-anchor: middle; visibility: inherit; font-family: Roboto, sans-serif; font-size: 12px; font-weight: 200;" x="942.8458317756653" y="0" dx="0em" dy="0.95em" fill="rgb(255, 255, 255)" stroke="none" stroke-width="1px">900</text><text style="text-anchor: middle; visibility: inherit; font-family: Roboto, sans-serif; font-size: 12px; font-weight: 200;" x="1037.1304149532316" y="0" dx="0em" dy="0.95em" fill="rgb(255, 255, 255)" stroke="none" stroke-width="1px">1k</text><text style="text-anchor: middle; visibility: hidden; font-family: Roboto, sans-serif; font-size: 12px; font-weight: 200;" x="1131.4149981307983" y="0" dx="0em" dy="0.95em" fill="rgb(255, 255, 255)" stroke="none" stroke-width="1px">1.1k</text></g><line x1="0" y1="0" x2="1131.4149981307983" y2="0" fill="rgb(0, 0, 0)" stroke="rgb(204, 204, 204)" stroke-width="1px"></line></g></g></g></g></svg>