<svg viewBox="0 0 1193.3333740234375 400" xmlns="http://www.w3.org/2000/svg"><g><g><g><g><g><line x1="51.53200149536133" y1="376.57899951934814" x2="46.53200149536133" y2="376.57899951934814" style="visibility: inherit;" fill="rgb(0, 0, 0)" stroke="rgb(204, 204, 204)" stroke-width="1px"></line><line x1="51.53200149536133" y1="349.6804995536804" x2="46.53200149536133" y2="349.6804995536804" style="visibility: inherit;" fill="rgb(0, 0, 0)" stroke="rgb(204, 204, 204)" stroke-width="1px"></line><line x1="51.53200149536133" y1="322.7819995880127" x2="46.53200149536133" y2="322.7819995880127" style="visibility: inherit;" fill="rgb(0, 0, 0)" stroke="rgb(204, 204, 204)" stroke-width="1px"></line><line x1="51.53200149536133" y1="295.88349962234497" x2="46.53200149536133" y2="295.88349962234497" style="visibility: inherit;" fill="rgb(0, 0, 0)" stroke="rgb(204, 204, 204)" stroke-width="1px"></line><line x1="51.53200149536133" y1="268.9849996566772" x2="46.53200149536133" y2="268.9849996566772" style="visibility: inherit;" fill="rgb(0, 0, 0)" stroke="rgb(204, 204, 204)" stroke-width="1px"></line><line x1="51.53200149536133" y1="242.0864996910095" x2="46.53200149536133" y2="242.0864996910095" style="visibility: inherit;" fill="rgb(0, 0, 0)" stroke="rgb(204, 204, 204)" stroke-width="1px"></line><line x1="51.53200149536133" y1="215.1879997253418" x2="46.53200149536133" y2="215.1879997253418" style="visibility: inherit;" fill="rgb(0, 0, 0)" stroke="rgb(204, 204, 204)" stroke-width="1px"></line><line x1="51.53200149536133" y1="188.28949975967407" x2="46.53200149536133" y2="188.28949975967407" style="visibility: inherit;" fill="rgb(0, 0, 0)" stroke="rgb(204, 204, 204)" stroke-width="1px"></line><line x1="51.53200149536133" y1="161.39099979400632" x2="46.53200149536133" y2="161.39099979400632" style="visibility: inherit;" fill="rgb(0, 0, 0)" stroke="rgb(204, 204, 204)" stroke-width="1px"></line><line x1="51.53200149536133" y1="134.49249982833865" x2="46.53200149536133" y2="134.49249982833865" style="visibility: inherit;" fill="rgb(0, 0, 0)" stroke="rgb(204, 204, 204)" stroke-width="1px"></line><line x1="51.53200149536133" y1="107.5939998626709" x2="46.53200149536133" y2="107.5939998626709" style="visibility: inherit;" fill="rgb(0, 0, 0)" stroke="rgb(204, 204, 204)" stroke-width="1px"></line><line x1="51.53200149536133" y1="80.69549989700313" x2="46.53200149536133" y2="80.69549989700313" style="visibility: inherit;" fill="rgb(0, 0, 0)" stroke="rgb(204, 204, 204)" stroke-width="1px"></line><line x1="51.53200149536133" y1="53.79699993133543" x2="46.53200149536133" y2="53.79699993133543" style="visibility: inherit;" fill="rgb(0, 0, 0)" stroke="rgb(204, 204, 204)" stroke-width="1px"></line><line x1="51.53200149536133" y1="26.89849996566767" x2="46.53200149536133" y2="26.89849996566767" style="visibility: inherit;" fill="rgb(0, 0, 0)" stroke="rgb(204, 204, 204)" stroke-width="1px"></line><line x1="51.53200149536133" y1="0" x2="46.53200149536133" y2="0" style="visibility: inherit;" fill="rgb(0, 0, 0)" stroke="rgb(204, 204, 204)" stroke-width="1px"></line></g><g transform="translate(41.53200149536133, 0)"><text style="text-anchor: end; visibility: hidden; font-family: Roboto, sans-serif; font-size: 12px; font-weight: 200;" x="0" y="376.57899951934814" dx="0em" dy="0.3em" fill="rgb(255, 255, 255)" stroke="none" stroke-width="1px">0.25</text><text style="text-anchor: end; visibility: inherit; font-family: Roboto, sans-serif; font-size: 12px; font-weight: 200;" x="0" y="349.6804995536804" dx="0em" dy="0.3em" fill="rgb(255, 255, 255)" stroke="none" stroke-width="1px">0.3</text><text style="text-anchor: end; visibility: inherit; font-family: Roboto, sans-serif; font-size: 12px; font-weight: 200;" x="0" y="322.7819995880127" dx="0em" dy="0.3em" fill="rgb(255, 255, 255)" stroke="none" stroke-width="1px">0.35</text><text style="text-anchor: end; visibility: inherit; font-family: Roboto, sans-serif; font-size: 12px; font-weight: 200;" x="0" y="295.88349962234497" dx="0em" dy="0.3em" fill="rgb(255, 255, 255)" stroke="none" stroke-width="1px">0.4</text><text style="text-anchor: end; visibility: inherit; font-family: Roboto, sans-serif; font-size: 12px; font-weight: 200;" x="0" y="268.9849996566772" dx="0em" dy="0.3em" fill="rgb(255, 255, 255)" stroke="none" stroke-width="1px">0.45</text><text style="text-anchor: end; visibility: inherit; font-family: Roboto, sans-serif; font-size: 12px; font-weight: 200;" x="0" y="242.0864996910095" dx="0em" dy="0.3em" fill="rgb(255, 255, 255)" stroke="none" stroke-width="1px">0.5</text><text style="text-anchor: end; visibility: inherit; font-family: Roboto, sans-serif; font-size: 12px; font-weight: 200;" x="0" y="215.1879997253418" dx="0em" dy="0.3em" fill="rgb(255, 255, 255)" stroke="none" stroke-width="1px">0.55</text><text style="text-anchor: end; visibility: inherit; font-family: Roboto, sans-serif; font-size: 12px; font-weight: 200;" x="0" y="188.28949975967407" dx="0em" dy="0.3em" fill="rgb(255, 255, 255)" stroke="none" stroke-width="1px">0.6</text><text style="text-anchor: end; visibility: inherit; font-family: Roboto, sans-serif; font-size: 12px; font-weight: 200;" x="0" y="161.39099979400632" dx="0em" dy="0.3em" fill="rgb(255, 255, 255)" stroke="none" stroke-width="1px">0.65</text><text style="text-anchor: end; visibility: inherit; font-family: Roboto, sans-serif; font-size: 12px; font-weight: 200;" x="0" y="134.49249982833865" dx="0em" dy="0.3em" fill="rgb(255, 255, 255)" stroke="none" stroke-width="1px">0.7</text><text style="text-anchor: end; visibility: inherit; font-family: Roboto, sans-serif; font-size: 12px; font-weight: 200;" x="0" y="107.5939998626709" dx="0em" dy="0.3em" fill="rgb(255, 255, 255)" stroke="none" stroke-width="1px">0.75</text><text style="text-anchor: end; visibility: inherit; font-family: Roboto, sans-serif; font-size: 12px; font-weight: 200;" x="0" y="80.69549989700313" dx="0em" dy="0.3em" fill="rgb(255, 255, 255)" stroke="none" stroke-width="1px">0.8</text><text style="text-anchor: end; visibility: inherit; font-family: Roboto, sans-serif; font-size: 12px; font-weight: 200;" x="0" y="53.79699993133543" dx="0em" dy="0.3em" fill="rgb(255, 255, 255)" stroke="none" stroke-width="1px">0.85</text><text style="text-anchor: end; visibility: inherit; font-family: Roboto, sans-serif; font-size: 12px; font-weight: 200;" x="0" y="26.89849996566767" dx="0em" dy="0.3em" fill="rgb(255, 255, 255)" stroke="none" stroke-width="1px">0.9</text><text style="text-anchor: end; visibility: hidden; font-family: Roboto, sans-serif; font-size: 12px; font-weight: 200;" x="0" y="0" dx="0em" dy="0.3em" fill="rgb(255, 255, 255)" stroke="none" stroke-width="1px">0.95</text></g><line x1="51.53200149536133" y1="0" x2="51.53200149536133" y2="376.57899951934814" fill="rgb(0, 0, 0)" stroke="rgb(204, 204, 204)" stroke-width="1px"></line></g></g><g transform="translate(51, 0)" clip-path="url(#clip_0)"><clipPath id="clip_0"><rect width="1141" height="376"></rect></clipPath><g><g><g><line x1="0" y1="0" x2="0" y2="376.57899951934814" fill="rgb(0, 0, 0)" stroke="rgb(189, 189, 189)" stroke-width="1px" opacity="0.25"></line><line x1="95.14983320871988" y1="0" x2="95.14983320871988" y2="376.57899951934814" fill="rgb(0, 0, 0)" stroke="rgb(189, 189, 189)" stroke-width="1px" opacity="0.25"></line><line x1="190.29966641743977" y1="0" x2="190.29966641743977" y2="376.57899951934814" fill="rgb(0, 0, 0)" stroke="rgb(189, 189, 189)" stroke-width="1px" opacity="0.25"></line><line x1="285.44949962615965" y1="0" x2="285.44949962615965" y2="376.57899951934814" fill="rgb(0, 0, 0)" stroke="rgb(189, 189, 189)" stroke-width="1px" opacity="0.25"></line><line x1="380.59933283487953" y1="0" x2="380.59933283487953" y2="376.57899951934814" fill="rgb(0, 0, 0)" stroke="rgb(189, 189, 189)" stroke-width="1px" opacity="0.25"></line><line x1="475.7491660435994" y1="0" x2="475.7491660435994" y2="376.57899951934814" fill="rgb(0, 0, 0)" stroke="rgb(189, 189, 189)" stroke-width="1px" opacity="0.25"></line><line x1="570.8989992523193" y1="0" x2="570.8989992523193" y2="376.57899951934814" fill="rgb(0, 0, 0)" stroke="rgb(189, 189, 189)" stroke-width="1px" opacity="0.25"></line><line x1="666.0488324610392" y1="0" x2="666.0488324610392" y2="376.57899951934814" fill="rgb(0, 0, 0)" stroke="rgb(189, 189, 189)" stroke-width="1px" opacity="0.25"></line><line x1="761.1986656697591" y1="0" x2="761.1986656697591" y2="376.57899951934814" fill="rgb(0, 0, 0)" stroke="rgb(189, 189, 189)" stroke-width="1px" opacity="0.25"></line><line x1="856.348498878479" y1="0" x2="856.348498878479" y2="376.57899951934814" fill="rgb(0, 0, 0)" stroke="rgb(189, 189, 189)" stroke-width="1px" opacity="0.25"></line><line x1="951.4983320871988" y1="0" x2="951.4983320871988" y2="376.57899951934814" fill="rgb(0, 0, 0)" stroke="rgb(189, 189, 189)" stroke-width="1px" opacity="0.25"></line><line x1="1046.6481652959187" y1="0" x2="1046.6481652959187" y2="376.57899951934814" fill="rgb(0, 0, 0)" stroke="rgb(189, 189, 189)" stroke-width="1px" opacity="0.25"></line><line x1="1141.7979985046386" y1="0" x2="1141.7979985046386" y2="376.57899951934814" fill="rgb(0, 0, 0)" stroke="rgb(189, 189, 189)" stroke-width="1px" opacity="0.25"></line></g><g><line x1="0" y1="376.57899951934814" x2="1141.7979985046386" y2="376.57899951934814" fill="rgb(0, 0, 0)" stroke="rgb(189, 189, 189)" stroke-width="1px" opacity="0.25"></line><line x1="0" y1="349.6804995536804" x2="1141.7979985046386" y2="349.6804995536804" fill="rgb(0, 0, 0)" stroke="rgb(189, 189, 189)" stroke-width="1px" opacity="0.25"></line><line x1="0" y1="322.7819995880127" x2="1141.7979985046386" y2="322.7819995880127" fill="rgb(0, 0, 0)" stroke="rgb(189, 189, 189)" stroke-width="1px" opacity="0.25"></line><line x1="0" y1="295.88349962234497" x2="1141.7979985046386" y2="295.88349962234497" fill="rgb(0, 0, 0)" stroke="rgb(189, 189, 189)" stroke-width="1px" opacity="0.25"></line><line x1="0" y1="268.9849996566772" x2="1141.7979985046386" y2="268.9849996566772" fill="rgb(0, 0, 0)" stroke="rgb(189, 189, 189)" stroke-width="1px" opacity="0.25"></line><line x1="0" y1="242.0864996910095" x2="1141.7979985046386" y2="242.0864996910095" fill="rgb(0, 0, 0)" stroke="rgb(189, 189, 189)" stroke-width="1px" opacity="0.25"></line><line x1="0" y1="215.1879997253418" x2="1141.7979985046386" y2="215.1879997253418" fill="rgb(0, 0, 0)" stroke="rgb(189, 189, 189)" stroke-width="1px" opacity="0.25"></line><line x1="0" y1="188.28949975967407" x2="1141.7979985046386" y2="188.28949975967407" fill="rgb(0, 0, 0)" stroke="rgb(189, 189, 189)" stroke-width="1px" opacity="0.25"></line><line x1="0" y1="161.39099979400632" x2="1141.7979985046386" y2="161.39099979400632" fill="rgb(0, 0, 0)" stroke="rgb(189, 189, 189)" stroke-width="1px" opacity="0.25"></line><line x1="0" y1="134.49249982833865" x2="1141.7979985046386" y2="134.49249982833865" fill="rgb(0, 0, 0)" stroke="rgb(189, 189, 189)" stroke-width="1px" opacity="0.25"></line><line x1="0" y1="107.5939998626709" x2="1141.7979985046386" y2="107.5939998626709" fill="rgb(0, 0, 0)" stroke="rgb(189, 189, 189)" stroke-width="1px" opacity="0.25"></line><line x1="0" y1="80.69549989700313" x2="1141.7979985046386" y2="80.69549989700313" fill="rgb(0, 0, 0)" stroke="rgb(189, 189, 189)" stroke-width="1px" opacity="0.25"></line><line x1="0" y1="53.79699993133543" x2="1141.7979985046386" y2="53.79699993133543" fill="rgb(0, 0, 0)" stroke="rgb(189, 189, 189)" stroke-width="1px" opacity="0.25"></line><line x1="0" y1="26.89849996566767" x2="1141.7979985046386" y2="26.89849996566767" fill="rgb(0, 0, 0)" stroke="rgb(189, 189, 189)" stroke-width="1px" opacity="0.25"></line><line x1="0" y1="0" x2="1141.7979985046386" y2="0" fill="rgb(0, 0, 0)" stroke="rgb(189, 189, 189)" stroke-width="1px" opacity="0.25"></line></g></g></g><g><g><line x1="0" y1="511.07149934768677" x2="1141.7979985046386" y2="511.07149934768677" fill="rgb(0, 0, 0)" stroke="rgb(153, 153, 153)" stroke-width="1.5px"></line></g></g><g><g><line x1="95.14983320871988" y1="0" x2="95.14983320871988" y2="376.57899951934814" fill="rgb(0, 0, 0)" stroke="rgb(153, 153, 153)" stroke-width="1.5px"></line></g></g><g><g><g><g><g><path style="fill: none;" stroke="rgb(255, 112, 67)" stroke-width="2px" d="M96.10133154080708,16.71014568127224L97.05282987289429,16.914984171869442L98.00432820498148,17.39516314974079L98.95582653706869,18.124402104362336L99.90732486915587,18.912045693975728L100.85882320124307,19.886986020105603L101.81032153333028,21.05741647735211L102.76181986541746,22.19206328394108L103.71331819750468,23.103975181756198L104.66481652959186,23.74828395816449L105.61631486167907,24.268034341255117L106.56781319376627,24.65783120091786L107.51931152585347,24.853047605656094L108.47080985794067,24.919580463614096L109.42230819002788,24.93830643427759L110.37380652211506,25.01436547934275L111.32530485420227,25.067786823942733L112.27680318628946,25.085531172592816L113.22830151837667,25.038352575883575L114.17979985046387,24.958484031391265L115.13129818255105,24.792715023392734L116.08279651463826,24.50180950097559L117.03429484672544,24.2839413778332L117.98579317881266,24.191431048729612L118.93729151089985,24.012754741899816L119.88878984298705,23.74719669470556L120.84028817507425,23.44227176247213L121.79178650716146,23.156758610436473L122.74328483924864,22.928361375126556L123.69478317133586,22.75138227883053L124.64628150342304,22.47850547311374L125.59777983551025,22.3695473094984L126.54927816759745,22.26732273021274L127.50077649968465,22.203409918630687L128.45227483177186,22.07789534704381L129.40377316385903,21.93916102463629L130.35527149594623,22.079750524445036L131.30676982803345,22.199337807071167L132.25826816012062,22.246425385470513L133.20976649220785,22.310976090613917L134.16126482429502,22.324554327024583L135.11276315638224,22.29542831919796L136.06426148846944,22.259085368004527L137.01575982055664,22.151882729160377L137.96725815264384,22.079993685337715L138.91875648473103,22.002832339082566L139.87025481681823,22.16016435054591L140.82175314890543,22.352722498804315L141.77325148099263,22.599456631374867L142.72474981307982,22.840910356712985L143.67624814516702,22.964580876233786L144.62774647725425,23.068732374948073L145.57924480934142,23.002832969297856L146.53074314142862,22.996936459743612L147.48224147351584,23.09785516169639L148.433739805603,23.37802947881538L149.3852381376902,23.63925231218537L150.3367364697774,23.885448787085195L151.28823480186463,23.985966240261483L152.2397331339518,24.182786004357286L153.191231466039,24.164278787194778L154.14272979812623,24.101356591591784L155.09422813021342,24.19947125620558L156.0457264623006,24.372390663463314L156.99722479438782,24.661455307306735L157.94872312647502,24.8527481699755L158.90022145856219,24.844379500250362L159.8517197906494,24.841692667594945L160.8032181227366,24.686576555135968L161.7547164548238,24.633883778745254L162.70621478691098,25.02944484657469L163.6577131189982,25.659378774187704L164.6092114510854,26.160932435231825L165.5607097831726,26.495571896715514L166.5122081152598,26.501769228419885L167.463706447347,26.60852052645227L168.4152047794342,26.838683476948038L169.36670311152142,27.15843877851352L170.3182014436086,27.50774644323778L171.26969977569578,27.897898345976223L172.221198107783,28.24393659860615L173.17269643987018,28.364995497474403L174.12419477195738,28.44692983490091L175.07569310404457,28.614938046248273L176.0271914361318,28.79766393981577L176.97868976821897,28.993504394946015L177.93018810030617,29.199547956193555L178.8816864323934,29.37538957058048L179.8331847644806,29.43193691746223L180.78468309656776,29.38332870102664L181.736181428655,29.49045501788238L182.68767976074218,29.602982988510565L183.63917809282938,29.807868418764315L184.59067642491655,29.968585674735927L185.54217475700378,30.099043948283157L186.49367308909098,30.29283170818918L187.44517142117815,30.480379581336557L188.39666975326537,30.706522822768644L189.34816808535257,30.987452704934938L190.29966641743977,31.223771471464723L191.25116474952696,31.382788323735472L192.20266308161416,31.559016348288587L193.15416141370136,31.87792467821308L194.10565974578859,32.219054089791165L195.05715807787575,32.50542183182006L196.00865640996295,32.69484002931441L196.96015474205015,32.80675941023268L197.91165307413738,32.78553849127L198.86315140622455,32.85234123265473L199.81464973831174,32.895719211986396L200.76614807039897,32.909509800698835L201.71764640248614,32.96907614485633L202.66914473457334,33.138580435824004L203.62064306666056,33.37450923823203L204.57214139874776,33.68852766247357L205.52363973083493,34.08091384373983L206.47513806292216,34.41297817557188L207.42663639500935,34.8097403206379L208.37813472709655,35.00816463644132L209.32963305918372,35.174868574836836L210.28113139127095,35.4999010396205L211.23262972335814,35.85063063849308L212.1841280554453,36.11743956564287L213.13562638753254,36.365089418576545L214.08712471961974,36.602795797698924L215.03862305170694,37.04578367708465L215.99012138379416,37.47366114824744L216.94161971588133,37.97298245876422L217.89311804796853,38.31518389570435L218.84461638005575,38.72887927265895L219.79611471214292,39.0741908652583L220.74761304423012,39.409408991976356L221.69911137631732,39.843014820646644L222.65060970840455,40.30068903761129L223.60210804049171,40.61806895907575L224.5536063725789,41.005468931136974L225.50510470466614,41.482004408094056L226.45660303675334,41.96316617587259L227.4081013688405,42.38401161927313L228.35959970092773,42.91410359841819L229.31109803301493,43.52310840387346L230.2625963651021,44.31171189748258L231.21409469718932,44.88581622135957L232.16559302927652,45.20303595778751L233.11709136136372,45.32554283139285L234.0685896934509,45.428008524828286L235.02008802553812,45.56075033188899L235.9715863576253,45.78944873610464L236.9230846897125,46.19767264894124L237.8745830217997,46.61576075447124L238.8260813538869,46.91313426072564L239.7775796859741,46.96492524958678L240.72907801806133,47.044136587579615L241.6805763501485,47.22068217926367L242.6320746822357,47.33543396282119L243.58357301432292,47.573206143370086L244.5350713464101,47.792608631927955L245.4865696784973,47.96988575990354L246.4380680105845,48.10000616702206L247.3895663426717,48.32769608426088L248.34106467475888,48.676942849216935L249.29256300684608,49.08706709077679L250.2440613389333,49.51778767257883L251.1955596710205,49.87821399812289L252.14705800310767,50.10098550522531L253.0985563351949,50.30571840742199L254.0500546672821,50.439357812746735L255.0015529993693,50.52406910605365L255.95305133145646,50.64320824605207L256.9045496635437,50.75842908665803L257.8560479956309,50.90704557896682L258.80754632771806,51.01827654571986L259.7590446598053,51.28805393958026L260.71054299189245,51.74961746518611L261.6620413239797,52.01267762751474L262.6135396560669,52.14673394217026L263.5650379881541,52.232811260848386L264.51653632024124,52.40511375575065L265.46803465232847,52.48303523718912L266.4195329844157,52.62562552445897L267.37103131650287,53.05761547451975L268.32252964859003,53.69828641235767L269.27402798067726,54.14326713789166L270.2255263127645,54.47682357344367L271.17702464485166,54.90620018393494L272.1285229769389,55.29529474413616L273.08002130902605,55.47384249971897L274.0315196411133,55.620180859563504L274.98301797320045,55.73358497922017L275.9345163052877,55.94420353783023L276.88601463737484,55.97777708500466L277.83751296946207,56.11411379791411L278.78901130154924,56.368941321444886L279.74050963363646,56.66824895746013L280.69200796572363,57.14449081794366L281.64350629781086,57.57404333666105L282.595004629898,57.95652251075331L283.54650296198525,58.440276688925856L284.4980012940725,58.85976603019052L285.44949962615965,59.14374319113108L286.4009979582469,59.35566073716552L287.35249629033405,59.69649582815022L288.30399462242127,59.91773507933108L289.2554929545085,60.17881763010087L290.2069912865956,60.60456092643174L291.15848961868284,61.0460125187504L292.10998795077006,61.51816776156819L293.06148628285723,61.85338138219864L294.01298461494446,62.179539393933L294.9644829470317,62.39080521297386L295.91598127911885,62.52030951211506L296.867479611206,62.82130348197222L297.8189779432932,63.1424494104257L298.7704762753804,63.526555240225555L299.72197460746764,64.06402676383667L300.6734729395548,64.45923425629108L301.62497127164204,64.99138710269419L302.57646960372927,65.52145182552768L303.5279679358164,65.94474249157864L304.4794662679036,66.34766760155419L305.43096459999083,66.6881331357057L306.382462932078,67.10331373323113L307.3339612641652,67.44350096836392L308.28545959625245,67.76743570986058L309.2369579283396,68.04818104060831L310.18845626042685,68.34415918824834L311.139954592514,68.62617703210908L312.0914529246012,68.82311799208655L313.0429512566884,69.10838235747921L313.99444958877564,69.41167653324399L314.9459479208628,69.75197970437908L315.89744625295003,70.00291312167371L316.84894458503726,70.1707628954247L317.80044291712437,70.58131537655318L318.7519412492116,71.04766757351041L319.7034395812988,71.45352200117924L320.654937913386,71.65620884954592L321.6064362454732,71.83069057262281L322.5579345775604,71.94084356949372L323.5094329096476,72.02208311487512L324.46093124173484,72.55951805151167L325.41242957382195,73.16977338520807L326.3639279059092,73.73940149018028L327.3154262379964,74.07862593851112L328.2669245700836,74.47336083476463L329.2184229021708,74.86173054992265L330.169921234258,75.17854597160199L331.1214195663452,75.45717451277893L332.07291789843237,75.76355443257447L333.0244162305196,76.16399132239255L333.97591456260676,76.41813140931815L334.927412894694,76.56715238631699L335.8789112267812,76.77824717255436L336.8304095588684,76.91590892757212L337.7819078909556,77.2779761457172L338.73340622304283,77.46194530269267L339.68490455512995,77.79879908591275L340.6364028872172,78.13860065882868L341.5879012193044,78.34422596636081L342.53939955139157,78.6349831167805L343.4908978834788,78.80252408292353L344.442396215566,79.17230916913397L345.3938945476532,79.58921548319601L346.34539287974036,79.87545221048718L347.29689121182753,80.23331529722059L348.24838954391475,80.70154307692503L349.199887876002,80.92572379079303L350.15138620808915,81.01880357927796L351.1028845401764,81.13040696238944L352.0543828722636,81.35710654040382L353.0058812043507,81.50833816549266L353.95737953643794,81.73116139225809L354.90887786852517,81.99788871914643L355.86037620061234,82.2228385351585L356.81187453269956,82.53386090476175L357.7633728647868,82.72597676816133L358.71487119687396,82.92083288378059L359.6663695289612,83.32008978804608L360.6178678610484,83.95593516435441L361.5693661931355,84.4188631349314L362.52086452522275,84.6704288081305L363.47236285731,84.85474199559587L364.42386118939714,85.0782518105875L365.37535952148437,85.37466048858651L366.3268578535716,85.7575838756758L367.27835618565877,86.0689125671728L368.22985451774593,86.35268871265893L369.1813528498331,86.88308856382427L370.13285118192033,87.28351879157253L371.08434951400756,87.55793311022856L372.0358478460947,87.72342823090486L372.98734617818195,87.92442427707496L373.9388445102692,88.35177340642254L374.8903428423563,88.84244067906597L375.8418411744435,89.42062081242574L376.79333950653074,89.95939608231927L377.7448378386179,90.25703448809688L378.69633617070514,90.426369838275L379.64783450279236,90.75039025686301L380.59933283487953,91.17970161326485L381.55083116696676,91.51754198730818L382.50232949905393,91.82648566181486L383.4538278311411,92.23443781565571L384.4053261632283,92.71394147255357L385.35682449531555,92.9884455024845L386.3083228274027,93.3186187819052L387.25982115948995,93.7503520605826L388.21131949157717,94.17746660872074L389.1628178236643,94.57638838164537L390.1143161557515,95.09237701938784L391.06581448783874,95.42006797627745L392.0173128199259,95.57014908127044L392.96881115201313,95.99668038744107L393.9203094841003,96.31502430739157L394.8718078161875,96.45572628616168L395.82330614827475,96.47744016068147L396.77480448036187,96.51231151128825L397.7263028124491,96.63586960832929L398.6778011445363,96.70873467232984L399.6292994766235,96.96103344478941L400.5807978087107,97.29187695860064L401.53229614079794,97.553513644371L402.4837944728851,97.93836600113491L403.4352928049723,98.11249580882999L404.3867911370595,98.14698109667158L405.3382894691467,98.05118468207336L406.2897878012339,98.3064866509732L407.2412861333211,98.88583129583853L408.1927844654083,99.28887293767127L409.1442827974955,99.72111575156455L410.09578112958275,100.00933322574284L411.04727946166986,100.16562812329397L411.9987777937571,100.3059898357826L412.9502761258443,100.71975052993318L413.9017744579315,101.23757528185101L414.8532727900187,101.74218951556473L415.80477112210593,102.18888089405878L416.7562694541931,102.55120680125223L417.7077677862803,102.94081979048357L418.65926611836744,103.39959768576881L419.61076445045467,103.6121699364019L420.5622627825419,103.75777258241298L421.51376111462906,103.91121477448853L422.4652594467163,104.08235363914203L423.4167577788035,104.16527177713311L424.3682561108906,104.28643896537865L425.31975444297785,104.66582664895009L426.2712527750651,104.87350168522767L427.22275110715225,105.36089589515458L428.1742494392395,105.9219644436256L429.1257477713267,106.25252595187776L430.07724610341387,106.45814814086216L431.0287444355011,106.58989696564993L431.9802427675883,106.74205562493883L432.93174109967543,107.22526831860057L433.88323943176266,107.84090456637415L434.8347377638499,108.21750746805003L435.78623609593706,108.45156254395843L436.7377344280243,108.46969773165976L437.6892327601115,108.62697713997309L438.6407310921987,108.96949335923503L439.59222942428585,109.20533706392278L440.543727756373,109.42038874209739L441.49522608846024,109.65022088846663L442.44672442054747,110.03683310355058L443.39822275263464,110.44256984823456L444.34972108472186,110.5859931540417L445.3012194168091,110.63510766918944L446.2527177488962,110.84425867408639L447.20421608098343,110.91950903484587L448.15571441307065,110.86111330412048L449.1072127451578,110.82679413312505L450.05871107724505,111.05599295895007L451.0102094093323,111.49087497455506L451.96170774141945,111.75240701551934L452.9132060735067,111.91408476188711L453.86470440559384,112.02618785214953L454.816202737681,112.3102638635162L455.76770106976824,112.40771554175849L456.71919940185546,112.40228639896324L457.67069773394263,112.40986705590561L458.62219606602986,112.6601783503483L459.5736943981171,112.79932176512575L460.5251927302042,112.89033679590666L461.4766910622914,113.2325862716383L462.42818939437865,113.55874597522406L463.3796877264658,113.79744806033821L464.33118605855304,113.94966048060951L465.2826843906402,113.99356945553598L466.23418272272744,114.31069771780435L467.18568105481467,114.61755204589868L468.1371793869018,114.88444496520127L469.088677718989,115.08449586451327L470.04017605107623,115.5048006725828L470.9916743831634,115.76539754743452L471.9431727152506,116.1366587251165L472.89467104733785,116.66331951602034L473.846169379425,117.00195424112306L474.7976677115122,117.22014173519648L475.7491660435994,117.41508264342407L476.7006643756866,117.66914648594748L477.6521627077738,118.14180380760482L478.60366103986104,118.42501341447077L479.5551593719482,118.57897055425724L480.50665770403543,118.58004791603881L481.45815603612266,118.63131936141492L482.4096543682098,118.92716139256886L483.361152700297,119.125868326942L484.3126510323842,119.5309885810463L485.2641493644714,120.11786713932959L486.2156476965586,120.5345229080501L487.16714602864585,120.94392043611847L488.118644360733,121.44401801974088L489.0701426928202,121.7754238131834L490.02164102490735,122.01124523619842L490.9731393569946,122.34906879897581L491.9246376890818,122.60546625397744L492.876136021169,122.71491323395304L493.8276343532562,122.80393793993879L494.7791326853434,122.90194947582413L495.73063101743054,123.13732192552281L496.68212934951777,123.54548435889137L497.633627681605,123.79605100120581L498.58512601369216,124.2257328896861L499.5366243457794,124.51260620168078L500.4881226778666,124.71428176354691L501.4396210099538,124.8376342960504L502.391119342041,124.96255302035404L503.34261767412823,125.30142906047891L504.29411600621535,125.58662434649577L505.2456143383026,126.04715199156004L506.1971126703898,126.41264917698216L507.14861100247697,126.6613194960448L508.1001093345642,126.78029032398604L509.0516076666514,127.04917071430894L510.0031059987386,127.54566049263627L510.95460433082576,127.86075429957691L511.90610266291293,128.05927632250263L512.8576009950002,128.1762347339384L513.8090993270874,128.41771656521098L514.7605976591746,128.55030533406665L515.7120959912618,128.78573545603808L516.663594323349,129.23312937306085L517.6150926554361,129.46625518288187L518.5665909875233,129.67378889637024L519.5180893196106,129.89684002576956L520.4695876516978,130.00539025476627L521.4210859837849,130.15889293967797L522.3725843158721,130.50495339543937L523.3240826479594,130.69281166189103L524.2755809800466,130.80530857628918L525.2270793121338,130.90634724912957L526.1785776442209,130.94661526663577L527.1300759763081,130.96624842702747L528.0815743083954,131.2570880498597L529.0330726404825,131.71047198329651L529.9845709725697,131.9726518184688L530.9360693046569,132.13462845793134L531.8875676367442,132.25199006094692L532.8390659688314,132.4611224220829L533.7905643009186,132.56546425410525L534.7420626330057,132.62878762075852L535.693560965093,132.6998091167806L536.6450592971801,132.97516631732324L537.5965576292673,133.25850997910047L538.5480559613545,133.5685655007389L539.4995542934417,133.74739048691458L540.451052625529,133.841795143315L541.4025509576162,134.00401042461326L542.3540492897033,134.29214220831437L543.3055476217905,134.45918535558602L544.2570459538778,134.60522644564983L545.2085442859649,134.75345491492797L546.1600426180521,134.75514815495805L547.1115409501393,134.7872163395466L548.0630392822266,135.19260295646043L549.0145376143138,135.65526562949185L549.9660359464009,135.87567118841034L550.9175342784881,135.97540009590261L551.8690326105753,136.06190311910348L552.8205309426626,136.2380652001231L553.7720292747497,136.57485217131165L554.7235276068369,137.04102872642753L555.6750259389241,137.5947280354024L556.6265242710112,137.98756426223142L557.5780226030985,138.4278696090601L558.5295209351857,138.87244055420118L559.4810192672729,139.05246515412477L560.4325175993602,139.47434995910177L561.3840159314473,139.97688638438171L562.3355142635345,140.55474881083887L563.2870125956217,141.14880679011728L564.2385109277088,141.73735739660393L565.190009259796,142.1333914138244L566.1415075918833,142.4013842759001L567.0930059239705,142.64505009902155L568.0445042560577,142.89488532350552L568.996002588145,143.0542393707529L569.9475009202321,143.14813308772733L570.8989992523193,143.26132788150105L571.8504975844065,143.58637167503767L572.8019959164938,143.84207872362512L573.7534942485809,144.1982852425007L574.7049925806681,144.61255968400366L575.6564909127553,144.83005928213072L576.6079892448425,144.9580835835802L577.5594875769298,145.15560557296246L578.510985909017,145.58106266130153L579.462484241104,145.96082805308123L580.4139825731912,146.43888805510832L581.3654809052784,146.71675853953042L582.3169792373657,146.906747564754L583.2684775694529,147.28628188717062L584.2199759015401,148.01042789121132L585.1714742336272,148.73687838174232L586.1229725657145,149.17471108531635L587.0744708978017,149.6699882697345L588.0259692298889,150.26704406273913L588.9774675619761,150.57367771870923L589.9289658940634,151.00372864147133L590.8804642261505,151.58591585598683L591.8319625582377,151.96923045225188L592.7834608903248,152.37356580483726L593.734959222412,152.86269948892266L594.6864575544993,153.15918103117633L595.6379558865864,153.32020349789562L596.5894542186736,153.5101917451115L597.5409525507608,153.8937786812771L598.4924508828481,154.35028769617261L599.4439492149353,154.63889193521888L600.3954475470225,154.9330184112449L601.3469458791096,155.41792603126711L602.2984442111969,155.92513323370554L603.2499425432841,156.60420076572117L604.2014408753713,157.3055024512712L605.1529392074585,157.88312228858047L606.1044375395458,158.46844115750014L607.0559358716328,159.17140395753276L608.00743420372,159.82395070502207L608.9589325358072,160.25220017637946L609.9104308678944,160.6176082426156L610.8619291999817,160.96272945119622L611.8134275320689,161.18523210009766L612.764925864156,161.4274357707416L613.7164241962432,161.8272042137052L614.6679225283305,162.32818114628796L615.6194208604177,163.04277152770223L616.5709191925049,163.72317588459424L617.5224175245921,164.16126507609724L618.4739158566792,164.5036154051485L619.4254141887665,165.05585899261087L620.3769125208537,165.50256402641463L621.3284108529408,165.93673769698606L622.279909185028,166.5317877856569L623.2314075171151,167.20589443495322L624.1829058492024,167.5306948697258L625.1344041812896,167.70828540721513L626.0859025133768,167.98472280544442L627.037400845464,168.45737522464037L627.9888991775513,168.99940186626728L628.9403975096384,169.4716702833544L629.8918958417256,169.9619564873133L630.8433941738128,170.43012849699934L631.7948925059001,170.78096016856495L632.7463908379873,171.09419706781563L633.6978891700745,171.42486920863342L634.6493875021615,171.79271947791415L635.6008858342487,172.10834355118087L636.552384166336,172.4575966315354L637.5038824984232,172.84087941676896L638.4553808305104,173.42059402631304L639.4068791625976,174.00888846994764L640.3583774946848,174.3080976877717L641.309875826772,174.51508412183725L642.2613741588592,174.8624519368104L643.2128724909464,175.28141476910892L644.1643708230337,175.82067662363238L645.1158691551208,176.40025760005054L646.067367487208,176.94958281242177L647.0188658192952,177.47281514591336L647.9703641513825,178.33291997681076L648.9218624834697,179.1978299794533L649.8733608155569,179.96959329367198L650.8248591476439,180.4578162950075L651.7763574797311,180.97183537904448L652.7278558118184,181.65092413326147L653.6793541439056,182.2945078066519L654.6308524759928,182.7227407869405L655.58235080808,183.48266017609333L656.5338491401671,184.32893885834218L657.4853474722544,185.1096861734584L658.4368458043416,185.60102933717437L659.3883441364288,186.16522400397145L660.339842468516,186.85034332240417L661.2913408006033,187.5863026679663L662.2428391326904,188.3117093498944L663.1943374647776,188.8490114665355L664.1458357968647,189.56755570822628L665.097334128952,190.50026379795355L666.0488324610392,191.35372416572187L667.0003307931263,192.01426370096505L667.9518291252135,192.74689049842573L668.9033274573007,193.55311645255196L669.854825789388,194.2740085422306L670.8063241214752,194.90169449421205L671.7578224535624,195.3684742815144L672.7093207856495,195.8611877947128L673.6608191177368,196.36217625941592L674.612317449824,197.06898805410228L675.5638157819112,197.99300209527422L676.5153141139984,198.96677609523252L677.4668124460857,199.78863310335612L678.4183107781727,200.64787130950438L679.3698091102599,201.57508408587836L680.3213074423471,202.58104716906706L681.2728057744343,203.49498068402949L682.2243041065216,204.12456914473466L683.1758024386088,204.7832545735806L684.1273007706959,205.50289184203635L685.0787991027831,206.16414782394685L686.0302974348704,206.65295508123629L686.9817957669576,207.25290115382546L687.9332940990448,207.90043229741627L688.884792431132,208.55704430550563L689.8362907632192,209.1588216721615L690.7877890953064,209.8382216562685L691.7392874273936,210.6694085645844L692.6907857594807,211.46077621271172L693.642284091568,212.178037714956L694.5937824236551,212.7557292249077L695.5452807557423,213.4790112720739L696.4967790878295,214.25773604531133L697.4482774199167,215.1793135435902L698.399775752004,216.12121468745636L699.3512740840912,217.03498443240738L700.3027724161783,218.01582284504522L701.2542707482655,219.0357096212967L702.2057690803528,220.03164541709302L703.15726741244,221.03250123585863L704.1087657445272,221.94561497791676L705.0602640766144,222.7196861618965L706.0117624087014,223.48510858200225L706.9632607407887,224.24818916113463L707.9147590728759,224.93798658687777L708.8662574049631,225.61858596040022L709.8177557370503,226.38355254220946L710.7692540691376,227.19403461968585L711.7207524012247,228.0158573702294L712.6722507333119,228.92253197767891L713.6237490653991,229.9168006435228L714.5752473974864,230.90492020739754L715.5267457295736,231.77204184571335L716.4782440616607,232.35659976457197L717.4297423937479,232.88273285946485L718.3812407258351,233.49891785655996L719.3327390579224,234.02794313822307L720.2842373900096,234.44104179117625L721.2357357220968,234.89463329965642L722.1872340541838,235.4747453695927L723.138732386271,236.09252203522908L724.0902307183583,236.6693692684691L725.0417290504455,237.36131055451062L725.9932273825327,238.08070006553714L726.94472571462,238.91603855197803L727.8962240467071,239.7488631555939L728.8477223787943,240.4640638021357L729.7992207108815,241.15363950734485L730.7507190429687,241.81432784154163L731.702217375056,242.4521364197783L732.6537157071432,243.13848195313355L733.6052140392303,243.82759180975717L734.5567123713175,244.55854475836216L735.5082107034046,245.17543283257734L736.4597090354919,245.81401171965913L737.4112073675791,246.41514680680936L738.3627056996662,246.9713697565044L739.3142040317534,247.4940271023161L740.2657023638407,248.00758203458375L741.2172006959279,248.6155146928682L742.1686990280151,249.31428788668907L743.1201973601023,250.01143793188697L744.0716956921895,250.76890410508008L745.0231940242767,251.42986004555257L745.9746923563639,252.02205887756892L746.9261906884511,252.57403595395633L747.8776890205384,253.19329233489535L748.8291873526256,253.92081822404236L749.7806856847126,254.71437039306986L750.7321840167998,255.4362068768442L751.683682348887,256.1247811040287L752.6351806809743,256.9112900339316L753.5866790130615,257.7323695641867L754.5381773451487,258.4568252723564L755.4896756772358,259.1811785210024L756.441174009323,259.8991533883244L757.3926723414103,260.5908361300494L758.3441706734975,261.2953139664579L759.2956690055847,261.9354817881349L760.247167337672,262.507653114551L761.1986656697591,263.11904923233544L762.1501640018463,263.76710143192315L763.1016623339335,264.35943972194076L764.0531606660206,264.7892346807959L765.0046589981079,265.23225150184004L765.956157330195,265.7418428461819L766.9076556622822,266.22890887653944L767.8591539943694,266.7768773557594L768.8106523264566,267.4117878740292L769.7621506585439,268.1161982308181L770.7136489906311,268.8825738934864L771.6651473227182,269.5177142643372L772.6166456548054,270.11831256005854L773.5681439868927,270.71739926471906L774.5196423189799,271.29466588865876L775.4711406510671,271.8410633450289L776.4226389831543,272.4054170258397L777.3741373152413,273.0347159151066L778.3256356473286,273.674026773277L779.2771339794158,274.3326519997336L780.228632311503,274.98018270488654L781.1801306435902,275.5029594213164L782.1316289756775,275.9049787593816L783.0831273077646,276.3238204653437L784.0346256398518,276.88131263757805L784.986123971939,277.47091473101636L785.9376223040263,278.0008118374033L786.8891206361135,278.5757744088737L787.8406189682006,279.2136575658773L788.7921173002878,279.92639928319323L789.743615632375,280.67473789928454L790.6951139644623,281.2756995241888L791.6466122965495,281.9140536053003L792.5981106286367,282.55536656893156L793.5496089607237,283.1794400142243L794.501107292811,283.87536647866517L795.4526056248982,284.57509243846573L796.4041039569854,285.30933675994896L797.3556022890726,286.0166491626304L798.3071006211599,286.5997095774311L799.258598953247,287.13548089670815L800.2100972853342,287.7036300752599L801.1615956174214,288.2811117466056L802.1130939495087,288.8483974430522L803.0645922815959,289.3626472992902L804.0160906136831,289.8950978481089L804.9675889457702,290.46995073088993L805.9190872778574,291.0119883941926L806.8705856099446,291.59578085742845L807.8220839420318,292.2276043455984L808.773582274119,292.78160297321307L809.7250806062061,293.3006490745161L810.6765789382933,293.73202098465566L811.6280772703806,294.2638434758127L812.5795756024678,294.81448843643795L813.531073934555,295.2461703611425L814.4825722666423,295.65779852073524L815.4340705987294,296.0822580182646L816.3855689308166,296.4997431408555L817.3370672629038,296.9664840186308L818.288565594991,297.41923338597417L819.2400639270783,297.93889690550907L820.1915622591655,298.42307278969884L821.1430605912525,298.9015527570904L822.0945589233397,299.41103429359794L823.046057255427,299.9727278399001L823.9975555875142,300.59165111162963L824.9490539196014,301.17518255902803L825.9005522516886,301.7305142829019L826.8520505837757,302.33946388311836L827.803548915863,302.9627044803691L828.7550472479502,303.5323446505759L829.7065455800374,304.09752916580885L830.6580439121246,304.6299115341954L831.6095422442119,305.1489744117987L832.561040576299,305.6498936542416L833.5125389083862,306.1090861073886L834.4640372404734,306.5400551751934L835.4155355725605,306.99053587126474L836.3670339046478,307.3924660365718L837.3185322367349,307.77784838982257L838.2700305688221,308.19156262321724L839.2215289009093,308.6475820857498L840.1730272329966,309.0646227926702L841.1245255650838,309.46533065857926L842.076023897171,309.84593296473975L843.0275222292581,310.2804627560898L843.9790205613454,310.7723088320896L844.9305188934326,311.2976660838857L845.8820172255198,311.8005213905296L846.833515557607,312.29301795013174L847.7850138896943,312.7581680899516L848.7365122217813,313.2360066223194L849.6880105538685,313.7262102989029L850.6395088859557,314.17406738939576L851.5910072180429,314.5853192518946L852.5425055501302,314.9620254711949L853.4940038822174,315.3342551054033L854.4455022143045,315.67225273912123L855.3970005463917,315.99997854907383L856.348498878479,316.3407677449883L857.2999972105662,316.7005537702065L858.2514955426534,317.0571993904516L859.2029938747405,317.44679032544485L860.1544922068277,317.86583864662316L861.105990538915,318.2348582802018L862.0574888710022,318.5477465492993L863.0089872030894,318.876888412984L863.9604855351766,319.2948303304206L864.9119838672636,319.76305094830593L865.8634821993509,320.15804675373084L866.8149805314381,320.5480095492714L867.7664788635253,320.95826416516684L868.7179771956125,321.33505182533213L869.6694755276998,321.67277011661747L870.6209738597869,321.97738224164726L871.5724721918741,322.2576350823223L872.5239705239613,322.5419729582299L873.4754688560486,322.85565840565965L874.4269671881358,323.17987874434033L875.378465520223,323.5553245589683L876.3299638523101,323.9458769292451L877.2814621843974,324.2909241467869L878.2329605164845,324.60394181640913L879.1844588485717,324.883690650487L880.1359571806589,325.1895050173098L881.087455512746,325.49785032300167L882.0389538448333,325.78033665897186L882.9904521769205,326.0369248007415L883.9419505090077,326.29995814013273L884.8934488410949,326.5723482135304L885.8449471731822,326.8426822571702L886.7964455052693,327.1094419006737L887.7479438373565,327.3468974165249L888.6994421694437,327.5653659864157L889.650940501531,327.778900382587L890.6024388336182,327.9920651677919L891.5539371657054,328.22969221656064L892.5054354977924,328.49967754607263L893.4569338298796,328.75444067936274L894.4084321619669,329.00446988298904L895.3599304940541,329.2514663357528L896.3114288261413,329.46782907007605L897.2629271582285,329.696799682884L898.2144254903156,329.92116936801983L899.1659238224029,330.1134000756409L900.1174221544901,330.27997918632633L901.0689204865773,330.4486430421868L902.0204188186646,330.6465316966947L902.9719171507518,330.89447607135185L903.9234154828389,331.15933908421886L904.8749138149261,331.4001009014724L905.8264121470133,331.60412929761947L906.7779104791005,331.8155217144228L907.7294088111877,332.07536490292523L908.6809071432748,332.3170139916623L909.632405475362,332.5517868748894L910.5839038074492,332.78195946525204L911.5354021395365,332.9953849041249L912.4869004716237,333.2393634017632L913.4383988037109,333.56956283393396L914.389897135798,333.9010942570918L915.3413954678853,334.20427732560756L916.2928937999725,334.4477914258909L917.2443921320597,334.6313844680796L918.1958904641469,334.83324124091814L919.1473887962342,335.03589789835394L920.0988871283212,335.223604562795L921.0503854604084,335.35942475190643L922.0018837924956,335.47057746277903L922.9533821245828,335.56548032562426L923.9048804566701,335.69226713875753L924.8563787887573,335.81303854856566L925.8078771208444,335.92465979612825L926.7593754529316,336.04809349592205L927.7108737850189,336.1850919002177L928.6623721171061,336.31837771445646L929.6138704491933,336.46361534349666L930.5653687812804,336.63810437209173L931.5168671133677,336.7985019944523L932.4683654454549,336.9376313949928L933.4198637775421,337.07506887673804L934.3713621096293,337.2191997559805L935.3228604417166,337.35603396154323L936.2743587738036,337.4928638985589L937.2258571058908,337.63788721898334L938.177355437978,337.7558893207871L939.1288537700652,337.84549379734904L940.0803521021525,337.9582121312755L941.0318504342397,338.05955039648865L941.9833487663268,338.13091573484405L942.934847098414,338.1967772138526L943.8863454305013,338.260593345273L944.8378437625885,338.321309642315L945.7893420946757,338.3783126522111L946.7408404267629,338.4562325754492L947.69233875885,338.57490746991215L948.6438370909373,338.7185932869962L949.5953354230244,338.84123761051416L950.5468337551116,338.9238987441555L951.4983320871988,338.987411855988L952.449830419286,339.085116681291L953.4013287513732,339.2043049130998L954.3528270834604,339.3145465760192L955.3043254155476,339.4123658852492L956.2558237476348,339.4932403910955L957.2073220797221,339.56447388928734L958.1588204118092,339.62706895243343L959.1103187438964,339.68204397573817L960.0618170759836,339.7264250722269L961.0133154080709,339.77387065967235L961.9648137401581,339.8233280954497L962.9163120722453,339.87237012538424L963.8678104043323,339.9190401750042L964.8193087364195,339.9575083874716L965.7708070685068,340.00251571117474L966.722305400594,340.0645869479079L967.6738037326812,340.13131072049356L968.6253020647684,340.19378442843896L969.5768003968556,340.2369250092953L970.5282987289428,340.2634121894104L971.47979706103,340.28557651137413L972.4312953931172,340.3053972294306L973.3827937252045,340.33559906687924L974.3342920572917,340.3920256284412L975.2857903893788,340.4527203978418L976.237288721466,340.49235663675734L977.1887870535533,340.5156702236502L978.1402853856404,340.5514693361702L979.0917837177276,340.60170515368594L980.0432820498147,340.6438006665876L980.9947803819019,340.681602002118L981.9462787139892,340.71848141157807L982.8977770460764,340.7434949532179L983.8492753781636,340.7646788955644L984.8007737102508,340.7828019191799L985.752272042338,340.79366290714495L986.7037703744252,340.80421334117113L987.6552687065124,340.8283143076217L988.6067670385996,340.8641882355435L989.5582653706869,340.89829509869867L990.5097637027741,340.92431937614873L991.4612620348611,340.94806575613455L992.4127603669483,340.9682136380965L993.3642586990355,340.98830591874656L994.3157570311228,341.0096153935272L995.26725536321,341.0241262028717L996.2187536952972,341.0346475963845L997.1702520273843,341.0514650938005L998.1217503594715,341.0696553402551L999.0732486915588,341.0894067428792L1000.024747023646,341.11019744883936L1000.9762453557332,341.12594255450773L1001.9277436878203,341.1395388949945L1002.8792420199076,341.15214097907074L1003.8307403519948,341.1654098904227L1004.782238684082,341.18184935826537L1005.7337370161692,341.19843397001557L1006.6852353482565,341.21397696213324L1007.6367336803435,341.23040847457696L1008.5882320124307,341.2428582753085L1009.5397303445179,341.2546121079781L1010.4912286766051,341.26336387964744L1011.4427270086924,341.27101344285006L1012.3942253407796,341.2812595368607L1013.3457236728667,341.2902225451073L1014.2972220049539,341.2959081789581L1015.2487203370412,341.30074968104617L1016.2002186691284,341.30714972296624L1017.1517170012156,341.3144977149899L1018.1032153333028,341.32072783121237L1019.05471366539,341.32652450673334L1020.0062119974772,341.3321957929784L1020.9577103295643,341.3369966209923L1021.9092086616515,341.3412238692505L1022.8607069937387,341.34567773574577L1023.8122053258259,341.34911962789994L1024.763703657913,341.3516721589552L1025.7152019900004,341.3542746656461L1026.6667003220875,341.3573624879703L1027.6181986541749,341.3607799782875L1028.569696986262,341.3638501557183L1029.521195318349,341.36606422210104L1030.4726936504362,341.3673862488285L1031.4241919825236,341.36815381245646L1032.3756903146107,341.3688452223103L1033.327188646698,341.36948452679763L1034.2786869787851,341.37007974186065L1035.2301853108722,341.3705330674306L1036.1816836429596,341.37081788897683L1037.1331819750467,341.37100802121097L1038.084680307134,341.3711285136537L1039.0361786392211,341.3712008091193L1039.9876769713085,341.3712441863986L1040.9391753033956,341.3712702127662L1041.8906736354827,341.3712858285868L1042.8421719675698,341.3712951980791L1043.7936702996572,341.3713008197745L1044.7451686317443,341.3713041927918L1045.6966669638316,341.37130621660214L1046.6481652959187,341.37130743088835" fill="none"></path></g></g></g></g><g opacity="0.2"><g><g><g><path style="fill: none;" stroke="rgb(255, 112, 67)" stroke-width="2px" d="M96.10133154080708,16.71014568127224L97.05282987289429,17.03788726622777L98.00432820498148,17.85613496849725L98.95582653706869,18.981987114997064L99.90732486915587,19.940393164575056L100.85882320124307,21.23567946966067L101.81032153333028,22.73115075810187L102.76181986541746,23.846389220557015L103.71331819750468,24.448868101266356L104.66481652959186,24.705007400808977L105.61631486167907,25.042945818169972L106.56781319376627,25.24040523311529L107.51931152585347,25.145234797331305L108.47080985794067,25.019249405756096L109.42230819002788,24.96637337859713L110.37380652211506,25.12840040420914L111.32530485420227,25.14789623472017L112.27680318628946,25.11214319027974L113.22830151837667,24.967591868004064L114.17979985046387,24.838688514954345L115.13129818255105,24.54407060256106L116.08279651463826,24.06546078972015L117.03429484672544,23.957143494545555L117.98579317881266,24.0526666509473L118.93729151089985,23.74474155160985L119.88878984298705,23.34886075639792L120.84028817507425,22.98488514434131L121.79178650716146,22.728489320713003L122.74328483924864,22.585765732547745L123.69478317133586,22.485913732200277L124.64628150342304,22.06919035502754L125.59777983551025,22.2061100857545L126.54927816759745,22.113985873487866L127.50077649968465,22.107540705835362L128.45227483177186,21.88962349505776L129.40377316385903,21.731059544602306L130.35527149594623,22.29063477198314L131.30676982803345,22.378718729900452L132.25826816012062,22.31705675280724L133.20976649220785,22.407802148113422L134.16126482429502,22.344921681613275L135.11276315638224,22.25173930749323L136.06426148846944,22.204570941240483L137.01575982055664,21.991078770940685L137.96725815264384,21.972160119622416L138.91875648473103,21.88709031971173L139.87025481681823,22.396162367726063L140.82175314890543,22.64155972118122L141.77325148099263,22.969557830222435L142.72474981307982,23.20309094471527L143.67624814516702,23.15008665551351L144.62774647725425,23.22495962301877L145.57924480934142,22.903983860822784L146.53074314142862,22.98809169541218L147.48224147351584,23.24923321462537L148.433739805603,23.798290954493698L149.3852381376902,24.03108656224025L150.3367364697774,24.25474349943475L151.28823480186463,24.136742420026017L152.2397331339518,24.478015650500723L153.191231466039,24.136517961451055L154.14272979812623,24.00697329818717L155.09422813021342,24.34664325312642L156.0457264623006,24.63176977434985L156.99722479438782,25.095052273071886L157.94872312647502,25.139687463978692L158.90022145856219,24.831826495662636L159.8517197906494,24.837662418611654L160.8032181227366,24.453902386447645L161.7547164548238,24.554844614159247L162.70621478691098,25.622786448318806L163.6577131189982,26.604279665607226L164.6092114510854,26.91326292679809L165.5607097831726,26.99753108894105L166.5122081152598,26.51106522597646L167.463706447347,26.768647473500977L168.4152047794342,27.183927902691817L169.36670311152142,27.638071730861803L170.3182014436086,28.03170794032415L171.26969977569578,28.48312620008391L172.221198107783,28.762993977551087L173.17269643987018,28.54658384577678L174.12419477195738,28.56983134104073L175.07569310404457,28.866950363269318L176.0271914361318,29.071752780166992L176.97868976821897,29.287265077641408L177.93018810030617,29.508613298064887L178.8816864323934,29.63915199216078L179.8331847644806,29.516757937784966L180.78468309656776,29.31041637637324L181.736181428655,29.6511444931659L182.68767976074218,29.771774944452737L183.63917809282938,30.115196564144945L184.59067642491655,30.209661558693362L185.54217475700378,30.294731358604047L186.49367308909098,30.58351334804827L187.44517142117815,30.761701391057603L188.39666975326537,31.04573768491694L189.34816808535257,31.40884752818438L190.29966641743977,31.578249621259463L191.25116474952696,31.62131360214149L192.20266308161416,31.823358385118215L193.15416141370136,32.35628717309994L194.10565974578859,32.73074820715838L195.05715807787575,32.93497344486329L196.00865640996295,32.978967325555885L196.96015474205015,32.9746384816102L197.91165307413738,32.75370711282593L198.86315140622455,32.95254534473178L199.81464973831174,32.960786180983945L200.76614807039897,32.93019568376768L201.71764640248614,33.058425661092514L202.66914473457334,33.39283687227551L203.62064306666056,33.72840244184404L204.57214139874776,34.1595552988358L205.52363973083493,34.66949311563926L206.47513806292216,34.911074673320016L207.42663639500935,35.404883538236916L208.37813472709655,35.305801110146454L209.32963305918372,35.424924482429994L210.28113139127095,35.98744973679606L211.23262972335814,36.376725036801965L212.1841280554453,36.51765295636752L213.13562638753254,36.73656419797713L214.08712471961974,36.9593553663825L215.03862305170694,37.710265496163274L215.99012138379416,38.1154773549915L216.94161971588133,38.721964424539436L217.89311804796853,38.828486051114375L218.84461638005575,39.34942233809098L219.79611471214292,39.59215825415727L220.74761304423012,39.912236182053405L221.69911137631732,40.49342356365205L222.65060970840455,40.987200363058236L223.60210804049171,41.094138841272375L224.5536063725789,41.58656888922882L225.50510470466614,42.19680762352968L226.45660303675334,42.684908827540404L227.4081013688405,43.01527978437408L228.35959970092773,43.709241567135884L229.31109803301493,44.43661561205634L230.2625963651021,45.494617137896164L231.21409469718932,45.74697270717511L232.16559302927652,45.67886556242943L233.11709136136372,45.50930314180083L234.0685896934509,45.58170706498151L235.02008802553812,45.75986304248008L235.9715863576253,46.13249634242809L236.9230846897125,46.81000851819622L237.8745830217997,47.24289291276623L238.8260813538869,47.35919452010739L239.7775796859741,47.042611732878484L240.72907801806133,47.16295359456896L241.6805763501485,47.48550056678968L242.6320746822357,47.50756163815742L243.58357301432292,47.92986441419349L244.5350713464101,48.121712364764754L245.4865696784973,48.235801451867005L246.4380680105845,48.295186777699875L247.3895663426717,48.669230960119066L248.34106467475888,49.200812996651024L249.29256300684608,49.70225345311664L250.2440613389333,50.16386854528182L251.1955596710205,50.41885348643891L252.14705800310767,50.43514276587903L253.0985563351949,50.61281776071699L254.0500546672821,50.639816920733864L255.0015529993693,50.651136046014095L255.95305133145646,50.82191695604967L256.9045496635437,50.931260347566955L257.8560479956309,51.129970317429965L258.80754632771806,51.185122995849234L259.7590446598053,51.69272003037099L260.71054299189245,52.44196275359491L261.6620413239797,52.40726787100788L262.6135396560669,52.34781841415357L263.5650379881541,52.36192723886551L264.51653632024124,52.66356749810402L265.46803465232847,52.59991745934688L266.4195329844157,52.83951095536369L267.37103131650287,53.70560039961081L268.32252964859003,54.65929281911459L269.27402798067726,54.81073822619269L270.2255263127645,54.97715822677183L271.17702464485166,55.55026509967183L272.1285229769389,55.87893658443793L273.08002130902605,55.741664133093174L274.0315196411133,55.839688399330264L274.98301797320045,55.90369115870518L275.9345163052877,56.260131375745196L276.88601463737484,56.028137405766415L277.83751296946207,56.31861886727822L278.78901130154924,56.751182606741146L279.74050963363646,57.11721041148314L280.69200796572363,57.85885360866902L281.64350629781086,58.21837211473711L282.595004629898,58.53024127189176L283.54650296198525,59.16590795618479L284.4980012940725,59.48900004208756L285.44949962615965,59.569708932541836L286.4009979582469,59.67353705621723L287.35249629033405,60.20774846462733L288.30399462242127,60.24959395610242L289.2554929545085,60.57044145625557L290.2069912865956,61.243175870928084L291.15848961868284,61.70818990722838L292.10998795077006,62.22640062579476L293.06148628285723,62.35620181314433L294.01298461494446,62.668776411534594L294.9644829470317,62.70770394153518L295.91598127911885,62.71456596082689L296.867479611206,63.27279443675795L297.8189779432932,63.624168303105954L298.7704762753804,64.10271398492542L299.72197460746764,64.87023404925344L300.6734729395548,65.05204549497284L301.62497127164204,65.78961637229872L302.57646960372927,66.31654890977786L303.5279679358164,66.57967849065504L304.4794662679036,66.95205526651738L305.43096459999083,67.19883143693299L306.382462932078,67.72608462951926L307.3339612641652,67.95378182106307L308.28545959625245,68.25333782210554L309.2369579283396,68.46929903672992L310.18845626042685,68.7881264097084L311.139954592514,69.04920379790019L312.0914529246012,69.1185294320528L313.0429512566884,69.53627890556822L313.99444958877564,69.86661779689118L314.9459479208628,70.26243446108171L315.89744625295003,70.37931324761563L316.84894458503726,70.42253755605122L317.80044291712437,71.19714409824587L318.7519412492116,71.74719586894616L319.7034395812988,72.06230364268241L320.654937913386,71.960239122096L321.6064362454732,72.09241315723807L322.5579345775604,72.10607306480004L323.5094329096476,72.14394243294721L324.46093124173484,73.36567045646662L325.41242957382195,74.08515638575273L326.3639279059092,74.59384364763854L327.3154262379964,74.58746261100747L328.2669245700836,75.0654631791449L329.2184229021708,75.44428512265969L330.169921234258,75.6537691041209L331.1214195663452,75.87511732454432L332.07291789843237,76.22312431226794L333.0244162305196,76.76464665711963L333.97591456260676,76.79934153970666L334.927412894694,76.79068385181525L335.8789112267812,77.09488935191051L336.8304095588684,77.12240156009875L337.7819078909556,77.82107697293472L338.73340622304283,77.73789903815585L339.68490455512995,78.30407976074275L340.6364028872172,78.64830301820264L341.5879012193044,78.65266392765909L342.53939955139157,79.07111884241009L343.4908978834788,79.053835532138L344.442396215566,79.72698679844972L345.3938945476532,80.21457495428906L346.34539287974036,80.30480730142388L347.29689121182753,80.77010992732058L348.24838954391475,81.4038847464818L349.199887876002,81.26199486159499L350.15138620808915,81.15842326200523L351.1028845401764,81.29781203705677L352.0543828722636,81.6971559074253L353.0058812043507,81.73518560312604L353.95737953643794,82.0653962324062L354.90887786852517,82.39797970947882L355.86037620061234,82.56026325917651L356.81187453269956,83.00039445916671L357.7633728647868,83.01415056326081L358.71487119687396,83.21311705720946L359.6663695289612,83.91897514444427L360.6178678610484,84.90970322881682L361.5693661931355,85.11325509079688L362.52086452522275,85.04777731792932L363.47236285731,85.13121177679386L364.42386118939714,85.4135165330749L365.37535952148437,85.81927350558522L366.3268578535716,86.33196895630961L367.27835618565877,86.53590560441816L368.22985451774593,86.77835293088809L369.1813528498331,87.67868834057231L370.13285118192033,87.88416413319486L371.08434951400756,87.96955458821263L372.0358478460947,87.9716709119194L372.98734617818195,88.22591834633022L373.9388445102692,88.99279710044402L374.8903428423563,89.57844158803115L375.8418411744435,90.28789101246535L376.79333950653074,90.76755898715963L377.7448378386179,90.70349209676328L378.69633617070514,90.68037286354217L379.64783450279236,91.236420884745L380.59933283487953,91.82366864786763L381.55083116696676,92.02430254837314L382.50232949905393,92.28990117357486L383.4538278311411,92.84636604641695L384.4053261632283,93.43319695790032L385.35682449531555,93.40020154738087L386.3083228274027,93.81387870103626L387.25982115948995,94.3979519785987L388.21131949157717,94.81813843092799L389.1628178236643,95.17477104103224L390.1143161557515,95.86635997600159L391.06581448783874,95.91160441161185L392.0173128199259,95.79527073875997L392.96881115201313,96.63647734669699L393.9203094841003,96.79254018731714L394.8718078161875,96.66677925431689L395.82330614827475,96.51001097246115L396.77480448036187,96.56461853719836L397.7263028124491,96.8212067538909L398.6778011445363,96.81803226833071L399.6292994766235,97.33948160347869L400.5807978087107,97.78814222931746L401.53229614079794,97.94596867302663L402.4837944728851,98.51564453628076L403.4352928049723,98.37369052037252L404.3867911370595,98.1987090284341L405.3382894691467,97.90749006017597L406.2897878012339,98.68943960432293L407.2412861333211,99.7548482631365L408.1927844654083,99.89343540042032L409.1442827974955,100.36947997240452L410.09578112958275,100.44165943701019L411.04727946166986,100.40007046962079L411.9987777937571,100.51653240451546L412.9502761258443,101.34039157115895L413.9017744579315,102.01431240972772L414.8532727900187,102.49911086613541L415.80477112210593,102.85891796179986L416.7562694541931,103.09469566204233L417.7077677862803,103.5252392743306L418.65926611836744,104.08776452869661L419.61076445045467,103.93102831235159L420.5622627825419,103.97617655142972L421.51376111462906,104.14137806260192L422.4652594467163,104.33906193612219L423.4167577788035,104.28964898411982L424.3682561108906,104.46818974774692L425.31975444297785,105.23490817430717L426.2712527750651,105.18501423964415L427.22275110715225,106.09198721004506L428.1742494392395,106.76356726633205L429.1257477713267,106.74836821425606L430.07724610341387,106.76658142433868L431.0287444355011,106.78752020283162L431.9802427675883,106.97029361387226L432.93174109967543,107.9500873590931L433.88323943176266,108.76435893803462L434.8347377638499,108.78241182056377L435.78623609593706,108.80264515782105L436.7377344280243,108.49690051321181L437.6892327601115,108.86289625244304L438.6407310921987,109.48326768812797L439.59222942428585,109.55910262095448L440.543727756373,109.74296625935926L441.49522608846024,109.9949691080204L442.44672442054747,110.61675142617649L443.39822275263464,111.05117496526051L444.34972108472186,110.8011281127526L445.3012194168091,110.708779441911L446.2527177488962,111.15798518143181L447.20421608098343,111.03238457598513L448.15571441307065,110.77351970803224L449.1072127451578,110.77531537663194L450.05871107724505,111.39979119768758L451.0102094093323,112.14319799796247L451.96170774141945,112.14470507696576L452.9132060735067,112.15660138143876L453.86470440559384,112.19434248754314L454.816202737681,112.7363778805662L455.76770106976824,112.5538930591219L456.71919940185546,112.39414268477024L457.67069773394263,112.42123804131923L458.62219606602986,113.03564529201229L459.5736943981171,113.00803688729194L460.5251927302042,113.02685934207804L461.4766910622914,113.74596048523563L462.42818939437865,114.04798553060266L463.3796877264658,114.15550118800957L464.33118605855304,114.17797911101647L465.2826843906402,114.05943291792573L466.23418272272744,114.78639011120694L467.18568105481467,115.07783353804004L468.1371793869018,115.28478434415521L469.088677718989,115.38457221348128L470.04017605107623,116.13525788468709L470.9916743831634,116.15629285971214L471.9431727152506,116.6935504916396L472.89467104733785,117.45331070237602L473.846169379425,117.50990632877722L474.7976677115122,117.54742297630658L475.7491660435994,117.70749400576537L476.7006643756866,118.05024224973269L477.6521627077738,118.85078979009084L478.60366103986104,118.84982782476959L479.5551593719482,118.809906263937L480.50665770403543,118.58166395871113L481.45815603612266,118.7082265294791L482.4096543682098,119.37092443929971L483.361152700297,119.42392872850152L484.3126510323842,120.1386689622027L485.2641493644714,120.99818497675447L486.2156476965586,121.15950656113091L487.16714602864585,121.55801672822099L488.118644360733,122.19416439517461L489.0701426928202,122.27253250334715L490.02164102490735,122.36497737072087L490.9731393569946,122.85580414314187L491.9246376890818,122.99006243648L492.876136021169,122.87908370391654L493.8276343532562,122.9374749989174L494.7791326853434,123.04896677965222L495.73063101743054,123.49038060007081L496.68212934951777,124.15772800894418L497.633627681605,124.17190096467752L498.58512601369216,124.87025572240645L499.5366243457794,124.94291616967277L500.4881226778666,125.01679510634607L501.4396210099538,125.02266309480581L502.391119342041,125.14993110680939L503.34261767412823,125.80974312066617L504.29411600621535,126.01441727552105L505.2456143383026,126.73794345915643L506.1971126703898,126.96089495511532L507.14861100247697,127.0343249746387L508.1001093345642,126.95874656589781L509.0516076666514,127.45249129979332L510.0031059987386,128.2903951601273L510.95460433082576,128.33339500998795L511.90610266291293,128.35705935689109L512.8576009950002,128.351672351092L513.8090993270874,128.77993931211992L514.7605976591746,128.7491884873501L515.7120959912618,129.13888063899526L516.663594323349,129.904220248595L517.6150926554361,129.81594389761347L518.5665909875233,129.98508946660286L519.5180893196106,130.23141671986855L520.4695876516978,130.1682155982613L521.4210859837849,130.38914696704555L522.3725843158721,131.02404407908156L523.3240826479594,130.97459906156848L524.2755809800466,130.97405394788643L525.2270793121338,131.05790525839018L526.1785776442209,131.00701729289514L527.1300759763081,130.99569816761493L528.0815743083954,131.69334748410824L529.0330726404825,132.3905478834516L529.9845709725697,132.3659215712272L530.9360693046569,132.37759341712524L531.8875676367442,132.4280324654703L532.8390659688314,132.77482096378694L533.7905643009186,132.7219770021387L534.7420626330057,132.72377267073838L535.693560965093,132.80634136081378L536.6450592971801,133.38820211813731L537.5965576292673,133.68352547176616L538.5480559613545,134.03364878319655L539.4995542934417,134.01562796617813L540.451052625529,133.9834021279157L541.4025509576162,134.2473333465606L542.3540492897033,134.724339883866L543.3055476217905,134.70975007649346L544.2570459538778,134.82428808074565L545.2085442859649,134.97579761884515L546.1600426180521,134.75768801500325L547.1115409501393,134.8353186164295L548.0630392822266,135.80068288183134L549.0145376143138,136.34925963903902L549.9660359464009,136.20627952678808L550.9175342784881,136.12499345714102L551.8690326105753,136.1916576539048L552.8205309426626,136.50230832165252L553.7720292747497,137.08003262809459L554.7235276068369,137.74029355910133L555.6750259389241,138.42527699886466L556.6265242710112,138.57681860247487L557.5780226030985,139.08832762930308L558.5295209351857,139.5392969719129L559.4810192672729,139.32250205401007L560.4325175993602,140.10717716656734L561.3840159314473,140.7306910223017L562.3355142635345,141.4215424505247L563.2870125956217,142.03989375903495L564.2385109277088,142.62018330633373L565.190009259796,142.72744243965494L566.1415075918833,142.80337356901362L567.0930059239705,143.01054883370375L568.0445042560577,143.26963816023155L568.996002588145,143.29327044162403L569.9475009202321,143.28897366318904L570.8989992523193,143.43112007216152L571.8504975844065,144.07393736534266L572.8019959164938,144.22563929650642L573.7534942485809,144.73259502081396L574.7049925806681,145.23397134625813L575.6564909127553,145.1563086793212L576.6079892448425,145.15012003575438L577.5594875769298,145.45188855703577L578.510985909017,146.21924829381018L579.462484241104,146.5304761407507L580.4139825731912,147.155978058149L581.3654809052784,147.13356426616346L582.3169792373657,147.19173110258942L583.2684775694529,147.85558337079556L584.2199759015401,149.09664689727242L585.1714742336272,149.82655411753888L586.1229725657145,149.8314601406773L587.0744708978017,150.4129040463616L588.0259692298889,151.16262775224618L588.9774675619761,151.0336282026643L589.9289658940634,151.64880502561437L590.8804642261505,152.4591966777601L591.8319625582377,152.5442023466494L592.7834608903248,152.98006883371534L593.734959222412,153.59640001505088L594.6864575544993,153.60390334455676L595.6379558865864,153.56173719797457L596.5894542186736,153.79517411593528L597.5409525507608,154.46915908552546L598.4924508828481,155.03505121851592L599.4439492149353,155.07179829378833L600.3954475470225,155.37420812528384L601.3469458791096,156.14528746130054L602.2984442111969,156.6859440373631L603.2499425432841,157.62280206374476L604.2014408753713,158.35745497959613L605.1529392074585,158.74955204454443L606.1044375395458,159.3464194608797L607.0559358716328,160.2258481575817L608.00743420372,160.80277082625602L608.9589325358072,160.89457438341557L609.9104308678944,161.16572034196994L610.8619291999817,161.480411264067L611.8134275320689,161.51898607344978L612.764925864156,161.79074127670765L613.7164241962432,162.4268568781506L614.6679225283305,163.07964654516215L615.6194208604177,164.1146570998237L616.5709191925049,164.7437824199321L617.5224175245921,164.81839886335172L618.4739158566792,165.01714089872542L619.4254141887665,165.8842243738045L620.3769125208537,166.17262157712025L621.3284108529408,166.5879982028432L622.279909185028,167.42436291866318L623.2314075171151,168.2170544088976L624.1829058492024,168.01789552188472L625.1344041812896,167.9746712134491L626.0859025133768,168.39937890278838L627.037400845464,169.16635385343432L627.9888991775513,169.81244182870773L628.9403975096384,170.18007290898512L629.8918958417256,170.69738579325167L630.8433941738128,171.13238651152847L631.7948925059001,171.3072076759133L632.7463908379873,171.56405241669154L633.6978891700745,171.92087741986003L634.6493875021615,172.3444948818352L635.6008858342487,172.58177966108096L636.552384166336,172.9814762520673L637.5038824984232,173.4158035946192L638.4553808305104,174.2901659406292L639.4068791625976,174.89133013539944L640.3583774946848,174.75691151450778L641.309875826772,174.8255637729355L642.2613741588592,175.38350365927022L643.2128724909464,175.90985901755664L644.1643708230337,176.62956940541764L645.1158691551208,177.26962906467782L646.067367487208,177.77357063097872L647.0188658192952,178.2576636461508L647.9703641513825,179.62307722315677L648.9218624834697,180.49519498341712L649.8733608155569,181.12723826500005L650.8248591476439,181.19015079701092L651.7763574797311,181.74286400510005L652.7278558118184,182.66955726458696L653.6793541439056,183.25988331673761L654.6308524759928,183.36509025737345L655.58235080808,184.62253925982256L656.5338491401671,185.5983568817155L657.4853474722544,186.2808071461328L658.4368458043416,186.33804408274816L659.3883441364288,187.011516004167L660.339842468516,187.87802230005332L661.2913408006033,188.69024168630946L662.2428391326904,189.3998193727865L663.1943374647776,189.65496464149712L664.1458357968647,190.64537207076262L665.097334128952,191.89932593254443L666.0488324610392,192.63391471737438L667.0003307931263,193.0050730038298L667.9518291252135,193.84583069461686L668.9033274573007,194.76245538374118L669.854825789388,195.35534667674855L670.8063241214752,195.8432234221843L671.7578224535624,196.0686439624678L672.7093207856495,196.6002580645105L673.6608191177368,197.11365895647052L674.612317449824,198.12920574613176L675.5638157819112,199.37902315703218L676.5153141139984,200.42743709517L677.4668124460857,201.0214186155415L678.4183107781727,201.93672861872676L679.3698091102599,202.96590325043928L680.3213074423471,204.08999179385012L681.2728057744343,204.8658809564731L682.2243041065216,205.06895183579252L683.1758024386088,205.77128271684933L684.1273007706959,206.58234774471998L685.0787991027831,207.1560317968127L686.0302974348704,207.38616596717043L686.9817957669576,208.15282026270924L687.9332940990448,208.87172901280258L688.884792431132,209.5419623176398L689.8362907632192,210.06148772214522L690.7877890953064,210.85732163242912L691.7392874273936,211.9161889270581L692.6907857594807,212.6478276849028L693.642284091568,213.25392996832227L694.5937824236551,213.62226648983528L695.5452807557423,214.56393434282325L696.4967790878295,215.4258232051675L697.4482774199167,216.5616797910085L698.399775752004,217.53406640325554L699.3512740840912,218.40563904983387L700.3027724161783,219.48708046400188L701.2542707482655,220.56553978567396L702.2057690803528,221.5255491107874L703.15726741244,222.53378496400705L704.1087657445272,223.3152855910041L705.0602640766144,223.88079293786606L706.0117624087014,224.63324221216087L706.9632607407887,225.39281002983304L707.9147590728759,225.97268272549263L708.8662574049631,226.63948502068396L709.8177557370503,227.53100241492322L710.7692540691376,228.40975773590034L711.7207524012247,229.2485914960449L712.6722507333119,230.28254388885307L713.6237490653991,231.40820364228864L714.5752473974864,232.3870995532096L715.5267457295736,233.0727243031871L716.4782440616607,233.23343664286006L717.4297423937479,233.67193250180412L718.3812407258351,234.4231953522027L719.3327390579224,234.82148106071782L720.2842373900096,235.0606897706061L721.2357357220968,235.57502056237672L722.1872340541838,236.34491347449716L723.138732386271,237.0191870336837L724.0902307183583,237.5346401183291L725.0417290504455,238.39922248357286L725.9932273825327,239.159784332077L726.94472571462,240.16904628163934L727.8962240467071,240.99810006101765L728.8477223787943,241.53686477194844L729.7992207108815,242.1880030651585L730.7507190429687,242.80536034283676L731.702217375056,243.40884928713342L732.6537157071432,244.16800025316638L733.6052140392303,244.86125659469255L734.5567123713175,245.65497418126972L735.5082107034046,246.10076494390006L736.4597090354919,246.77188005028177L737.4112073675791,247.31684943753467L738.3627056996662,247.80570418104705L739.3142040317534,248.27801312103367L740.2657023638407,248.77791443298523L741.2172006959279,249.5274136802948L742.1686990280151,250.3624476774204L743.1201973601023,251.05716299968384L744.0716956921895,251.9051033648697L745.0231940242767,252.42129395626142L745.9746923563639,252.91035712559338L746.9261906884511,253.40200156853746L747.8776890205384,254.12217690630376L748.8291873526256,255.01210705776293L749.7806856847126,255.9046986466109L750.7321840167998,256.5189616025058L751.683682348887,257.15764244480545L752.6351806809743,258.09105342878587L753.5866790130615,258.9639888595693L754.5381773451487,259.54350883461103L755.4896756772358,260.26770839397136L756.441174009323,260.97611568930745L757.3926723414103,261.62836024263703L758.3441706734975,262.3520307210706L759.2956690055847,262.89573352065054L760.247167337672,263.365910104175L761.1986656697591,264.0361434090122L762.1501640018463,264.7391797313046L763.1016623339335,265.2479471569672L764.0531606660206,265.43392711907876L765.0046589981079,265.8967767334062L765.956157330195,266.50622986269474L766.9076556622822,266.95950792207555L767.8591539943694,267.59883007458944L768.8106523264566,268.36415365143387L769.7621506585439,269.17281376600135L770.7136489906311,270.0321373874889L771.6651473227182,270.47042482061335L772.6166456548054,271.01921000364064L773.5681439868927,271.61602932170985L774.5196423189799,272.1605658245682L775.4711406510671,272.66065952958405L776.4226389831543,273.251947547056L777.3741373152413,273.97866424900684L778.3256356473286,274.6329930605325L779.2771339794158,275.3205898394185L780.228632311503,275.951478762616L781.1801306435902,276.2871244959613L782.1316289756775,276.50800776647947L783.0831273077646,276.9520830242869L784.0346256398518,277.7175508959295L784.986123971939,278.35531787117395L785.9376223040263,278.7956574969837L786.8891206361135,279.4382182660792L787.8406189682006,280.1704823013828L788.7921173002878,280.99551185916715L789.743615632375,281.7972458234215L790.6951139644623,282.1771419615451L791.6466122965495,282.8715847269675L792.5981106286367,283.5173360143785L793.5496089607237,284.11555018216353L794.501107292811,284.9192561753265L795.4526056248982,285.6246813781667L796.4041039569854,286.4107032421737L797.3556022890726,287.07761776665257L798.3071006211599,287.47430019963224L799.258598953247,287.93913787562366L800.2100972853342,288.55585384308773L801.1615956174214,289.1473342536239L802.1130939495087,289.6993259877221L803.0645922815959,290.13402208364715L804.0160906136831,290.6937736713369L804.9675889457702,291.3322300550616L805.9190872778574,291.8250448891465L806.8705856099446,292.4714695522824L807.8220839420318,293.1753395778532L808.773582274119,293.612600914635L809.7250806062061,294.07921822647074L810.6765789382933,294.3790788498649L811.6280772703806,295.0615772125483L812.5795756024678,295.64045587737587L813.531073934555,295.8936932481993L814.4825722666423,296.2752407601244L815.4340705987294,296.71894726455866L816.3855689308166,297.12597082474196L817.3370672629038,297.66659533529383L818.288565594991,298.09835743698903L819.2400639270783,298.7183921848115L820.1915622591655,299.1493366159836L821.1430605912525,299.61927270817773L822.0945589233397,300.17525659835917L823.046057255427,300.81526815935325L823.9975555875142,301.52003601922394L824.9490539196014,302.05047973012574L825.9005522516886,302.5635118687126L826.8520505837757,303.25288828344304L827.803548915863,303.89756537624527L828.7550472479502,304.38680490588615L829.7065455800374,304.94530593865824L830.6580439121246,305.42848508677514L831.6095422442119,305.92756872820365L832.561040576299,306.4012725179061L833.5125389083862,306.797874787109L834.4640372404734,307.1865087769007L835.4155355725605,307.6662569153718L836.3670339046478,307.99536128453246L837.3185322367349,308.3559219196986L838.2700305688221,308.8121339733093L839.2215289009093,309.33161127954867L840.1730272329966,309.6901838530508L841.1245255650838,310.0663924574429L842.076023897171,310.4168364239803L843.0275222292581,310.932257443115L843.9790205613454,311.5100779460892L844.9305188934326,312.08570196157984L845.8820172255198,312.55480435049554L846.833515557607,313.0317627895349L847.7850138896943,313.4558932996814L848.7365122217813,313.952764420871L849.6880105538685,314.46151581377825L850.6395088859557,314.845853025135L851.5910072180429,315.2021970456429L852.5425055501302,315.52708480014536L853.4940038822174,315.892599556716L854.4455022143045,316.1792491896981L855.3970005463917,316.4915672640027L856.348498878479,316.8519515388599L857.2999972105662,317.24023280803385L858.2514955426534,317.59216782081927L859.2029938747405,318.0311767279347L860.1544922068277,318.49441112839065L861.105990538915,318.78838773056975L862.0574888710022,319.01707895294555L863.0089872030894,319.37060120851106L863.9604855351766,319.92174320657546L864.9119838672636,320.46538187513397L865.8634821993509,320.7505404618681L866.8149805314381,321.13295374258234L867.7664788635253,321.57364608900997L868.7179771956125,321.90023331558L869.6694755276998,322.17934755354554L870.6209738597869,322.4343004291919L871.5724721918741,322.67801434333484L872.5239705239613,322.9684797720913L873.4754688560486,323.32618657680433L874.4269671881358,323.6662092523614L875.378465520223,324.1184932809103L876.3299638523101,324.5317054846604L877.2814621843974,324.8084949730995L878.2329605164845,325.07346832084244L879.1844588485717,325.30331390160376L880.1359571806589,325.64822656754393L881.087455512746,325.9603682815396L882.0389538448333,326.2040661629272L882.9904521769205,326.4218070133959L883.9419505090077,326.69450814921964L884.8934488410949,326.9809333236268L885.8449471731822,327.24818332263004L886.7964455052693,327.5095813659289L887.7479438373565,327.7030806903017L888.6994421694437,327.8930688412519L889.650940501531,328.099201976844L890.6024388336182,328.31181234559926L891.5539371657054,328.5861327897138L892.5054354977924,328.90465554034057L893.4569338298796,329.13658537929797L894.4084321619669,329.3795136884285L895.3599304940541,329.62196101489843L896.3114288261413,329.7923731715608L897.2629271582285,330.0402556020959L898.2144254903156,330.2577238957236L899.1659238224029,330.40174613707256L900.1174221544901,330.5298478523546L901.0689204865773,330.70163882597745L902.0204188186646,330.9433646784564L902.9719171507518,331.2663926333378L903.9234154828389,331.5566336035193L904.8749138149261,331.7612436273527L905.8264121470133,331.91017189184015L906.7779104791005,332.1326103396277L907.7294088111877,332.4651296856789L908.6809071432748,332.67948762476783L909.632405475362,332.90394619973006L910.5839038074492,333.12721835079606L911.5354021395365,333.315523062434L912.4869004716237,333.60533114822096L913.4383988037109,334.06486198219005L914.389897135798,334.39839139182857L915.3413954678853,334.65905192838113L916.2928937999725,334.81306257631593L917.2443921320597,334.90677403136266L918.1958904641469,335.13602640017587L919.1473887962342,335.33988288450763L920.0988871283212,335.5051645594566L921.0503854604084,335.56315503557363L922.0018837924956,335.63730652908794L922.9533821245828,335.70783461989214L923.9048804566701,335.8824473584574L924.8563787887573,335.9941956632779L925.8078771208444,336.0920916674721L926.7593754529316,336.23324404561265L927.7108737850189,336.3905895066612L928.6623721171061,336.5183064358147L929.6138704491933,336.68147178705686L930.5653687812804,336.8998379149844L931.5168671133677,337.0390984279931L932.4683654454549,337.14632549580364L933.4198637775421,337.28122509935594L934.3713621096293,337.4353960748443L935.3228604417166,337.5612852698874L936.2743587738036,337.6981088040822L937.2258571058908,337.85542219962L938.177355437978,337.9328924734927L939.1288537700652,337.97990051219193L940.0803521021525,338.12728963216534L941.0318504342397,338.2115577943083L941.9833487663268,338.2379637423771L942.934847098414,338.2955694323656L943.8863454305013,338.3563175424036L944.8378437625885,338.4123840878781L945.7893420946757,338.46381716705514L946.7408404267629,338.5731124603064L947.69233875885,338.7529198116065L948.6438370909373,338.9341220126224L949.5953354230244,339.025204095791L950.5468337551116,339.04789044461756L951.4983320871988,339.0826815237367L952.449830419286,339.23167391924557L953.4013287513732,339.38308726081294L954.3528270834604,339.47990907039843L955.3043254155476,339.55909484909404L956.2558237476348,339.61455214986506L957.2073220797221,339.67132413657515L958.1588204118092,339.7209615471525L959.1103187438964,339.7645065106952L960.0618170759836,339.79299671696003L961.0133154080709,339.84503904084056L961.9648137401581,339.89751424911566L962.9163120722453,339.9459331702861L963.8678104043323,339.9890452494342L964.8193087364195,340.01521070617264L965.7708070685068,340.0700266967295L966.722305400594,340.1576938030076L967.6738037326812,340.231396379372L968.6253020647684,340.2874949903572L969.5768003968556,340.3016358805798L970.5282987289428,340.3031429595831L971.47979706103,340.31882299431976L972.4312953931172,340.33512830651523L973.3827937252045,340.38090182305217L974.3342920572917,340.47666547078427L975.2857903893788,340.5437625519426L976.237288721466,340.55181099513055L977.1887870535533,340.5506406039897L978.1402853856404,340.60516800495014L979.0917837177276,340.6770588799595L980.0432820498147,340.70694393594016L980.9947803819019,340.73830400541345L981.9462787139892,340.7738005257682L982.8977770460764,340.7810152656777L983.8492753781636,340.796454809084L984.8007737102508,340.8099864546032L985.752272042338,340.80995438909247L986.7037703744252,340.8200389922104L987.6552687065124,340.8644657572976L988.6067670385996,340.91799912742607L989.5582653706869,340.9494553934315L990.5097637027741,340.9633557923238L991.4612620348611,340.98368532611323L992.4127603669483,340.9984354610393L993.3642586990355,341.01844433972167L994.3157570311228,341.04157960569813L995.26725536321,341.0458924168885L996.2187536952972,341.0504296866538L997.1702520273843,341.07669133992437L998.1217503594715,341.09694070993703L999.0732486915588,341.11903384681546L1000.024747023646,341.14138350777955L1000.9762453557332,341.1495602130103L1001.9277436878203,341.15993340572464L1002.8792420199076,341.1710441051853L1003.8307403519948,341.18531325745073L1004.782238684082,341.2065085600293L1005.7337370161692,341.22331088764076L1006.6852353482565,341.23729145030984L1007.6367336803435,341.25505574324256L1008.5882320124307,341.26153297640576L1009.5397303445179,341.27224285698253L1010.4912286766051,341.27649153715146L1011.4427270086924,341.282487787654L1012.3942253407796,341.29662867787664L1013.3457236728667,341.30366705747724L1014.2972220049539,341.30443662973425L1015.2487203370412,341.3080119341783L1016.2002186691284,341.31674978584647L1017.1517170012156,341.32551970302535L1018.1032153333028,341.330073005546L1019.05471366539,341.3352195200148L1020.0062119974772,341.340702722346L1020.9577103295643,341.3441978630133L1021.9092086616515,341.3475647416377L1022.8607069937387,341.3523585354887L1023.8122053258259,341.3542824661312L1024.763703657913,341.35550095553816L1025.7152019900004,341.35817842568235L1026.6667003220875,341.3619942214567L1027.6181986541749,341.3659062137632L1028.569696986262,341.36845542186455L1029.521195318349,341.3693853216751L1030.4726936504362,341.36936928891976L1031.4241919825236,341.36930515789834L1032.3756903146107,341.3698823370911L1033.327188646698,341.3704434835285L1034.2786869787851,341.3709725644552L1035.2301853108722,341.3712130557855L1036.1816836429596,341.3712451212962L1037.1331819750467,341.3712932195623L1038.084680307134,341.37130925231764L1039.0361786392211,341.37130925231764L1039.9876769713085,341.37130925231764L1040.9391753033956,341.37130925231764L1041.8906736354827,341.37130925231764L1042.8421719675698,341.37130925231764L1043.7936702996572,341.37130925231764L1044.7451686317443,341.37130925231764L1045.6966669638316,341.37130925231764L1046.6481652959187,341.37130925231764" fill="none"></path></g></g></g></g></g></g><g transform="translate(51, 376)" clip-path="url(#clip_1)"><clipPath id="clip_1"><rect width="1141" height="23"></rect></clipPath><g><g><line x1="0" y1="0" x2="0" y2="5" style="visibility: inherit;" fill="rgb(0, 0, 0)" stroke="rgb(204, 204, 204)" stroke-width="1px"></line><line x1="95.14983320871988" y1="0" x2="95.14983320871988" y2="5" style="visibility: inherit;" fill="rgb(0, 0, 0)" stroke="rgb(204, 204, 204)" stroke-width="1px"></line><line x1="190.29966641743977" y1="0" x2="190.29966641743977" y2="5" style="visibility: inherit;" fill="rgb(0, 0, 0)" stroke="rgb(204, 204, 204)" stroke-width="1px"></line><line x1="285.44949962615965" y1="0" x2="285.44949962615965" y2="5" style="visibility: inherit;" fill="rgb(0, 0, 0)" stroke="rgb(204, 204, 204)" stroke-width="1px"></line><line x1="380.59933283487953" y1="0" x2="380.59933283487953" y2="5" style="visibility: inherit;" fill="rgb(0, 0, 0)" stroke="rgb(204, 204, 204)" stroke-width="1px"></line><line x1="475.7491660435994" y1="0" x2="475.7491660435994" y2="5" style="visibility: inherit;" fill="rgb(0, 0, 0)" stroke="rgb(204, 204, 204)" stroke-width="1px"></line><line x1="570.8989992523193" y1="0" x2="570.8989992523193" y2="5" style="visibility: inherit;" fill="rgb(0, 0, 0)" stroke="rgb(204, 204, 204)" stroke-width="1px"></line><line x1="666.0488324610392" y1="0" x2="666.0488324610392" y2="5" style="visibility: inherit;" fill="rgb(0, 0, 0)" stroke="rgb(204, 204, 204)" stroke-width="1px"></line><line x1="761.1986656697591" y1="0" x2="761.1986656697591" y2="5" style="visibility: inherit;" fill="rgb(0, 0, 0)" stroke="rgb(204, 204, 204)" stroke-width="1px"></line><line x1="856.348498878479" y1="0" x2="856.348498878479" y2="5" style="visibility: inherit;" fill="rgb(0, 0, 0)" stroke="rgb(204, 204, 204)" stroke-width="1px"></line><line x1="951.4983320871988" y1="0" x2="951.4983320871988" y2="5" style="visibility: inherit;" fill="rgb(0, 0, 0)" stroke="rgb(204, 204, 204)" stroke-width="1px"></line><line x1="1046.6481652959187" y1="0" x2="1046.6481652959187" y2="5" style="visibility: inherit;" fill="rgb(0, 0, 0)" stroke="rgb(204, 204, 204)" stroke-width="1px"></line><line x1="1141.7979985046386" y1="0" x2="1141.7979985046386" y2="5" style="visibility: inherit;" fill="rgb(0, 0, 0)" stroke="rgb(204, 204, 204)" stroke-width="1px"></line></g><g transform="translate(0, 8)"><text style="text-anchor: middle; visibility: hidden; font-family: Roboto, sans-serif; font-size: 12px; font-weight: 200;" x="0" y="0" dx="0em" dy="0.95em" fill="rgb(255, 255, 255)" stroke="none" stroke-width="1px">-100</text><text style="text-anchor: middle; visibility: inherit; font-family: Roboto, sans-serif; font-size: 12px; font-weight: 200;" x="95.14983320871988" y="0" dx="0em" dy="0.95em" fill="rgb(255, 255, 255)" stroke="none" stroke-width="1px">0</text><text style="text-anchor: middle; visibility: inherit; font-family: Roboto, sans-serif; font-size: 12px; font-weight: 200;" x="190.29966641743977" y="0" dx="0em" dy="0.95em" fill="rgb(255, 255, 255)" stroke="none" stroke-width="1px">100</text><text style="text-anchor: middle; visibility: inherit; font-family: Roboto, sans-serif; font-size: 12px; font-weight: 200;" x="285.44949962615965" y="0" dx="0em" dy="0.95em" fill="rgb(255, 255, 255)" stroke="none" stroke-width="1px">200</text><text style="text-anchor: middle; visibility: inherit; font-family: Roboto, sans-serif; font-size: 12px; font-weight: 200;" x="380.59933283487953" y="0" dx="0em" dy="0.95em" fill="rgb(255, 255, 255)" stroke="none" stroke-width="1px">300</text><text style="text-anchor: middle; visibility: inherit; font-family: Roboto, sans-serif; font-size: 12px; font-weight: 200;" x="475.7491660435994" y="0" dx="0em" dy="0.95em" fill="rgb(255, 255, 255)" stroke="none" stroke-width="1px">400</text><text style="text-anchor: middle; visibility: inherit; font-family: Roboto, sans-serif; font-size: 12px; font-weight: 200;" x="570.8989992523193" y="0" dx="0em" dy="0.95em" fill="rgb(255, 255, 255)" stroke="none" stroke-width="1px">500</text><text style="text-anchor: middle; visibility: inherit; font-family: Roboto, sans-serif; font-size: 12px; font-weight: 200;" x="666.0488324610392" y="0" dx="0em" dy="0.95em" fill="rgb(255, 255, 255)" stroke="none" stroke-width="1px">600</text><text style="text-anchor: middle; visibility: inherit; font-family: Roboto, sans-serif; font-size: 12px; font-weight: 200;" x="761.1986656697591" y="0" dx="0em" dy="0.95em" fill="rgb(255, 255, 255)" stroke="none" stroke-width="1px">700</text><text style="text-anchor: middle; visibility: inherit; font-family: Roboto, sans-serif; font-size: 12px; font-weight: 200;" x="856.348498878479" y="0" dx="0em" dy="0.95em" fill="rgb(255, 255, 255)" stroke="none" stroke-width="1px">800</text><text style="text-anchor: middle; visibility: inherit; font-family: Roboto, sans-serif; font-size: 12px; font-weight: 200;" x="951.4983320871988" y="0" dx="0em" dy="0.95em" fill="rgb(255, 255, 255)" stroke="none" stroke-width="1px">900</text><text style="text-anchor: middle; visibility: inherit; font-family: Roboto, sans-serif; font-size: 12px; font-weight: 200;" x="1046.6481652959187" y="0" dx="0em" dy="0.95em" fill="rgb(255, 255, 255)" stroke="none" stroke-width="1px">1k</text><text style="text-anchor: middle; visibility: hidden; font-family: Roboto, sans-serif; font-size: 12px; font-weight: 200;" x="1141.7979985046386" y="0" dx="0em" dy="0.95em" fill="rgb(255, 255, 255)" stroke="none" stroke-width="1px">1.1k</text></g><line x1="0" y1="0" x2="1141.7979985046386" y2="0" fill="rgb(0, 0, 0)" stroke="rgb(204, 204, 204)" stroke-width="1px"></line></g></g></g></g></svg>