<svg viewBox="0 0 1193.3333740234375 400" xmlns="http://www.w3.org/2000/svg"><g><g><g><g><g><line x1="51.53200149536133" y1="376.57899951934814" x2="46.53200149536133" y2="376.57899951934814" style="visibility: inherit;" fill="rgb(0, 0, 0)" stroke="rgb(204, 204, 204)" stroke-width="1px"></line><line x1="51.53200149536133" y1="334.73688846164276" x2="46.53200149536133" y2="334.73688846164276" style="visibility: inherit;" fill="rgb(0, 0, 0)" stroke="rgb(204, 204, 204)" stroke-width="1px"></line><line x1="51.53200149536133" y1="292.89477740393744" x2="46.53200149536133" y2="292.89477740393744" style="visibility: inherit;" fill="rgb(0, 0, 0)" stroke="rgb(204, 204, 204)" stroke-width="1px"></line><line x1="51.53200149536133" y1="251.05266634623212" x2="46.53200149536133" y2="251.05266634623212" style="visibility: inherit;" fill="rgb(0, 0, 0)" stroke="rgb(204, 204, 204)" stroke-width="1px"></line><line x1="51.53200149536133" y1="209.21055528852676" x2="46.53200149536133" y2="209.21055528852676" style="visibility: inherit;" fill="rgb(0, 0, 0)" stroke="rgb(204, 204, 204)" stroke-width="1px"></line><line x1="51.53200149536133" y1="167.36844423082138" x2="46.53200149536133" y2="167.36844423082138" style="visibility: inherit;" fill="rgb(0, 0, 0)" stroke="rgb(204, 204, 204)" stroke-width="1px"></line><line x1="51.53200149536133" y1="125.52633317311606" x2="46.53200149536133" y2="125.52633317311606" style="visibility: inherit;" fill="rgb(0, 0, 0)" stroke="rgb(204, 204, 204)" stroke-width="1px"></line><line x1="51.53200149536133" y1="83.68422211541073" x2="46.53200149536133" y2="83.68422211541073" style="visibility: inherit;" fill="rgb(0, 0, 0)" stroke="rgb(204, 204, 204)" stroke-width="1px"></line><line x1="51.53200149536133" y1="41.842111057705324" x2="46.53200149536133" y2="41.842111057705324" style="visibility: inherit;" fill="rgb(0, 0, 0)" stroke="rgb(204, 204, 204)" stroke-width="1px"></line><line x1="51.53200149536133" y1="0" x2="46.53200149536133" y2="0" style="visibility: inherit;" fill="rgb(0, 0, 0)" stroke="rgb(204, 204, 204)" stroke-width="1px"></line></g><g transform="translate(41.53200149536133, 0)"><text style="text-anchor: end; visibility: hidden; font-family: Roboto, sans-serif; font-size: 12px; font-weight: 200;" x="0" y="376.57899951934814" dx="0em" dy="0.3em" fill="rgb(255, 255, 255)" stroke="none" stroke-width="1px">0</text><text style="text-anchor: end; visibility: inherit; font-family: Roboto, sans-serif; font-size: 12px; font-weight: 200;" x="0" y="334.73688846164276" dx="0em" dy="0.3em" fill="rgb(255, 255, 255)" stroke="none" stroke-width="1px">0.05</text><text style="text-anchor: end; visibility: inherit; font-family: Roboto, sans-serif; font-size: 12px; font-weight: 200;" x="0" y="292.89477740393744" dx="0em" dy="0.3em" fill="rgb(255, 255, 255)" stroke="none" stroke-width="1px">0.1</text><text style="text-anchor: end; visibility: inherit; font-family: Roboto, sans-serif; font-size: 12px; font-weight: 200;" x="0" y="251.05266634623212" dx="0em" dy="0.3em" fill="rgb(255, 255, 255)" stroke="none" stroke-width="1px">0.15</text><text style="text-anchor: end; visibility: inherit; font-family: Roboto, sans-serif; font-size: 12px; font-weight: 200;" x="0" y="209.21055528852676" dx="0em" dy="0.3em" fill="rgb(255, 255, 255)" stroke="none" stroke-width="1px">0.2</text><text style="text-anchor: end; visibility: inherit; font-family: Roboto, sans-serif; font-size: 12px; font-weight: 200;" x="0" y="167.36844423082138" dx="0em" dy="0.3em" fill="rgb(255, 255, 255)" stroke="none" stroke-width="1px">0.25</text><text style="text-anchor: end; visibility: inherit; font-family: Roboto, sans-serif; font-size: 12px; font-weight: 200;" x="0" y="125.52633317311606" dx="0em" dy="0.3em" fill="rgb(255, 255, 255)" stroke="none" stroke-width="1px">0.3</text><text style="text-anchor: end; visibility: inherit; font-family: Roboto, sans-serif; font-size: 12px; font-weight: 200;" x="0" y="83.68422211541073" dx="0em" dy="0.3em" fill="rgb(255, 255, 255)" stroke="none" stroke-width="1px">0.35</text><text style="text-anchor: end; visibility: inherit; font-family: Roboto, sans-serif; font-size: 12px; font-weight: 200;" x="0" y="41.842111057705324" dx="0em" dy="0.3em" fill="rgb(255, 255, 255)" stroke="none" stroke-width="1px">0.4</text><text style="text-anchor: end; visibility: hidden; font-family: Roboto, sans-serif; font-size: 12px; font-weight: 200;" x="0" y="0" dx="0em" dy="0.3em" fill="rgb(255, 255, 255)" stroke="none" stroke-width="1px">0.45</text></g><line x1="51.53200149536133" y1="0" x2="51.53200149536133" y2="376.57899951934814" fill="rgb(0, 0, 0)" stroke="rgb(204, 204, 204)" stroke-width="1px"></line></g></g><g transform="translate(51, 0)" clip-path="url(#clip_0)"><clipPath id="clip_0"><rect width="1141" height="376"></rect></clipPath><g><g><g><line x1="0" y1="0" x2="0" y2="376.57899951934814" fill="rgb(0, 0, 0)" stroke="rgb(189, 189, 189)" stroke-width="1px" opacity="0.25"></line><line x1="95.14983320871988" y1="0" x2="95.14983320871988" y2="376.57899951934814" fill="rgb(0, 0, 0)" stroke="rgb(189, 189, 189)" stroke-width="1px" opacity="0.25"></line><line x1="190.29966641743977" y1="0" x2="190.29966641743977" y2="376.57899951934814" fill="rgb(0, 0, 0)" stroke="rgb(189, 189, 189)" stroke-width="1px" opacity="0.25"></line><line x1="285.44949962615965" y1="0" x2="285.44949962615965" y2="376.57899951934814" fill="rgb(0, 0, 0)" stroke="rgb(189, 189, 189)" stroke-width="1px" opacity="0.25"></line><line x1="380.59933283487953" y1="0" x2="380.59933283487953" y2="376.57899951934814" fill="rgb(0, 0, 0)" stroke="rgb(189, 189, 189)" stroke-width="1px" opacity="0.25"></line><line x1="475.7491660435994" y1="0" x2="475.7491660435994" y2="376.57899951934814" fill="rgb(0, 0, 0)" stroke="rgb(189, 189, 189)" stroke-width="1px" opacity="0.25"></line><line x1="570.8989992523193" y1="0" x2="570.8989992523193" y2="376.57899951934814" fill="rgb(0, 0, 0)" stroke="rgb(189, 189, 189)" stroke-width="1px" opacity="0.25"></line><line x1="666.0488324610392" y1="0" x2="666.0488324610392" y2="376.57899951934814" fill="rgb(0, 0, 0)" stroke="rgb(189, 189, 189)" stroke-width="1px" opacity="0.25"></line><line x1="761.1986656697591" y1="0" x2="761.1986656697591" y2="376.57899951934814" fill="rgb(0, 0, 0)" stroke="rgb(189, 189, 189)" stroke-width="1px" opacity="0.25"></line><line x1="856.348498878479" y1="0" x2="856.348498878479" y2="376.57899951934814" fill="rgb(0, 0, 0)" stroke="rgb(189, 189, 189)" stroke-width="1px" opacity="0.25"></line><line x1="951.4983320871988" y1="0" x2="951.4983320871988" y2="376.57899951934814" fill="rgb(0, 0, 0)" stroke="rgb(189, 189, 189)" stroke-width="1px" opacity="0.25"></line><line x1="1046.6481652959187" y1="0" x2="1046.6481652959187" y2="376.57899951934814" fill="rgb(0, 0, 0)" stroke="rgb(189, 189, 189)" stroke-width="1px" opacity="0.25"></line><line x1="1141.7979985046386" y1="0" x2="1141.7979985046386" y2="376.57899951934814" fill="rgb(0, 0, 0)" stroke="rgb(189, 189, 189)" stroke-width="1px" opacity="0.25"></line></g><g><line x1="0" y1="376.57899951934814" x2="1141.7979985046386" y2="376.57899951934814" fill="rgb(0, 0, 0)" stroke="rgb(189, 189, 189)" stroke-width="1px" opacity="0.25"></line><line x1="0" y1="334.73688846164276" x2="1141.7979985046386" y2="334.73688846164276" fill="rgb(0, 0, 0)" stroke="rgb(189, 189, 189)" stroke-width="1px" opacity="0.25"></line><line x1="0" y1="292.89477740393744" x2="1141.7979985046386" y2="292.89477740393744" fill="rgb(0, 0, 0)" stroke="rgb(189, 189, 189)" stroke-width="1px" opacity="0.25"></line><line x1="0" y1="251.05266634623212" x2="1141.7979985046386" y2="251.05266634623212" fill="rgb(0, 0, 0)" stroke="rgb(189, 189, 189)" stroke-width="1px" opacity="0.25"></line><line x1="0" y1="209.21055528852676" x2="1141.7979985046386" y2="209.21055528852676" fill="rgb(0, 0, 0)" stroke="rgb(189, 189, 189)" stroke-width="1px" opacity="0.25"></line><line x1="0" y1="167.36844423082138" x2="1141.7979985046386" y2="167.36844423082138" fill="rgb(0, 0, 0)" stroke="rgb(189, 189, 189)" stroke-width="1px" opacity="0.25"></line><line x1="0" y1="125.52633317311606" x2="1141.7979985046386" y2="125.52633317311606" fill="rgb(0, 0, 0)" stroke="rgb(189, 189, 189)" stroke-width="1px" opacity="0.25"></line><line x1="0" y1="83.68422211541073" x2="1141.7979985046386" y2="83.68422211541073" fill="rgb(0, 0, 0)" stroke="rgb(189, 189, 189)" stroke-width="1px" opacity="0.25"></line><line x1="0" y1="41.842111057705324" x2="1141.7979985046386" y2="41.842111057705324" fill="rgb(0, 0, 0)" stroke="rgb(189, 189, 189)" stroke-width="1px" opacity="0.25"></line><line x1="0" y1="0" x2="1141.7979985046386" y2="0" fill="rgb(0, 0, 0)" stroke="rgb(189, 189, 189)" stroke-width="1px" opacity="0.25"></line></g></g></g><g><g><line x1="0" y1="376.57899951934814" x2="1141.7979985046386" y2="376.57899951934814" fill="rgb(0, 0, 0)" stroke="rgb(153, 153, 153)" stroke-width="1.5px"></line></g></g><g><g><line x1="95.14983320871988" y1="0" x2="95.14983320871988" y2="376.57899951934814" fill="rgb(0, 0, 0)" stroke="rgb(153, 153, 153)" stroke-width="1.5px"></line></g></g><g><g><g><g><g><path style="fill: none;" stroke="rgb(255, 112, 67)" stroke-width="2px" d="M96.10133154080708,222.02454368135284L97.05282987289429,303.30931345048003L98.00432820498148,325.142005932345L98.95582653706869,329.8361150029962L99.90732486915587,328.11445915862976L100.85882320124307,323.39455876178124L101.81032153333028,318.66792190203245L102.76181986541746,313.33915120247804L103.71331819750468,306.2399761120064L104.66481652959186,299.0733158359565L105.61631486167907,292.7024168686703L106.56781319376627,288.6699590710275L107.51931152585347,285.8573917733234L108.47080985794067,282.1452238181655L109.42230819002788,279.98228937852707L110.37380652211506,277.3892143245439L111.32530485420227,275.20412715607813L112.27680318628946,275.31128559878044L113.22830151837667,275.0223566315873L114.17979985046387,273.45603202351856L115.13129818255105,275.2381432399062L116.08279651463826,275.15389460791636L117.03429484672544,276.76083616516655L117.98579317881266,277.97106558528895L118.93729151089985,280.86063472883063L119.88878984298705,282.6561570263949L120.84028817507425,286.0065153741033L121.79178650716146,289.969344410499L122.74328483924864,292.43329973700446L123.69478317133586,293.5864318048544L124.64628150342304,294.71931467907245L125.59777983551025,295.1600607496638L126.54927816759745,295.956283180842L127.50077649968465,295.7636835318056L128.45227483177186,292.8127255684876L129.40377316385903,294.7302970437814L130.35527149594623,295.96564535441314L131.30676982803345,297.22804714889696L132.25826816012062,297.92841588879963L133.20976649220785,295.832007585902L134.16126482429502,300.05670047293574L135.11276315638224,300.89085343530024L136.06426148846944,299.54941071196424L137.01575982055664,299.1176076997833L137.96725815264384,297.3484085037664L138.91875648473103,298.16013795154805L139.87025481681823,296.16499548090366L140.82175314890543,294.7245769514269L141.77325148099263,296.5800928805997L142.72474981307982,296.65323147389404L143.67624814516702,296.13773892122L144.62774647725425,294.6796294871788L145.57924480934142,295.15857075773886L146.53074314142862,296.16125008270143L147.48224147351584,291.9694550259269L148.433739805603,291.75928823050015L149.3852381376902,292.41689524366166L150.3367364697774,287.67950094322555L151.28823480186463,286.61722038114823L152.2397331339518,291.6210272513303L153.191231466039,292.08625859462546L154.14272979812623,293.9533944327612L155.09422813021342,292.50838626809843L156.0457264623006,295.64865028403807L156.99722479438782,294.5232606385558L157.94872312647502,295.86300394862326L158.90022145856219,299.21984426026825L159.8517197906494,301.02528178003365L160.8032181227366,298.31199708733016L161.7547164548238,299.5363410949931L162.70621478691098,302.77305457226726L163.6577131189982,301.8927280671358L164.6092114510854,298.7974717677548L165.5607097831726,297.54725896279245L166.5122081152598,299.42824716544305L167.463706447347,297.1943857905109L168.4152047794342,295.26581541424315L169.36670311152142,293.4452210265933L170.3182014436086,292.6961239047248L171.26969977569578,291.9352168889228L172.221198107783,294.7980359175396L173.17269643987018,294.05269600595005L174.12419477195738,295.08110268267137L175.07569310404457,294.5534653180326L176.0271914361318,295.6682527377993L176.97868976821897,294.5595853608659L177.93018810030617,293.71936710185537L178.8816864323934,290.1717075571379L179.8331847644806,295.44272045383127L180.78468309656776,294.31626899413413L181.736181428655,293.6344100623327L182.68767976074218,293.8692040052143L183.63917809282938,291.54909161521573L184.59067642491655,295.3987204868478L185.54217475700378,290.4225899244424L186.49367308909098,288.61168038265225L187.44517142117815,291.3094089660588L188.39666975326537,296.82213802937576L189.34816808535257,293.906132751895L190.29966641743977,292.49988137354205L191.25116474952696,291.0689469144291L192.20266308161416,285.50964507492574L193.15416141370136,290.08762038180697L194.10565974578859,294.1859803810866L195.05715807787575,287.7436950470448L196.00865640996295,292.05898845539224L196.96015474205015,290.2265251044098L197.91165307413738,289.1444376454116L198.86315140622455,285.882497333389L199.81464973831174,292.9954821958082L200.76614807039897,290.19972386816926L201.71764640248614,292.4391258723284L202.66914473457334,290.4296477610357L203.62064306666056,293.03628504265856L204.57214139874776,293.2096642382637L205.52363973083493,290.7858492603389L206.47513806292216,293.92831726179213L207.42663639500935,294.0558335155916L208.37813472709655,285.8883963048644L209.32963305918372,291.4987778734084L210.28113139127095,290.8586008183191L211.23262972335814,294.3905011374073L212.1841280554453,299.0913513881549L213.13562638753254,289.6219988822192L214.08712471961974,292.4024681727812L215.03862305170694,289.36372623696803L215.99012138379416,279.72690599613753L216.94161971588133,281.7427790840853L217.89311804796853,285.1289076660727L218.84461638005575,288.21440286080775L219.79611471214292,284.02656719876506L220.74761304423012,282.4028564335349L221.69911137631732,285.09290623471844L222.65060970840455,278.5549897343305L223.60210804049171,278.5171439097022L224.5536063725789,284.1607684406384L225.50510470466614,276.1883666122866L226.45660303675334,282.964524667941L227.4081013688405,287.11727201865654L228.35959970092773,286.6009784998428L229.31109803301493,285.568847308627L230.2625963651021,284.79704899221065L231.21409469718932,286.31902178370683L232.16559302927652,283.78724517789425L233.11709136136372,286.1487861552929L234.0685896934509,278.3063904991052L235.02008802553812,282.25689877071096L235.9715863576253,281.752709909199L236.9230846897125,281.40181828743493L237.8745830217997,279.27237947507194L238.8260813538869,274.18962958130606L239.7775796859741,274.59547202089095L240.72907801806133,268.51425608489706L241.6805763501485,270.2586725114114L242.6320746822357,275.5450256183833L243.58357301432292,277.8572833456852L244.5350713464101,271.8535687603276L245.4865696784973,273.8766335253706L246.4380680105845,279.1584997413919L247.3895663426717,263.43384635738494L248.34106467475888,271.9941077763725L249.29256300684608,272.5462568866148L250.2440613389333,266.9254586092468L251.1955596710205,255.15330581449453L252.14705800310767,261.60549792683037L253.0985563351949,264.010834337407L254.0500546672821,266.5602029569451L255.0015529993693,261.78663329423034L255.95305133145646,257.421806356119L256.9045496635437,263.0650806985618L257.8560479956309,257.86120019505137L258.80754632771806,257.9033736782243L259.7590446598053,264.38284442805355L260.71054299189245,251.33464855209112L261.6620413239797,245.42799925045853L262.6135396560669,255.40996819216446L263.5650379881541,261.51008197290264L264.51653632024124,250.90286988914823L265.46803465232847,252.27260700903403L266.4195329844157,255.04275469960595L267.37103131650287,261.0914621842776L268.32252964859003,247.79417575374902L269.27402798067726,239.04465900325997L270.2255263127645,239.3025388864981L271.17702464485166,244.04043159094297L272.1285229769389,234.52694712051428L273.08002130902605,241.41844948223172L274.0315196411133,237.75558518554945L274.98301797320045,241.79667773471016L275.9345163052877,229.81560187500423L276.88601463737484,221.40343765502988L277.83751296946207,227.9188582499028L278.78901130154924,228.66022697901795L279.74050963363646,236.9629987560997L280.69200796572363,224.73970754479237L281.64350629781086,222.3368383115115L282.595004629898,233.57077633258822L283.54650296198525,239.17698986969677L284.4980012940725,232.96673675504806L285.44949962615965,228.5770404469555L286.4009979582469,232.57476147592897L287.35249629033405,233.3743512052821L288.30399462242127,223.4923290755144L289.2554929545085,230.90110772169754L290.2069912865956,231.7955849045866L291.15848961868284,227.43721875592385L292.10998795077006,228.1300899776595L293.06148628285723,229.46426727163634L294.01298461494446,229.93615133037272L294.9644829470317,220.7554548213555L295.91598127911885,223.13057573310354L296.867479611206,205.18789596972158L297.8189779432932,210.80323500868914L298.7704762753804,223.8278233121698L299.72197460746764,211.72062079834075L300.6734729395548,211.78871249817604L301.62497127164204,222.13317878673166L302.57646960372927,206.2472789087595L303.5279679358164,217.4205112159636L304.4794662679036,218.08162173686796L305.43096459999083,220.93707212313518L306.382462932078,223.49324415949863L307.3339612641652,218.7081142781884L308.28545959625245,224.130187126025L309.2369579283396,209.1594446027787L310.18845626042685,216.62634599557114L311.139954592514,218.37739976561588L312.0914529246012,221.78104124490838L313.0429512566884,220.14897393549722L313.99444958877564,223.2461805973912L314.9459479208628,216.48207308843527L315.89744625295003,207.6551407850075L316.84894458503726,204.013640137889L317.80044291712437,212.56515204251454L318.7519412492116,191.5709914515579L319.7034395812988,188.67193852606368L320.654937913386,185.8530256281538L321.6064362454732,188.66433186705518L322.5579345775604,195.48356543360896L323.5094329096476,203.0330395598843L324.46093124173484,222.17552594220712L325.41242957382195,219.14518196942686L326.3639279059092,216.37071721283132L327.3154262379964,209.2938383317331L328.2669245700836,216.3526219986984L329.2184229021708,208.4127852359348L330.169921234258,215.51924024000905L331.1214195663452,210.61868909735247L332.07291789843237,220.8143076905263L333.0244162305196,212.60329089419187L333.97591456260676,218.32154892648148L334.927412894694,222.22596169997556L335.8789112267812,195.42105229145537L336.8304095588684,204.0683339276083L337.7819078909556,184.96190531158845L338.73340622304283,181.36312150036795L339.68490455512995,180.62168121214705L340.6364028872172,175.57284744879766L341.5879012193044,182.20439888418056L342.53939955139157,171.97300201563334L343.4908978834788,168.49548442237048L344.442396215566,186.97968447552776L345.3938945476532,189.1400153552149L346.34539287974036,179.15699092431527L347.29689121182753,194.71114923186337L348.24838954391475,179.46094108652906L349.199887876002,173.03010689515418L350.15138620808915,172.78044137263532L351.1028845401764,197.00558134403374L352.0543828722636,187.50971130207685L353.0058812043507,186.71282327186302L353.95737953643794,186.93428294017696L354.90887786852517,166.40739294544204L355.86037620061234,171.80611327691494L356.81187453269956,165.82005315313617L357.7633728647868,163.9003940398575L358.71487119687396,168.8453922646977L359.6663695289612,186.93173625422912L360.6178678610484,161.8363372647923L361.5693661931355,145.70566713410415L362.52086452522275,152.76420325257808L363.47236285731,157.80036271005096L364.42386118939714,170.4885265302697L365.37535952148437,176.46428383224642L366.3268578535716,173.07912728829712L367.27835618565877,154.92286948102114L368.22985451774593,167.95130118399322L369.1813528498331,156.7286765485105L370.13285118192033,149.42911700053276L371.08434951400756,158.31999073158627L372.0358478460947,147.9706765514344L372.98734617818195,158.9896703268906L373.9388445102692,164.6634233170538L374.8903428423563,150.10725312589247L375.8418411744435,160.34543820288638L376.79333950653074,157.21372093164354L377.7448378386179,151.99232282085018L378.69633617070514,158.22883379044748L379.64783450279236,168.71972588839185L380.59933283487953,148.54590148091094L381.55083116696676,139.77852772305084L382.50232949905393,131.86656933433767L383.4538278311411,151.3839249069798L384.4053261632283,137.80639625410726L385.35682449531555,156.68843745205368L386.3083228274027,141.3707132863974L387.25982115948995,152.99254624525787L388.21131949157717,144.79413180515732L389.1628178236643,159.96352704401642L390.1143161557515,147.5208520393974L391.06581448783874,127.97892678650828L392.0173128199259,143.492178840161L392.96881115201313,127.82577166902207L393.9203094841003,109.38840711155287L394.8718078161875,103.99641053681712L395.82330614827475,101.52599782452369L396.77480448036187,106.74897626715256L397.7263028124491,110.37402833379717L398.6778011445363,122.12146960067315L399.6292994766235,135.77856343607658L400.5807978087107,134.27622925082372L401.53229614079794,150.57048045628832L402.4837944728851,138.88786365106827L403.4352928049723,130.9865545653896L404.3867911370595,112.32771138864796L405.3382894691467,110.11721288805096L406.2897878012339,124.2450163610188L407.2412861333211,104.97348097208568L408.1927844654083,101.01439823163957L409.1442827974955,67.81344395567261L410.09578112958275,71.0596199975372L411.04727946166986,79.97718336457307L411.9987777937571,87.95458502741917L412.9502761258443,114.7482715140001L413.9017744579315,99.0615799095871L414.8532727900187,101.59751484405201L415.80477112210593,92.09131628153344L416.7562694541931,81.57956478115476L417.7077677862803,68.31615358131819L418.65926611836744,31.74442700333143L419.61076445045467,34.61236356917074L420.5622627825419,42.24892578256874L421.51376111462906,65.52751420971128L422.4652594467163,59.092121021243535L423.4167577788035,63.82409709576344L424.3682561108906,88.43580441555811L425.31975444297785,66.82271266473374L426.2712527750651,74.76985774953617L427.22275110715225,107.20868963025782L428.1742494392395,83.86279044880817L429.1257477713267,77.03599998295333L430.07724610341387,80.91149717369898L431.0287444355011,87.84116910399811L431.9802427675883,88.25744733629061L432.93174109967543,111.57467238548426L433.88323943176266,85.27273792569429L434.8347377638499,79.28181185378948L435.78623609593706,81.55024387583661L436.7377344280243,88.14798149855358L437.6892327601115,107.87864977108632L438.6407310921987,86.6046025262049L439.59222942428585,78.15709118012623L440.543727756373,71.98248244287514L441.49522608846024,70.66810126450558L442.44672442054747,95.9696993324133L443.39822275263464,98.6366836056105L444.34972108472186,108.06056235466555L445.3012194168091,107.2638404243808L446.2527177488962,77.09241183100023L447.20421608098343,81.31138135063878L448.15571441307065,82.321023707608L449.1072127451578,87.95083048939078L450.05871107724505,111.68392498373834L451.0102094093323,88.59218065041243L451.96170774141945,70.09631833792791L452.9132060735067,62.76420826870021L453.86470440559384,95.43382696502555L454.816202737681,78.46153985541554L455.76770106976824,72.42940423436761L456.71919940185546,72.15077474868004L457.67069773394263,103.71588440400414L458.62219606602986,66.20237160211525L459.5736943981171,58.290934737952234L460.5251927302042,79.68928675728125L461.4766910622914,67.8088646510852L462.42818939437865,79.9983044476134L463.3796877264658,74.67481089204362L464.33118605855304,85.34310675744564L465.2826843906402,107.01988693399947L466.23418272272744,97.31710192541L467.18568105481467,91.20756529185138L468.1371793869018,87.6873722757851L469.088677718989,103.43750027071604L470.04017605107623,84.03350706377363L470.9916743831634,86.394323460315L471.9431727152506,110.56323132817766L472.89467104733785,90.8268322087469L473.846169379425,66.76939843519074L474.7976677115122,98.1388927158957L475.7491660435994,95.96310810467551L476.7006643756866,120.18238811895469L477.6521627077738,107.42813329516727L478.60366103986104,94.2970453829001L479.5551593719482,97.0813221789621L480.50665770403543,106.0164950232201L481.45815603612266,124.76208350664585L482.4096543682098,104.83453475924752L483.361152700297,111.51433212089901L484.3126510323842,128.6489071354009L485.2641493644714,105.82092496007705L486.2156476965586,88.31306847450402L487.16714602864585,111.06599257378353L488.118644360733,90.06759797147227L489.0701426928202,86.80960931384021L490.02164102490735,103.24046739283366L490.9731393569946,89.83685370233101L491.9246376890818,75.17768660188966L492.876136021169,90.20577057096571L493.8276343532562,100.38193452818624L494.7791326853434,119.34803184669434L495.73063101743054,157.73168787139997L496.68212934951777,126.17909768822699L497.633627681605,139.5987081079457L498.58512601369216,126.08597091603255L499.5366243457794,104.51029535444442L500.4881226778666,104.26551436004092L501.4396210099538,106.04367233383155L502.391119342041,129.7358019315018L503.34261767412823,123.09238374134411L504.29411600621535,131.21203221084565L505.2456143383026,105.5926003225544L506.1971126703898,104.37569796416429L507.14861100247697,101.59974133755787L508.1001093345642,99.22771143072626L509.0516076666514,140.33292903501044L510.0031059987386,131.64312148399702L510.95460433082576,139.01674415009407L511.90610266291293,143.49813972246267L512.8576009950002,152.93491012075157L513.8090993270874,126.63279436521059L514.7605976591746,120.25034366486769L515.7120959912618,135.18625854738738L516.663594323349,103.53465200882707L517.6150926554361,101.00435269257746L518.5665909875233,100.75436405136423L519.5180893196106,120.06922894456407L520.4695876516978,122.30975748734383L521.4210859837849,126.83274721632343L522.3725843158721,123.90947842617314L523.3240826479594,126.82375671446405L524.2755809800466,134.27936751068154L525.2270793121338,134.18889260323007L526.1785776442209,154.00118673024926L527.1300759763081,170.1532711427748L528.0815743083954,167.66700065067437L529.0330726404825,157.81927409358033L529.9845709725697,128.18663372977286L530.9360693046569,116.28714590805893L531.8875676367442,131.2381972937897L532.8390659688314,122.07021097129059L533.7905643009186,105.02700108204684L534.7420626330057,105.24740715505266L535.693560965093,96.5671776992958L536.6450592971801,129.1718453247167L537.5965576292673,147.30808695687605L538.5480559613545,139.831858898876L539.4995542934417,140.64177821112807L540.451052625529,141.63693153367035L541.4025509576162,153.08968816698552L542.3540492897033,133.60871830994603L543.3055476217905,135.92253068962262L544.2570459538778,124.72994491860574L545.2085442859649,119.48474676104816L546.1600426180521,134.54696443546925L547.1115409501393,159.09386382130526L548.0630392822266,155.23088778768212L549.0145376143138,145.886551177524L549.9660359464009,122.91589370797121L550.9175342784881,108.46063227412279L551.8690326105753,122.20683682225425L552.8205309426626,164.24558094742335L553.7720292747497,157.56544278604693L554.7235276068369,163.38822648322673L555.6750259389241,145.04279562514975L556.6265242710112,136.91835335994176L557.5780226030985,142.23617232299173L558.5295209351857,127.37418924125302L559.4810192672729,141.14741697577472L560.4325175993602,129.5257005540942L561.3840159314473,133.42635188249264L562.3355142635345,118.52097185711055L563.2870125956217,143.43838730015645L564.2385109277088,143.30313535775934L565.190009259796,171.6267779125777L566.1415075918833,188.14119072343942L567.0930059239705,206.70902126672263L568.0445042560577,206.26583152823193L568.996002588145,209.5040701860495L569.9475009202321,207.7362841713378L570.8989992523193,209.32462777249995L571.8504975844065,179.79576041586023L572.8019959164938,161.95947695714634L573.7534942485809,183.05067286341952L574.7049925806681,197.3019293351114L575.6564909127553,209.3013695111812L576.6079892448425,206.74996454020064L577.5594875769298,215.80028832412833L578.510985909017,218.94934002495387L579.462484241104,221.27990696477494L580.4139825731912,196.09532380575936L581.3654809052784,185.47148585993997L582.3169792373657,198.40132384273477L583.2684775694529,215.8722025948788L584.2199759015401,212.38105128595507L585.1714742336272,186.58135025445995L586.1229725657145,191.09074788444406L587.0744708978017,207.4099486729436L588.0259692298889,204.30888783018625L588.9774675619761,204.00915121872418L589.9289658940634,216.04316275279652L590.8804642261505,226.0296375360878L591.8319625582377,220.603434408974L592.7834608903248,208.04069234891534L593.734959222412,195.7684426318352L594.6864575544993,199.62877473291667L595.6379558865864,194.35575024786604L596.5894542186736,221.35542206754133L597.5409525507608,222.79203600756423L598.4924508828481,198.78201903030353L599.4439492149353,205.72496222417107L600.3954475470225,220.50468082285715L601.3469458791096,198.89290799032295L602.2984442111969,210.3550426952331L603.2499425432841,221.597149954863L604.2014408753713,224.6865876686745L605.1529392074585,216.79669310064773L606.1044375395458,229.75056093587844L607.0559358716328,214.00430668323966L608.00743420372,203.75723719434254L608.9589325358072,199.56684789103315L609.9104308678944,213.0858399576494L610.8619291999817,199.1164271517783L611.8134275320689,190.3733612588198L612.764925864156,205.5625396416425L613.7164241962432,200.5255745615491L614.6679225283305,221.88165678531223L615.6194208604177,224.20303991264413L616.5709191925049,197.39835109284343L617.5224175245921,207.07644893064457L618.4739158566792,241.88265720287845L619.4254141887665,260.5910219350991L620.3769125208537,256.76496853635507L621.3284108529408,258.78989970281L622.279909185028,252.89324758872465L623.2314075171151,242.4128922598051L624.1829058492024,238.72908687164502L625.1344041812896,248.1644227992926L626.0859025133768,238.53016910333847L627.037400845464,261.27472539017066L627.9888991775513,239.6561738937545L628.9403975096384,249.31821865488604L629.8918958417256,251.76508703824874L630.8433941738128,234.5552867902513L631.7948925059001,246.3835178699079L632.7463908379873,244.67038761887784L633.6978891700745,258.7947726198974L634.6493875021615,235.50443261127384L635.6008858342487,255.58360466675825L636.552384166336,247.28865919174967L637.5038824984232,255.5768894209439L638.4553808305104,260.63224874718657L639.4068791625976,247.9364548829291L640.3583774946848,265.1712090570682L641.309875826772,268.97641893289904L642.2613741588592,261.4858104536723L643.2128724909464,270.502751731845L644.1643708230337,268.1816229450189L645.1158691551208,267.95416001523546L646.067367487208,269.44709688457283L647.0188658192952,278.7654276091529L647.9703641513825,282.00161866405136L648.9218624834697,279.97572122448065L649.8733608155569,264.7414778103907L650.8248591476439,262.63548844109454L651.7763574797311,258.97807903332307L652.7278558118184,254.83231523714684L653.6793541439056,247.48688505762863L654.6308524759928,262.8855922302314L655.58235080808,278.9261981633276L656.5338491401671,276.3956360801158L657.4853474722544,268.94553955161444L658.4368458043416,279.38589565959785L659.3883441364288,289.4041191350111L660.339842468516,278.6662087429626L661.2913408006033,259.7082758638813L662.2428391326904,260.29070375089697L663.1943374647776,279.81761930766834L664.1458357968647,297.511561880046L665.097334128952,279.49592675770253L666.0488324610392,260.3495257261894L667.0003307931263,255.9160390327511L667.9518291252135,259.9878387653986L668.9033274573007,257.9494884325946L669.854825789388,259.3089539453459L670.8063241214752,256.04510364102657L671.7578224535624,270.60829631507295L672.7093207856495,266.36442577798545L673.6608191177368,273.4162239653919L674.612317449824,286.2427494752493L675.5638157819112,287.2271339191865L676.5153141139984,282.4845390610163L677.4668124460857,296.45024855310766L678.4183107781727,302.4765752476668L679.3698091102599,306.3411536669379L680.3213074423471,304.347944252157L681.2728057744343,286.2257919961519L682.2243041065216,297.5585291393927L683.1758024386088,288.64467454684825L684.1273007706959,279.71448926183683L685.0787991027831,269.9245632394407L686.0302974348704,278.5696781256406L686.9817957669576,294.28578207284954L687.9332940990448,301.98899886599537L688.884792431132,305.8438292920287L689.8362907632192,318.1738773009838L690.7877890953064,312.03475957070157L691.7392874273936,310.96358271965767L692.6907857594807,297.9261668582979L693.642284091568,289.86552439571636L694.5937824236551,299.660812802911L695.5452807557423,302.28450618884943L696.4967790878295,313.34678819678334L697.4482774199167,315.17199250691266L698.399775752004,322.2043287149361L699.3512740840912,317.1875019965186L700.3027724161783,315.03909994076395L701.2542707482655,307.026437010096L702.2057690803528,296.2176549358851L703.15726741244,307.7153969382036L704.1087657445272,303.8032879196785L705.0602640766144,299.1150392829474L706.0117624087014,289.5923249797212L706.9632607407887,280.9296598805651L707.9147590728759,288.89331406319L708.8662574049631,295.281503039254L709.8177557370503,303.5678441430663L710.7692540691376,309.4129971686583L711.7207524012247,312.8673886045966L712.6722507333119,311.28315184482744L713.6237490653991,309.0216270601049L714.5752473974864,306.6524937996217L715.5267457295736,304.40612858034564L716.4782440616607,301.5590583491931L717.4297423937479,293.74241302140035L718.3812407258351,281.4086486693727L719.3327390579224,287.28525692426933L720.2842373900096,295.8760024280375L721.2357357220968,300.6370361979937L722.1872340541838,309.28366765446896L723.138732386271,310.27035562141947L724.0902307183583,314.04728095328545L725.0417290504455,317.99456852926795L725.9932273825327,322.0341112319683L726.94472571462,323.32871046216195L727.8962240467071,323.1090522473136L728.8477223787943,303.8578384933597L729.7992207108815,301.302624320461L730.7507190429687,311.18842553346644L731.702217375056,313.5802755886008L732.6537157071432,323.551637504909L733.6052140392303,321.512005907444L734.5567123713175,314.30965808157447L735.5082107034046,306.79753582718627L736.4597090354919,299.0537194626481L737.4112073675791,299.43922974814086L738.3627056996662,300.1763084263989L739.3142040317534,298.00912244606707L740.2657023638407,298.5990563251182L741.2172006959279,298.76244384045344L742.1686990280151,296.4693939701069L743.1201973601023,303.19927944450745L744.0716956921895,293.3326379762002L745.0231940242767,280.2376102879733L745.9746923563639,284.8543128441572L746.9261906884511,271.0287626854761L747.8776890205384,279.47701725495733L748.8291873526256,300.45195007910183L749.7806856847126,298.7770989039691L750.7321840167998,304.97141018262374L751.683682348887,306.9520193671537L752.6351806809743,313.17933772867616L753.5866790130615,308.95303835294715L754.5381773451487,299.50257040933417L755.4896756772358,300.3581758057607L756.441174009323,290.1075158520155L757.3926723414103,283.4955781819944L758.3441706734975,286.8197902786589L759.2956690055847,286.98462600496384L760.247167337672,287.7195208369656L761.1986656697591,303.551782987052L762.1501640018463,306.9772650517922L763.1016623339335,313.7744287355259L764.0531606660206,296.0810582132682L765.0046589981079,279.06508845576224L765.956157330195,292.4749706965131L766.9076556622822,299.4440201238356L767.8591539943694,284.2898648775747L768.8106523264566,287.59804459669294L769.7621506585439,291.72563647873756L770.7136489906311,283.4864818776317L771.6651473227182,287.15299060597596L772.6166456548054,293.49201421863677L773.5681439868927,299.5822123479485L774.5196423189799,283.6619847487254L775.4711406510671,269.8888149035968L776.4226389831543,280.2441258872614L777.3741373152413,282.3209649182145L778.3256356473286,282.51611837303494L779.2771339794158,284.82269161539625L780.228632311503,291.3995445481841L781.1801306435902,290.2421541588616L782.1316289756775,298.9657822600764L783.0831273077646,303.315574877565L784.0346256398518,295.0189584109602L784.986123971939,291.34733494329333L785.9376223040263,302.1597908506112L786.8891206361135,303.6524076782409L787.8406189682006,307.0909038863441L788.7921173002878,313.5816540030217L789.743615632375,315.3405428412335L790.6951139644623,304.83989576252026L791.6466122965495,304.10771373398444L792.5981106286367,303.3761669342146L793.5496089607237,314.5869593718577L794.501107292811,313.9626347280452L795.4526056248982,316.159843895944L796.4041039569854,320.47901469398124L797.3556022890726,317.19023996238104L798.3071006211599,306.2766978052613L799.258598953247,311.54539370860914L800.2100972853342,305.87306398485276L801.1615956174214,310.2159460551837L802.1130939495087,294.0867939149942L803.0645922815959,275.8261763152482L804.0160906136831,282.9654266223121L804.9675889457702,268.1809066215043L805.9190872778574,263.669045471641L806.8705856099446,278.3434671141864L807.8220839420318,286.86577365826867L808.773582274119,306.6880414782724L809.7250806062061,314.3167328907151L810.6765789382933,313.76645346150616L811.6280772703806,320.31368157691844L812.5795756024678,304.0622448430784L813.531073934555,290.3625653949414L814.4825722666423,288.4023013436033L815.4340705987294,277.79665563652645L816.3855689308166,281.9269160864344L817.3370672629038,276.84579637254797L818.288565594991,261.33477544891L819.2400639270783,257.11707773033413L820.1915622591655,265.1352539512268L821.1430605912525,264.72404115383614L822.0945589233397,285.82582043246003L823.046057255427,297.4307505488171L823.9975555875142,300.30900648350035L824.9490539196014,299.39655664929785L825.9005522516886,298.5479705824962L826.8520505837757,287.94514128493876L827.803548915863,294.33218199148894L828.7550472479502,279.9860052260614L829.7065455800374,274.4871950811135L830.6580439121246,292.8223013561798L831.6095422442119,287.6689418180748L832.561040576299,280.6196640569919L833.5125389083862,271.9555840580851L834.4640372404734,263.0325702251845L835.4155355725605,279.7172695058412L836.3670339046478,281.8712059598457L837.3185322367349,281.1042551783683L838.2700305688221,285.81452289951517L839.2215289009093,278.6002898464387L840.1730272329966,273.3205693934279L841.1245255650838,279.12042083178403L842.076023897171,268.7942987502426L843.0275222292581,254.85619132031735L843.9790205613454,258.01148348013726L844.9305188934326,281.48034524477504L845.8820172255198,291.19736209753296L846.833515557607,296.45136958937053L847.7850138896943,292.7912892374303L848.7365122217813,274.3414299601123L849.6880105538685,288.93032679960515L850.6395088859557,284.81543983681144L851.5910072180429,280.26288364760245L852.5425055501302,269.76676917368036L853.4940038822174,276.70348981712084L854.4455022143045,278.8449386294227L855.3970005463917,274.4671819515617L856.348498878479,260.5165878500324L857.2999972105662,263.22367606487234L858.2514955426534,279.2017057048275L859.2029938747405,289.1395617361365L860.1544922068277,296.09769925519606L861.105990538915,288.78998686908324L862.0574888710022,272.77979440355284L863.0089872030894,281.4872116576719L863.9604855351766,292.1977587881301L864.9119838672636,293.95800978829607L865.8634821993509,286.1393401786633L866.8149805314381,287.78391065646906L867.7664788635253,287.7328188421314L868.7179771956125,307.0655416157319L869.6694755276998,288.1779347086294L870.6209738597869,282.27611585776896L871.5724721918741,264.1071240605526L872.5239705239613,255.20390909621992L873.4754688560486,268.57934624920887L874.4269671881358,259.05676136839685L875.378465520223,276.2403917807773L876.3299638523101,256.9791428886461L877.2814621843974,263.44217485576746L878.2329605164845,264.97716276815703L879.1844588485717,260.45781337111794L880.1359571806589,277.6443292101035L881.087455512746,284.5528307029784L882.0389538448333,287.4762434789306L882.9904521769205,293.15540822080305L883.9419505090077,303.0679510028435L884.8934488410949,297.84084891530404L885.8449471731822,286.5417350889233L886.7964455052693,274.16864438176447L887.7479438373565,271.31371907035026L888.6994421694437,263.20617351733955L889.650940501531,263.15842245688754L890.6024388336182,271.5311390641966L891.5539371657054,285.1192528125717L892.5054354977924,287.9016204497155L893.4569338298796,272.14292006328134L894.4084321619669,282.19476110940974L895.3599304940541,277.2889470931607L896.3114288261413,265.28850031603366L897.2629271582285,256.135682070066L898.2144254903156,253.65862939921482L899.1659238224029,254.59962299478897L900.1174221544901,262.73546875394686L901.0689204865773,273.48223340022287L902.0204188186646,279.6998754848531L902.9719171507518,299.5975397614277L903.9234154828389,291.2353852933566L904.8749138149261,278.38600468870527L905.8264121470133,277.80332015452683L906.7779104791005,282.02159356753526L907.7294088111877,288.8678684903874L908.6809071432748,269.66523883063064L909.632405475362,279.7305405044605L910.5839038074492,288.5924003181959L911.5354021395365,286.6105622898788L912.4869004716237,293.798495406943L913.4383988037109,303.5927057626666L914.389897135798,314.7987988258614L915.3413954678853,300.25963850868806L916.2928937999725,290.52742049453553L917.2443921320597,283.949947686344L918.1958904641469,285.8956537272217L919.1473887962342,294.09402772980184L920.0988871283212,275.4478097458539L921.0503854604084,272.607688370362L922.0018837924956,260.00930412663683L922.9533821245828,256.6194170314335L923.9048804566701,266.78483326335027L924.8563787887573,277.1269436375179L925.8078771208444,270.2933015071594L926.7593754529316,263.4655554816233L927.7108737850189,284.4363841564474L928.6623721171061,278.68688316913773L929.6138704491933,290.17206508049105L930.5653687812804,301.91295339112946L931.5168671133677,281.58206965796927L932.4683654454549,276.97011455258814L933.4198637775421,284.17720967894013L934.3713621096293,280.9753532783787L935.3228604417166,290.7144633698629L936.2743587738036,295.958605077731L937.2258571058908,298.94438275074725L938.177355437978,283.2813869250726L939.1288537700652,284.00155101097096L940.0803521021525,278.1365364674855L941.0318504342397,279.26218917746763L941.9833487663268,281.13159567492096L942.934847098414,286.64620563342453L943.8863454305013,282.63093569320836L944.8378437625885,277.3724766266348L945.7893420946757,276.70679891605585L946.7408404267629,284.62290662235006L947.69233875885,291.650524009909L948.6438370909373,300.6788054319572L949.5953354230244,287.8249360666907L950.5468337551116,278.0416548875944L951.4983320871988,274.48262188451764L952.449830419286,291.7390986538158L953.4013287513732,302.14570255270087L954.3528270834604,305.19021989459947L955.3043254155476,302.3432164421126L956.2558237476348,278.40542769934217L957.2073220797221,256.5049965652351L958.1588204118092,255.0512683615775L959.1103187438964,244.28057288650373L960.0618170759836,246.58879959858353L961.0133154080709,235.56188472192343L961.9648137401581,252.2799180303731L962.9163120722453,256.1580865592641L963.8678104043323,262.857186330478L964.8193087364195,268.41838480704934L965.7708070685068,291.48337533156683L966.722305400594,291.2699023852792L967.6738037326812,289.18351481634363L968.6253020647684,287.5448329090032L969.5768003968556,270.31340919891414L970.5282987289428,275.25513859782006L971.47979706103,273.19883091457274L972.4312953931172,278.3230549110361L973.3827937252045,282.1940356704526L974.3342920572917,299.6528110558045L975.2857903893788,309.45138106920365L976.237288721466,302.2858411490392L977.1887870535533,307.6601979448843L978.1402853856404,309.2390493289741L979.0917837177276,296.5619491177958L980.0432820498147,277.7960899829109L980.9947803819019,269.6130635860323L981.9462787139892,264.67713573368445L982.8977770460764,270.5681030135619L983.8492753781636,281.06218360716304L984.8007737102508,293.39846555175814L985.752272042338,294.60222018433655L986.7037703744252,286.39608945621274L987.6552687065124,291.32215956746677L988.6067670385996,305.24876316201465L989.5582653706869,278.00976527126005L990.5097637027741,277.5515268394432L991.4612620348611,276.6156430605194L992.4127603669483,274.5625531407469L993.3642586990355,293.5049411350901L994.3157570311228,286.53370450714846L995.26725536321,272.2704082175898L996.2187536952972,271.7454087922545L997.1702520273843,279.38413615060233L998.1217503594715,282.39580340715554L999.0732486915588,291.59512745686175L1000.024747023646,299.10437008084983L1000.9762453557332,301.8153843123247L1001.9277436878203,297.88908971936155L1002.8792420199076,287.84621280927973L1003.8307403519948,291.61629282782724L1004.782238684082,304.45076619096903L1005.7337370161692,303.54527947952573L1006.6852353482565,309.0783853429556L1007.6367336803435,298.0376910070142L1008.5882320124307,300.515733019956L1009.5397303445179,300.2500579999568L1010.4912286766051,280.0018624212387L1011.4427270086924,264.9351232626122L1012.3942253407796,289.1037296740741L1013.3457236728667,281.58912484118986L1014.2972220049539,287.15047643653304L1015.2487203370412,288.5502098918149L1016.2002186691284,296.5338456446077L1017.1517170012156,293.8951341106794L1018.1032153333028,293.32607587559L1019.05471366539,302.4241814609846L1020.0062119974772,308.97539491313245L1020.9577103295643,311.87641428381363L1021.9092086616515,313.54696739700836L1022.8607069937387,292.9289455397618L1023.8122053258259,290.11167047411703L1024.763703657913,303.86574381941193L1025.7152019900004,292.53868628450715L1026.6667003220875,292.68867152355364L1027.6181986541749,299.0463616127493L1028.569696986262,292.41263600246083L1029.521195318349,283.0556052083709L1030.4726936504362,285.6614887123103L1031.4241919825236,298.76723489770075L1032.3756903146107,302.6354895655307L1033.327188646698,256.342777729617L1034.2786869787851,277.25228038096424L1035.2301853108722,263.75501619679346L1036.1816836429596,270.49982641630066L1037.1331819750467,283.40151604081905L1038.084680307134,299.10269130822803L1039.0361786392211,258.16237170566416L1039.9876769713085,269.7367961180568L1040.9391753033956,287.3551593084812L1041.8906736354827,290.9952356097489L1042.8421719675698,289.3925430256725L1043.7936702996572,290.8516733024477L1044.7451686317443,279.92156317557783L1045.6966669638316,278.71158676961926L1046.6481652959187,270.09272463216735" fill="none"></path></g></g></g></g><g opacity="0.2"><g><g><g><path style="fill: none;" stroke="rgb(255, 112, 67)" stroke-width="2px" d="M96.10133154080708,222.02454368135284L97.05282987289429,352.0801753119563L98.00432820498148,346.10139071493535L98.95582653706869,335.3563872700821L99.90732486915587,325.8666652882249L100.85882320124307,316.865237348797L101.81032153333028,311.90875556640185L102.76181986541746,305.56975236632906L103.71331819750468,295.7700717973302L104.66481652959186,288.43166055727767L105.61631486167907,283.2038520024762L106.56781319376627,282.6432168318247L107.51931152585347,281.64772434698597L108.47080985794067,276.5842444088985L109.42230819002788,276.7404301673097L110.37380652211506,273.50143058100065L111.32530485420227,271.9274210590384L112.27680318628946,275.47199605531694L113.22830151837667,274.5890071962176L114.17979985046387,271.106688279689L115.13129818255105,277.9112123292731L116.08279651463826,275.02752443216883L117.03429484672544,279.17121677478394L117.98579317881266,279.78639537915126L118.93729151089985,285.19496790632235L119.88878984298705,285.3494328156589L120.84028817507425,291.03204432301715L121.79178650716146,295.9135818812165L122.74328483924864,296.1292304571115L123.69478317133586,295.3161292693108L124.64628150342304,296.4186386147232L125.59777983551025,295.8211797678571L126.54927816759745,297.1506167325563L127.50077649968465,295.47478407204665L128.45227483177186,288.3862887503333L129.40377316385903,297.60665420727537L130.35527149594623,297.818667801248L131.30676982803345,299.12164982890374L132.25826816012062,298.97896899475273L133.20976649220785,292.6873951385615L134.16126482429502,306.3937397950154L135.11276315638224,302.14208287784334L136.06426148846944,297.5372466279287L137.01575982055664,298.46990318169884L137.96725815264384,294.69460971020084L138.91875648473103,299.377732123094L139.87025481681823,293.1722817751237L140.82175314890543,292.5639491572927L141.77325148099263,299.3633667742964L142.72474981307982,296.762939363834L143.67624814516702,295.36450009221517L144.62774647725425,292.4924653361277L145.57924480934142,295.8769826635768L146.53074314142862,297.6652690701426L147.48224147351584,285.6817624407717L148.433739805603,291.4440380373603L149.3852381376902,293.4033057634035L150.3367364697774,280.573409492573L151.28823480186463,285.0237995380324L152.2397331339518,299.12673755660285L153.191231466039,292.7841056095682L154.14272979812623,296.7540981899646L155.09422813021342,290.34087402110436L156.0457264623006,300.3590463079476L156.99722479438782,292.8351761703325L157.94872312647502,297.87261891372435L158.90022145856219,304.2551047277357L159.8517197906494,303.7334380596818L160.8032181227366,294.24207004827485L161.7547164548238,301.3728571064874L162.70621478691098,307.62812478817847L163.6577131189982,300.57223830943883L164.6092114510854,294.15458731868335L165.5607097831726,295.67193975534883L166.5122081152598,302.24972946941904L167.463706447347,293.8435937281128L168.4152047794342,292.3729598498415L169.36670311152142,290.71432944511855L170.3182014436086,291.5724782219221L171.26969977569578,290.79385636521977L172.221198107783,299.09226446046495L173.17269643987018,292.9346861385657L174.12419477195738,296.62371269775326L175.07569310404457,293.7620092710744L176.0271914361318,297.34043386744935L176.97868976821897,292.8965842954659L177.93018810030617,292.4590397133395L178.8816864323934,284.8502182400616L179.8331847644806,303.3492397988715L180.78468309656776,292.62659180458843L181.736181428655,292.6116216646305L182.68767976074218,294.2213949195367L183.63917809282938,288.0689230302179L184.59067642491655,301.173163794296L185.54217475700378,282.9583940808342L186.49367308909098,285.895316069967L187.44517142117815,295.3560018411687L188.39666975326537,305.0912316243512L189.34816808535257,289.53212483567376L190.29966641743977,290.39050430601264L191.25116474952696,288.9225452257597L192.20266308161416,277.1706923156706L193.15416141370136,296.95458334212884L194.10565974578859,300.33352038000606L195.05715807787575,278.0802670459821L196.00865640996295,298.53192856791344L196.96015474205015,287.4778300779361L197.91165307413738,287.5213064569142L198.86315140622455,280.989586865355L199.81464973831174,303.66495948943714L200.76614807039897,286.00608637671087L201.71764640248614,295.7982288785672L202.66914473457334,287.4154305940966L203.62064306666056,296.9462409650928L204.57214139874776,293.4697330316715L205.52363973083493,287.1501267934517L206.47513806292216,298.6420192639719L207.42663639500935,294.24710789629074L208.37813472709655,273.63724048877356L209.32963305918372,299.91435022622454L210.28113139127095,289.89833523568507L211.23262972335814,299.6883516160396L212.1841280554453,306.14262676427643L213.13562638753254,275.4179701233156L214.08712471961974,296.5731721086243L215.03862305170694,284.80561333324835L215.99012138379416,265.2716756348918L216.94161971588133,284.76658871600694L217.89311804796853,290.2081005390537L218.84461638005575,292.8426456529104L219.79611471214292,277.74481370570106L220.74761304423012,279.96729028568956L221.69911137631732,289.1279809364938L222.65060970840455,268.74811498374845L223.60210804049171,278.4603751727598L224.5536063725789,292.62620523704265L225.50510470466614,264.2297638697588L226.45660303675334,293.1287617514227L227.4081013688405,293.3463930447298L228.35959970092773,285.82653822162234L229.31109803301493,284.0206505218033L230.2625963651021,283.63935151758625L231.21409469718932,288.6019809709511L232.16559302927652,279.9895802691754L233.11709136136372,289.6910976213907L234.0685896934509,266.5427970148237L235.02008802553812,288.1826611781196L235.9715863576253,280.996426616931L236.9230846897125,280.87548085478886L237.8745830217997,276.0782212565274L238.8260813538869,266.5655047406574L239.7775796859741,275.2042356802682L240.72907801806133,259.39243218090616L241.6805763501485,272.875297151183L242.6320746822357,283.4745552788411L243.58357301432292,281.32566993663806L244.5350713464101,262.84799688229134L245.4865696784973,276.9112306729351L246.4380680105845,287.08129906542365L247.3895663426717,239.8468662813745L248.34106467475888,284.8344999048539L249.29256300684608,273.3744805519782L250.2440613389333,258.4942611931948L251.1955596710205,237.49507662236613L252.14705800310767,271.2837860953342L253.0985563351949,267.6188389532718L254.0500546672821,270.3842558862522L255.0015529993693,254.62627880015822L255.95305133145646,250.87456594895207L256.9045496635437,271.5299922122261L257.8560479956309,250.05537943978572L258.80754632771806,257.9666339029836L259.7590446598053,274.10205055279744L260.71054299189245,231.76235473814748L261.6620413239797,236.56802529800962L262.6135396560669,270.3829216047233L263.5650379881541,270.66025264401L264.51653632024124,234.99205176351649L265.46803465232847,254.32721268886274L266.4195329844157,259.1979762354639L267.37103131650287,270.1645234112851L268.32252964859003,227.84824610795616L269.27402798067726,225.92038387752643L270.2255263127645,239.6893587113552L271.17702464485166,251.14727064761033L272.1285229769389,220.25672041487118L273.08002130902605,251.75570302480799L274.0315196411133,232.26128874052603L274.98301797320045,247.85831655845135L275.9345163052877,211.84398808544526L276.88601463737484,208.7851913250683L277.83751296946207,237.69198914221212L278.78901130154924,229.77228007269073L279.74050963363646,249.41715642172232L280.69200796572363,206.40477072783142L281.64350629781086,218.73253446159018L282.595004629898,250.42168336420326L283.54650296198525,247.58631017535959L284.4980012940725,223.65135708307497L285.44949962615965,221.99249598481663L286.4009979582469,238.5713430193892L287.35249629033405,234.57373579931192L288.30399462242127,208.66929588086285L289.2554929545085,242.01427569097226L290.2069912865956,233.1373006789203L291.15848961868284,220.89966953292964L292.10998795077006,229.16939681026298L293.06148628285723,231.46553321260163L294.01298461494446,230.64397741847733L294.9644829470317,206.98441005782973L295.91598127911885,226.69325710072553L296.867479611206,178.27387632464868L297.8189779432932,219.22624356714044L298.7704762753804,243.36470576739083L299.72197460746764,193.55981702759718L300.6734729395548,211.89085004792906L301.62497127164204,237.64987821956504L302.57646960372927,182.41842909180127L303.5279679358164,234.18035967676977L304.4794662679036,219.07328751822453L305.43096459999083,225.22024770253591L306.382462932078,227.3275022140438L307.3339612641652,211.53041945622303L308.28545959625245,232.26329639777987L309.2369579283396,186.70333081790935L310.18845626042685,227.82669808475978L311.139954592514,221.00398042068298L312.0914529246012,226.8865034638472L313.0429512566884,217.70087297138048L313.99444958877564,227.89199059023215L314.9459479208628,206.33591182500132L315.89744625295003,194.41474232986582L316.84894458503726,198.55138916721137L317.80044291712437,225.3924198994528L318.7519412492116,160.079750565123L319.7034395812988,184.32335913782237L320.654937913386,181.624656281289L321.6064362454732,192.88129122540715L322.5579345775604,205.7124157834396L323.5094329096476,214.35725074929732L324.46093124173484,250.88925551569125L325.41242957382195,214.59966601025653L326.3639279059092,212.20902007793802L327.3154262379964,198.67852001008578L328.2669245700836,226.9407974991464L329.2184229021708,196.50303009178938L330.169921234258,226.17892274612043L331.1214195663452,203.26786238336763L332.07291789843237,236.10773558028706L333.0244162305196,200.28676569969014L333.97591456260676,226.89893597491596L334.927412894694,228.08258086021672L335.8789112267812,155.21368817867517L336.8304095588684,217.03925638183767L337.7819078909556,156.30226238755864L338.73340622304283,175.96494578353725L339.68490455512995,179.50952077981574L340.6364028872172,167.99959680377353L341.5879012193044,192.15172603725497L342.53939955139157,156.6259067128125L343.4908978834788,163.27920803247622L344.442396215566,214.70598455526363L345.3938945476532,192.38051167474563L346.34539287974036,164.1824542779659L347.29689121182753,218.0423866931855L348.24838954391475,156.58562886852764L349.199887876002,163.38385560809192L350.15138620808915,172.40594308885701L351.1028845401764,233.34329130113144L352.0543828722636,173.2659062391415L353.0058812043507,185.5174912265422L353.95737953643794,187.26647244264788L354.90887786852517,135.6170579533396L355.86037620061234,179.90419377412434L356.81187453269956,156.840962967468L357.7633728647868,161.0209053699396L358.71487119687396,176.26288960195794L359.6663695289612,214.06125223852632L360.6178678610484,124.19323878063706L361.5693661931355,121.50966193807199L362.52086452522275,163.35200743028898L363.47236285731,165.35460189626028L364.42386118939714,189.5207722605977L365.37535952148437,185.4279197852115L366.3268578535716,168.00139247237323L367.27835618565877,127.68848277010719L368.22985451774593,187.4939487384513L369.1813528498331,139.89473959528644L370.13285118192033,138.4797776785662L371.08434951400756,171.6563013281665L372.0358478460947,132.44670528120648L372.98734617818195,175.51816099007493L373.9388445102692,173.1740528022986L374.8903428423563,128.2729978391505L375.8418411744435,175.70271581837721L376.79333950653074,152.51614502477912L377.7448378386179,144.16022565466028L378.69633617070514,167.58360024484352L379.64783450279236,184.45606403530837L380.59933283487953,118.28516486968962L381.55083116696676,126.62746708626074L382.50232949905393,119.99863175126795L383.4538278311411,180.659958265943L384.4053261632283,117.44010327479847L385.35682449531555,185.0114992489732L386.3083228274027,118.39412703791295L387.25982115948995,170.42529568354865L388.21131949157717,132.49651014500643L389.1628178236643,182.71761990230507L390.1143161557515,128.85683953246894L391.06581448783874,98.66603890717454L392.0173128199259,166.76205692064013L392.96881115201313,104.32616091231367L393.9203094841003,81.73236027534918L394.8718078161875,95.90841567471357L395.82330614827475,97.8203787560835L396.77480448036187,114.5834439310959L397.7263028124491,115.8116064337642L398.6778011445363,139.74263150098705L399.6292994766235,156.26420418918173L400.5807978087107,132.02272797294447L401.53229614079794,175.01185726448517L402.4837944728851,121.36393844323818L403.4352928049723,119.13459093687166L404.3867911370595,84.33944662353545L405.3382894691467,106.80146513715547L406.2897878012339,145.43672157047047L407.2412861333211,76.06617788868603L408.1927844654083,95.07577412097035L409.1442827974955,18.01201254172224L410.09578112958275,75.92888406033414L411.04727946166986,93.35352841512686L411.9987777937571,99.9206875216884L412.9502761258443,154.93880124387144L413.9017744579315,75.53154250296768L414.8532727900187,105.40141724574941L415.80477112210593,77.83201843775555L416.7562694541931,65.81193753058662L417.7077677862803,48.421036781563245L418.65926611836744,-23.11316286364879L419.61076445045467,38.91426841792975L420.5622627825419,53.70376910266591L421.51376111462906,100.44539685042507L422.4652594467163,49.43903123854191L423.4167577788035,70.92206120754338L424.3682561108906,125.35336539525017L425.31975444297785,34.40307503849722L426.2712527750651,86.69057537673977L427.22275110715225,155.86693745134025L428.1742494392395,48.84394167663372L429.1257477713267,66.79581428417107L430.07724610341387,86.72474295981735L431.0287444355011,98.23567699944695L431.9802427675883,88.88186468472936L432.93174109967543,146.55050995927473L433.88323943176266,45.819836236009316L434.8347377638499,70.29542274593216L435.78623609593706,84.95289190890722L436.7377344280243,98.04458793262909L437.6892327601115,137.47465217988534L438.6407310921987,54.69353165888269L439.59222942428585,65.4858241610082L440.543727756373,62.72056933699855L441.49522608846024,68.69652949695121L442.44672442054747,133.92209643427483L443.39822275263464,102.63716001540627L444.34972108472186,122.19638047824807L445.3012194168091,106.06875752895375L446.2527177488962,31.835268940929335L447.20421608098343,87.63983563009671L448.15571441307065,83.83548724306192L449.1072127451578,96.39554066206492L450.05871107724505,147.28356672525967L451.0102094093323,53.95456415042372L451.96170774141945,42.35252486920115L452.9132060735067,51.76604316485868L453.86470440559384,144.43825500951348L454.816202737681,53.003109191000476L455.76770106976824,63.3812008027957L456.71919940185546,71.73283052014858L457.67069773394263,151.06354888699022L458.62219606602986,9.932102399281938L459.5736943981171,46.423779441707666L460.5251927302042,111.78681478627486L461.4766910622914,49.988231491791154L462.42818939437865,98.28246414240573L463.3796877264658,66.68957055868893L464.33118605855304,101.34555055554861L465.2826843906402,139.53505719883032L466.23418272272744,82.76292441252576L467.18568105481467,82.04326034151354L468.1371793869018,82.40708275168564L469.088677718989,127.0626922631125L470.04017605107623,54.92751725335997L470.9916743831634,89.93554805512706L471.9431727152506,146.8165931299716L472.89467104733785,61.22223352960068L473.846169379425,30.683247774856543L474.7976677115122,145.19313413695312L475.7491660435994,92.69943118784529L476.7006643756866,156.5113081403735L477.6521627077738,88.29675105948616L478.60366103986104,74.60041351449937L479.5551593719482,101.25773737305505L480.50665770403543,119.41925428960712L481.45815603612266,152.8804662317845L482.4096543682098,74.94321163815L483.361152700297,121.53402816337623L484.3126510323842,154.35076965715373L485.2641493644714,71.57895169709113L486.2156476965586,62.051283746144506L487.16714602864585,145.19537872270274L488.118644360733,58.57000606800532L489.0701426928202,81.92262632739214L490.02164102490735,127.88675451132383L490.9731393569946,69.73143316657703L491.9246376890818,53.18893595122756L492.876136021169,112.7478965245798L493.8276343532562,115.64618046401704L494.7791326853434,147.79717782445658L495.73063101743054,215.30717190845826L496.68212934951777,78.85021241346753L497.633627681605,159.72812373752382L498.58512601369216,105.81686512816282L499.5366243457794,72.14678201206225L500.4881226778666,103.89834286843566L501.4396210099538,108.71090929451745L502.391119342041,165.2739963280072L503.34261767412823,113.1272564561076L504.29411600621535,143.39150491509798L505.2456143383026,67.16345249011756L506.1971126703898,102.5503444265792L507.14861100247697,97.43580639764821L508.1001093345642,95.66966657047877L509.0516076666514,201.99075544143673L510.0031059987386,118.60841015747687L510.95460433082576,150.07717814923956L511.90610266291293,150.2202330810155L512.8576009950002,167.09006571818492L513.8090993270874,87.17962073189915L514.7605976591746,110.67666761435332L515.7120959912618,157.5901308711669L516.663594323349,56.05724220098654L517.6150926554361,97.20890371820308L518.5665909875233,100.37938108954454L519.5180893196106,149.04152628436384L520.4695876516978,125.67055030151343L521.4210859837849,133.61723180979283L522.3725843158721,119.52457524094773L523.3240826479594,131.19517414690043L524.2755809800466,145.46278370500778L525.2270793121338,134.05318024205278L526.1785776442209,183.7196279207781L527.1300759763081,194.3813977615631L528.0815743083954,163.93759491252374L529.0330726404825,143.04768425793915L529.9845709725697,83.73767318406172L530.9360693046569,98.43791417548792L531.8875676367442,153.66477437238584L532.8390659688314,108.31823148754188L533.7905643009186,79.46218624818121L534.7420626330057,105.57801626456137L535.693560965093,83.5468335156605L536.6450592971801,178.0788467628482L537.5965576292673,174.512449405115L538.5480559613545,128.61751681187584L539.4995542934417,141.85665717950627L540.451052625529,143.1296615174837L541.4025509576162,170.26882311695834L542.3540492897033,104.38726352438675L543.3055476217905,139.3932492591375L544.2570459538778,107.94106626208034L545.2085442859649,111.61694952471177L546.1600426180521,157.14029094710097L547.1115409501393,195.9142129000593L548.0630392822266,149.4364237372474L549.0145376143138,131.87004626228685L549.9660359464009,88.45990750364206L550.9175342784881,86.77774012335013L551.8690326105753,142.82614364445143L552.8205309426626,227.30369713517695L553.7720292747497,147.5452355439823L554.7235276068369,172.12240202899642L555.6750259389241,117.52464933803428L556.6265242710112,124.73168996212976L557.5780226030985,150.2129007675667L558.5295209351857,105.08121461864496L559.4810192672729,161.80725857755723L560.4325175993602,112.0931259215733L561.3840159314473,139.27732887509035L562.3355142635345,96.16290181903742L563.2870125956217,180.81451046472534L564.2385109277088,143.10025744416365L565.190009259796,214.1122417448052L566.1415075918833,212.91280993973209L567.0930059239705,234.5607670816474L568.0445042560577,205.60104692049583L568.996002588145,214.36142817277576L569.9475009202321,205.08460514927026L570.8989992523193,211.7071431742433L571.8504975844065,135.50245938090058L572.8019959164938,135.20505176907562L573.7534942485809,214.68746672282924L574.7049925806681,218.67881404264926L575.6564909127553,227.30052977528584L576.6079892448425,202.92285708372987L577.5594875769298,229.37577400001996L578.510985909017,223.67291757619216L579.462484241104,224.77575737450655L580.4139825731912,158.31844906723603L581.3654809052784,169.53572894121086L582.3169792373657,217.79608081692692L583.2684775694529,242.0785207230948L584.2199759015401,207.14432432256947L585.1714742336272,147.88179870721734L586.1229725657145,197.8548443294202L587.0744708978017,231.8887498556929L588.0259692298889,199.65729656605026L588.9774675619761,203.55954630153104L589.9289658940634,234.09418005390512L590.8804642261505,241.0093497110247L591.8319625582377,212.4641297183034L592.7834608903248,189.19657925882723L593.734959222412,177.36006805621497L594.6864575544993,205.41927288453894L595.6379558865864,186.44621352029012L596.5894542186736,261.85492979705424L597.5409525507608,224.94695691759858L598.4924508828481,162.76699356441242L599.4439492149353,216.1393770149724L600.3954475470225,242.6742587208862L601.3469458791096,166.47524874152174L602.2984442111969,227.5482447525983L603.2499425432841,238.46031084430783L604.2014408753713,229.32074423939173L605.1529392074585,204.96185124860756L606.1044375395458,249.1813626887245L607.0559358716328,190.38492530428147L608.00743420372,188.38663296099688L608.9589325358072,193.28126393606905L609.9104308678944,233.36432805757374L610.8619291999817,178.16230794297167L611.8134275320689,177.258762419382L612.764925864156,228.3463072158765L613.7164241962432,192.97012694140892L614.6679225283305,253.91578012095698L615.6194208604177,227.68511460364198L616.5709191925049,157.19131786314236L617.5224175245921,221.5935956873462L618.4739158566792,294.09196961122933L619.4254141887665,288.6535690334299L620.3769125208537,251.02588843823912L621.3284108529408,261.82729645249225L622.279909185028,244.04826941759666L623.2314075171151,226.69235926642568L624.1829058492024,233.20337878940498L625.1344041812896,262.3174266907639L626.0859025133768,224.07878855940714L627.037400845464,295.39155982041893L627.9888991775513,207.2283466491303L628.9403975096384,263.8112857965834L629.8918958417256,255.4353896132929L630.8433941738128,208.74058641825502L631.7948925059001,264.12586448939294L632.7463908379873,242.1006922423327L633.6978891700745,279.98135012142683L634.6493875021615,200.5689225983385L635.6008858342487,285.7023627499849L636.552384166336,234.84624097923688L637.5038824984232,268.00923476473525L638.4553808305104,268.2152877365506L639.4068791625976,228.89276408654288L640.3583774946848,291.023340318277L641.309875826772,274.6842337466453L642.2613741588592,250.2498977348322L643.2128724909464,284.02816364910416L644.1643708230337,264.69992976477965L645.1158691551208,267.61296562056026L646.067367487208,271.68650218857897L647.0188658192952,292.742923696023L647.9703641513825,286.8559052463991L648.9218624834697,276.9368750651245L649.8733608155569,241.89011268925566L650.8248591476439,259.4765043871503L651.7763574797311,253.49196492166575L652.7278558118184,248.61366954288252L653.6793541439056,236.46873978835134L654.6308524759928,285.98365298913546L655.58235080808,302.987107062972L656.5338491401671,272.59979295529814L657.4853474722544,257.77039475886244L658.4368458043416,295.0464298215729L659.3883441364288,304.431454348131L660.339842468516,262.5593431548899L661.2913408006033,231.2713765452593L662.2428391326904,261.1643455814205L663.1943374647776,309.1079926428253L664.1458357968647,324.05247573861243L665.097334128952,252.47247407418732L666.0488324610392,231.62992417891977L667.0003307931263,249.26580899259363L667.9518291252135,266.0955383643698L668.9033274573007,254.89196293338853L669.854825789388,261.34815221447286L670.8063241214752,251.14932818454753L671.7578224535624,292.4530853261426L672.7093207856495,259.99861997235416L673.6608191177368,283.99392124650154L674.612317449824,305.4825377400354L675.5638157819112,288.7037105850923L676.5153141139984,275.370646773761L677.4668124460857,317.39881279124467L678.4183107781727,311.51606528950543L679.3698091102599,312.13802129584457L680.3213074423471,301.35813012998574L681.2728057744343,259.0425636121442L682.2243041065216,314.55763485425405L683.1758024386088,275.2738926580315L684.1273007706959,266.3192113343197L685.0787991027831,255.23967420584665L686.0302974348704,291.5373504549405L686.9817957669576,317.85993799366287L687.9332940990448,313.5438240557142L688.884792431132,311.6260749310786L689.8362907632192,336.6689493144164L690.7877890953064,302.82608297527827L691.7392874273936,309.35681744309176L692.6907857594807,278.37004306625835L693.642284091568,277.77456070184405L694.5937824236551,314.35374541370294L695.5452807557423,306.2200462677571L696.4967790878295,329.94021120868416L697.4482774199167,317.9097989721066L698.399775752004,332.75283302697125L699.3512740840912,309.6622619188924L700.3027724161783,311.816496857132L701.2542707482655,295.007442614094L702.2057690803528,280.0044818245687L703.15726741244,324.9620099416813L704.1087657445272,297.9351243918909L705.0602640766144,292.08266632785075L706.0117624087014,275.308253524882L706.9632607407887,267.935662231831L707.9147590728759,300.83879533712724L708.8662574049631,304.8637865033499L709.8177557370503,315.99735579878467L710.7692540691376,318.1807267070464L711.7207524012247,318.048975758504L712.6722507333119,308.9067967051737L713.6237490653991,305.6293398830211L714.5752473974864,303.09879390889694L715.5267457295736,301.0365807514315L716.4782440616607,297.28845300246434L717.4297423937479,282.01744502971127L718.3812407258351,262.9080021413312L719.3327390579224,296.1001693066143L720.2842373900096,308.7621206836898L721.2357357220968,307.7785868529282L722.1872340541838,322.25361483918186L723.138732386271,311.75038757184524L724.0902307183583,319.7126689510845L725.0417290504455,323.91549989324176L725.9932273825327,328.0934252860189L726.94472571462,325.2706093074523L727.8962240467071,322.77956492504126L728.8477223787943,274.9810178624287L729.7992207108815,297.46980306111294L730.7507190429687,326.0171273529745L731.702217375056,317.16805067130224L732.6537157071432,338.5086803793714L733.6052140392303,318.45255851124654L734.5567123713175,303.5061363427701L735.5082107034046,295.5293524456041L736.4597090354919,287.43799491584076L737.4112073675791,300.01749517638007L738.3627056996662,301.28192644378606L739.3142040317534,294.75834347556923L740.2657023638407,299.48395714369485L741.2172006959279,299.00752511345627L742.1686990280151,293.02981916458725L743.1201973601023,313.29410765610834L744.0716956921895,278.53267577373936L745.0231940242767,260.59506875563295L745.9746923563639,291.77936667843306L746.9261906884511,250.29043744745456L747.8776890205384,292.1493991091791L748.8291873526256,331.91434931531865L749.7806856847126,296.2648221412699L750.7321840167998,314.2628771006057L751.683682348887,309.92293314394857L752.6351806809743,322.5203152709599L753.5866790130615,302.61358928935357L754.5381773451487,285.32686849391473L755.4896756772358,301.6415839004005L756.441174009323,274.73152592139775L757.3926723414103,273.5776716769627L758.3441706734975,291.80610842365564L759.2956690055847,287.2318795944213L760.247167337672,288.82186308496824L761.1986656697591,327.30017621218155L762.1501640018463,312.1154881489025L763.1016623339335,323.9701742611263L764.0531606660206,269.54100242988164L765.0046589981079,253.54113381950333L765.956157330195,312.5897940576394L766.9076556622822,309.89759426481953L767.8591539943694,261.5586320081833L768.8106523264566,292.56031417537037L769.7621506585439,297.9170243018044L770.7136489906311,271.12774997597296L771.6651473227182,292.65275369849235L772.6166456548054,303.00054963762807L773.5681439868927,308.717509541916L774.5196423189799,259.78164334989066L775.4711406510671,249.22906013590398L776.4226389831543,295.77709236275825L777.3741373152413,285.43622346464423L778.3256356473286,282.80884855526557L779.2771339794158,288.2825514789382L780.228632311503,301.26482394736604L781.1801306435902,288.50606857487765L782.1316289756775,312.0512244118988L783.0831273077646,309.8402638037979L784.0346256398518,282.574033711053L784.986123971939,285.83989974179303L785.9376223040263,318.3784747115881L786.8891206361135,305.89133291968534L787.8406189682006,312.2486481984988L788.7921173002878,323.31777917803817L789.743615632375,317.9788760985512L790.6951139644623,289.0889251444504L791.6466122965495,303.0094406911807L792.5981106286367,302.2788467345599L793.5496089607237,331.40314802832233L794.501107292811,313.02614776232633L795.4526056248982,319.4556576477923L796.4041039569854,326.9577708910371L797.3556022890726,312.2570778649808L798.3071006211599,289.9063845695816L799.258598953247,319.448437563631L800.2100972853342,297.36456939921817L801.1615956174214,316.7302691606801L802.1130939495087,269.8930657047099L803.0645922815959,248.4352499156292L804.0160906136831,293.6743020829079L804.9675889457702,246.00412662029248L805.9190872778574,256.9012537468462L806.8705856099446,300.3550995780045L807.8220839420318,299.649233474392L808.773582274119,336.4214432082779L809.7250806062061,325.75977000937934L810.6765789382933,312.94103431769275L811.6280772703806,330.13452375003686L812.5795756024678,279.6850897423183L813.531073934555,269.81304622273586L814.4825722666423,285.4619052665962L815.4340705987294,261.88818707591116L816.3855689308166,288.12230676129644L817.3370672629038,269.2241168017183L818.288565594991,238.068244063453L819.2400639270783,250.7905311524704L820.1915622591655,277.16251828256577L821.1430605912525,264.10722195775026L822.0945589233397,317.4784893503958L823.046057255427,314.8381457233527L823.9975555875142,304.62639038552527L824.9490539196014,298.02788189799406L825.9005522516886,297.27509148229365L826.8520505837757,272.04089733860263L827.803548915863,303.9127430513142L828.7550472479502,258.46674007792024L829.7065455800374,266.2389798636915L830.6580439121246,320.3249607687793L831.6095422442119,279.93890251091733L832.561040576299,270.04574741536754L833.5125389083862,258.95946405972484L834.4640372404734,249.6480494758335L835.4155355725605,304.7443184268263L836.3670339046478,285.1021106408526L837.3185322367349,279.9538290061523L838.2700305688221,292.8799244812354L839.2215289009093,267.778940266824L840.1730272329966,265.4009887139117L841.1245255650838,287.82019798931805L842.076023897171,253.30511562793055L843.0275222292581,233.9490301754295L843.9790205613454,262.7444217198671L844.9305188934326,316.6836378917317L845.8820172255198,305.77288737666987L846.833515557607,304.3323808271268L847.7850138896943,287.30116870952L848.7365122217813,246.6666410441352L849.6880105538685,310.81367205884453L850.6395088859557,278.6431093926208L851.5910072180429,273.43404936378903L852.5425055501302,254.0225974627973L853.4940038822174,287.10857078228156L854.4455022143045,282.0571118478754L855.3970005463917,267.9005469347702L856.348498878479,239.59069669773845L857.2999972105662,267.2843083871323L858.2514955426534,303.1687501647602L859.2029938747405,304.0463457831L860.1544922068277,306.5349055337854L861.105990538915,277.8284182899141L862.0574888710022,248.76450570525714L863.0089872030894,294.54833753885043L863.9604855351766,308.2635794838174L864.9119838672636,296.59838628854504L865.8634821993509,274.41133576421413L866.8149805314381,290.2507663731778L867.7664788635253,287.65618112062486L868.7179771956125,336.0646257761327L869.6694755276998,259.84652434797556L870.6209738597869,273.4233875814783L871.5724721918741,236.8536363647282L872.5239705239613,241.8490866497209L873.4754688560486,288.64250197869217L874.4269671881358,244.77288404717888L875.378465520223,302.01583739934796L876.3299638523101,228.0872695504493L877.2814621843974,273.1367228064494L878.2329605164845,267.27964463674135L879.1844588485717,253.67878927555932L880.1359571806589,303.4241029685818L881.087455512746,294.9155829422907L882.0389538448333,291.86136264285886L882.9904521769205,301.6741553336117L883.9419505090077,317.9367651759041L884.8934488410949,290.00019578399497L885.8449471731822,269.59306434935206L886.7964455052693,255.60900832102618L887.7479438373565,267.031331103229L888.6994421694437,251.04485518782343L889.650940501531,263.08679586620946L890.6024388336182,284.09021397516034L891.5539371657054,305.5014234351343L892.5054354977924,292.0751719054312L893.4569338298796,248.50486948363005L894.4084321619669,297.2725226786024L895.3599304940541,269.930226068787L896.3114288261413,247.28783015034315L897.2629271582285,242.40645470111463L898.2144254903156,249.94305039293798L899.1659238224029,256.0111133881502L900.1174221544901,274.9392373926836L901.0689204865773,289.60238036963693L902.0204188186646,289.02633861179845L902.9719171507518,329.44403617628956L903.9234154828389,278.69215359125L904.8749138149261,259.11193378172834L905.8264121470133,276.9292933532592L906.7779104791005,288.34900368704785L907.7294088111877,299.1372808746657L908.6809071432748,240.86129434099547L909.632405475362,294.82849301520537L910.5839038074492,301.8851900387991L911.5354021395365,283.63780524740315L912.4869004716237,304.5803950825393L913.4383988037109,318.2840212962519L914.389897135798,331.6079384206535L915.3413954678853,278.45089803292814L916.2928937999725,275.92909347330664L917.2443921320597,274.08373847405676L918.1958904641469,288.81421278853827L919.1473887962342,306.391588733672L920.0988871283212,247.47848276993187L921.0503854604084,268.34750630712415L922.0018837924956,241.11172776104914L922.9533821245828,251.5345863886285L923.9048804566701,282.0329576112253L924.8563787887573,292.64010919876944L925.8078771208444,260.0428383116217L926.7593754529316,253.2239364433192L927.7108737850189,315.89262716868353L928.6623721171061,270.06263168817304L929.6138704491933,307.39983794752106L930.5653687812804,319.524285857087L931.5168671133677,251.085744058229L932.4683654454549,270.0521818945165L933.4198637775421,294.9878523684681L934.3713621096293,276.1725686775365L935.3228604417166,305.32312850708934L936.2743587738036,303.82481763953314L937.2258571058908,303.42304926027157L938.177355437978,259.7868931865606L939.1288537700652,285.0817971398185L940.0803521021525,269.33901465225733L941.0318504342397,280.95066824244077L941.9833487663268,283.935705421101L942.934847098414,294.9181205711799L943.8863454305013,276.60803078288404L944.8378437625885,269.4847880267745L945.7893420946757,275.7082823501876L946.7408404267629,296.49706818179124L947.69233875885,302.1919500912475L948.6438370909373,314.22122756502944L949.5953354230244,268.54413201879106L950.5468337551116,263.36673311894987L951.4983320871988,269.14407237990264L952.449830419286,317.62381380776304L953.4013287513732,317.7556084010284L954.3528270834604,309.75699590744733L955.3043254155476,298.07271126338236L956.2558237476348,242.49874458518656L957.2073220797221,223.65434986407442L958.1588204118092,252.87067605609116L959.1103187438964,228.12452967389302L960.0618170759836,250.05113966670314L961.0133154080709,219.0215124069332L961.9648137401581,277.3569679930476L962.9163120722453,261.97533935260066L963.8678104043323,272.90583598729876L964.8193087364195,276.76018252190636L965.7708070685068,326.080861118343L966.722305400594,290.9496929658477L967.6738037326812,286.0539334629403L968.6253020647684,285.0868100479926L969.5768003968556,244.46627363378047L970.5282987289428,282.6677326961789L971.47979706103,270.11436938970184L972.4312953931172,286.00939090573115L973.3827937252045,288.0005068095773L974.3342920572917,325.84097413383233L975.2857903893788,324.14923608930246L976.237288721466,291.5375312687925L977.1887870535533,315.7217331386519L978.1402853856404,311.60732640510884L979.0917837177276,277.54629880102823L980.0432820498147,249.64730128058358L980.9947803819019,257.3385239907143L981.9462787139892,257.2732439551628L982.8977770460764,279.40455393337805L983.8492753781636,296.80330449756474L984.8007737102508,311.90288846865076L985.752272042338,296.4078521332042L986.7037703744252,274.0868933640271L987.6552687065124,298.71126473434776L988.6067670385996,326.1386685538364L989.5582653706869,237.15126843512812L990.5097637027741,276.864169191718L991.4612620348611,275.2118173921336L992.4127603669483,271.48291826108823L993.3642586990355,321.9185231266049L994.3157570311228,276.07684956523593L995.26725536321,250.87546378325192L996.2187536952972,270.9579096542516L997.1702520273843,290.8422271881241L998.1217503594715,286.9133042919853L999.0732486915588,305.3941135314211L1000.024747023646,310.368234016832L1000.9762453557332,305.8819056595369L1001.9277436878203,291.99964782991685L1002.8792420199076,272.7818974441571L1003.8307403519948,297.27141285564846L1004.782238684082,323.7024762356818L1005.7337370161692,302.1870494123608L1006.6852353482565,317.3780441381002L1007.6367336803435,281.47664950310224L1008.5882320124307,304.2327960393686L1009.5397303445179,299.851545469958L1010.4912286766051,249.62956905316156L1011.4427270086924,242.33501452467243L1012.3942253407796,325.35663929126696L1013.3457236728667,270.31721759186354L1014.2972220049539,295.4925038295478L1015.2487203370412,290.64981007473773L1016.2002186691284,308.50929927379684L1017.1517170012156,289.9370668097868L1018.1032153333028,292.47248852295604L1019.05471366539,316.07133983907636L1020.0062119974772,318.8022150913543L1020.9577103295643,316.22794333983546L1021.9092086616515,316.05279706680034L1022.8607069937387,262.00191275389204L1023.8122053258259,285.88575787564986L1024.763703657913,324.49685383735437L1025.7152019900004,275.54809998214995L1026.6667003220875,292.9136493821234L1027.6181986541749,308.5828967465428L1028.569696986262,282.4620475870281L1029.521195318349,269.020059017236L1030.4726936504362,289.5703139682194L1031.4241919825236,318.4258541757864L1032.3756903146107,308.4378715672756L1033.327188646698,186.90370997574644L1034.2786869787851,308.6165343579851L1035.2301853108722,243.5091199205374L1036.1816836429596,280.6170417455615L1037.1331819750467,302.75405047759665L1038.084680307134,322.65445420934145L1039.0361786392211,196.75189230181834L1039.9876769713085,287.0984327366458L1040.9391753033956,313.7827040941178L1041.8906736354827,296.4553500616504L1042.8421719675698,286.988504149558L1043.7936702996572,293.0403687176105L1044.7451686317443,263.526397985273L1045.6966669638316,276.8966221606813L1046.6481652959187,257.1644314259894" fill="none"></path></g></g></g></g></g></g><g transform="translate(51, 376)" clip-path="url(#clip_1)"><clipPath id="clip_1"><rect width="1141" height="23"></rect></clipPath><g><g><line x1="0" y1="0" x2="0" y2="5" style="visibility: inherit;" fill="rgb(0, 0, 0)" stroke="rgb(204, 204, 204)" stroke-width="1px"></line><line x1="95.14983320871988" y1="0" x2="95.14983320871988" y2="5" style="visibility: inherit;" fill="rgb(0, 0, 0)" stroke="rgb(204, 204, 204)" stroke-width="1px"></line><line x1="190.29966641743977" y1="0" x2="190.29966641743977" y2="5" style="visibility: inherit;" fill="rgb(0, 0, 0)" stroke="rgb(204, 204, 204)" stroke-width="1px"></line><line x1="285.44949962615965" y1="0" x2="285.44949962615965" y2="5" style="visibility: inherit;" fill="rgb(0, 0, 0)" stroke="rgb(204, 204, 204)" stroke-width="1px"></line><line x1="380.59933283487953" y1="0" x2="380.59933283487953" y2="5" style="visibility: inherit;" fill="rgb(0, 0, 0)" stroke="rgb(204, 204, 204)" stroke-width="1px"></line><line x1="475.7491660435994" y1="0" x2="475.7491660435994" y2="5" style="visibility: inherit;" fill="rgb(0, 0, 0)" stroke="rgb(204, 204, 204)" stroke-width="1px"></line><line x1="570.8989992523193" y1="0" x2="570.8989992523193" y2="5" style="visibility: inherit;" fill="rgb(0, 0, 0)" stroke="rgb(204, 204, 204)" stroke-width="1px"></line><line x1="666.0488324610392" y1="0" x2="666.0488324610392" y2="5" style="visibility: inherit;" fill="rgb(0, 0, 0)" stroke="rgb(204, 204, 204)" stroke-width="1px"></line><line x1="761.1986656697591" y1="0" x2="761.1986656697591" y2="5" style="visibility: inherit;" fill="rgb(0, 0, 0)" stroke="rgb(204, 204, 204)" stroke-width="1px"></line><line x1="856.348498878479" y1="0" x2="856.348498878479" y2="5" style="visibility: inherit;" fill="rgb(0, 0, 0)" stroke="rgb(204, 204, 204)" stroke-width="1px"></line><line x1="951.4983320871988" y1="0" x2="951.4983320871988" y2="5" style="visibility: inherit;" fill="rgb(0, 0, 0)" stroke="rgb(204, 204, 204)" stroke-width="1px"></line><line x1="1046.6481652959187" y1="0" x2="1046.6481652959187" y2="5" style="visibility: inherit;" fill="rgb(0, 0, 0)" stroke="rgb(204, 204, 204)" stroke-width="1px"></line><line x1="1141.7979985046386" y1="0" x2="1141.7979985046386" y2="5" style="visibility: inherit;" fill="rgb(0, 0, 0)" stroke="rgb(204, 204, 204)" stroke-width="1px"></line></g><g transform="translate(0, 8)"><text style="text-anchor: middle; visibility: hidden; font-family: Roboto, sans-serif; font-size: 12px; font-weight: 200;" x="0" y="0" dx="0em" dy="0.95em" fill="rgb(255, 255, 255)" stroke="none" stroke-width="1px">-100</text><text style="text-anchor: middle; visibility: inherit; font-family: Roboto, sans-serif; font-size: 12px; font-weight: 200;" x="95.14983320871988" y="0" dx="0em" dy="0.95em" fill="rgb(255, 255, 255)" stroke="none" stroke-width="1px">0</text><text style="text-anchor: middle; visibility: inherit; font-family: Roboto, sans-serif; font-size: 12px; font-weight: 200;" x="190.29966641743977" y="0" dx="0em" dy="0.95em" fill="rgb(255, 255, 255)" stroke="none" stroke-width="1px">100</text><text style="text-anchor: middle; visibility: inherit; font-family: Roboto, sans-serif; font-size: 12px; font-weight: 200;" x="285.44949962615965" y="0" dx="0em" dy="0.95em" fill="rgb(255, 255, 255)" stroke="none" stroke-width="1px">200</text><text style="text-anchor: middle; visibility: inherit; font-family: Roboto, sans-serif; font-size: 12px; font-weight: 200;" x="380.59933283487953" y="0" dx="0em" dy="0.95em" fill="rgb(255, 255, 255)" stroke="none" stroke-width="1px">300</text><text style="text-anchor: middle; visibility: inherit; font-family: Roboto, sans-serif; font-size: 12px; font-weight: 200;" x="475.7491660435994" y="0" dx="0em" dy="0.95em" fill="rgb(255, 255, 255)" stroke="none" stroke-width="1px">400</text><text style="text-anchor: middle; visibility: inherit; font-family: Roboto, sans-serif; font-size: 12px; font-weight: 200;" x="570.8989992523193" y="0" dx="0em" dy="0.95em" fill="rgb(255, 255, 255)" stroke="none" stroke-width="1px">500</text><text style="text-anchor: middle; visibility: inherit; font-family: Roboto, sans-serif; font-size: 12px; font-weight: 200;" x="666.0488324610392" y="0" dx="0em" dy="0.95em" fill="rgb(255, 255, 255)" stroke="none" stroke-width="1px">600</text><text style="text-anchor: middle; visibility: inherit; font-family: Roboto, sans-serif; font-size: 12px; font-weight: 200;" x="761.1986656697591" y="0" dx="0em" dy="0.95em" fill="rgb(255, 255, 255)" stroke="none" stroke-width="1px">700</text><text style="text-anchor: middle; visibility: inherit; font-family: Roboto, sans-serif; font-size: 12px; font-weight: 200;" x="856.348498878479" y="0" dx="0em" dy="0.95em" fill="rgb(255, 255, 255)" stroke="none" stroke-width="1px">800</text><text style="text-anchor: middle; visibility: inherit; font-family: Roboto, sans-serif; font-size: 12px; font-weight: 200;" x="951.4983320871988" y="0" dx="0em" dy="0.95em" fill="rgb(255, 255, 255)" stroke="none" stroke-width="1px">900</text><text style="text-anchor: middle; visibility: inherit; font-family: Roboto, sans-serif; font-size: 12px; font-weight: 200;" x="1046.6481652959187" y="0" dx="0em" dy="0.95em" fill="rgb(255, 255, 255)" stroke="none" stroke-width="1px">1k</text><text style="text-anchor: middle; visibility: hidden; font-family: Roboto, sans-serif; font-size: 12px; font-weight: 200;" x="1141.7979985046386" y="0" dx="0em" dy="0.95em" fill="rgb(255, 255, 255)" stroke="none" stroke-width="1px">1.1k</text></g><line x1="0" y1="0" x2="1141.7979985046386" y2="0" fill="rgb(0, 0, 0)" stroke="rgb(204, 204, 204)" stroke-width="1px"></line></g></g></g></g></svg>