<svg viewBox="0 0 1193.3333740234375 400" xmlns="http://www.w3.org/2000/svg"><g><g><g><g><g><line x1="41.149001121520996" y1="376.57899951934814" x2="36.149001121520996" y2="376.57899951934814" style="visibility: inherit;" fill="rgb(0, 0, 0)" stroke="rgb(204, 204, 204)" stroke-width="1px"></line><line x1="41.149001121520996" y1="345.19741622606915" x2="36.149001121520996" y2="345.19741622606915" style="visibility: inherit;" fill="rgb(0, 0, 0)" stroke="rgb(204, 204, 204)" stroke-width="1px"></line><line x1="41.149001121520996" y1="313.81583293279016" x2="36.149001121520996" y2="313.81583293279016" style="visibility: inherit;" fill="rgb(0, 0, 0)" stroke="rgb(204, 204, 204)" stroke-width="1px"></line><line x1="41.149001121520996" y1="282.4342496395111" x2="36.149001121520996" y2="282.4342496395111" style="visibility: inherit;" fill="rgb(0, 0, 0)" stroke="rgb(204, 204, 204)" stroke-width="1px"></line><line x1="41.149001121520996" y1="251.05266634623203" x2="36.149001121520996" y2="251.05266634623203" style="visibility: inherit;" fill="rgb(0, 0, 0)" stroke="rgb(204, 204, 204)" stroke-width="1px"></line><line x1="41.149001121520996" y1="219.67108305295315" x2="36.149001121520996" y2="219.67108305295315" style="visibility: inherit;" fill="rgb(0, 0, 0)" stroke="rgb(204, 204, 204)" stroke-width="1px"></line><line x1="41.149001121520996" y1="188.2894997596741" x2="36.149001121520996" y2="188.2894997596741" style="visibility: inherit;" fill="rgb(0, 0, 0)" stroke="rgb(204, 204, 204)" stroke-width="1px"></line><line x1="41.149001121520996" y1="156.90791646639505" x2="36.149001121520996" y2="156.90791646639505" style="visibility: inherit;" fill="rgb(0, 0, 0)" stroke="rgb(204, 204, 204)" stroke-width="1px"></line><line x1="41.149001121520996" y1="125.52633317311602" x2="36.149001121520996" y2="125.52633317311602" style="visibility: inherit;" fill="rgb(0, 0, 0)" stroke="rgb(204, 204, 204)" stroke-width="1px"></line><line x1="41.149001121520996" y1="94.144749879837" x2="36.149001121520996" y2="94.144749879837" style="visibility: inherit;" fill="rgb(0, 0, 0)" stroke="rgb(204, 204, 204)" stroke-width="1px"></line><line x1="41.149001121520996" y1="62.76316658655809" x2="36.149001121520996" y2="62.76316658655809" style="visibility: inherit;" fill="rgb(0, 0, 0)" stroke="rgb(204, 204, 204)" stroke-width="1px"></line><line x1="41.149001121520996" y1="31.381583293279025" x2="36.149001121520996" y2="31.381583293279025" style="visibility: inherit;" fill="rgb(0, 0, 0)" stroke="rgb(204, 204, 204)" stroke-width="1px"></line><line x1="41.149001121520996" y1="0" x2="36.149001121520996" y2="0" style="visibility: inherit;" fill="rgb(0, 0, 0)" stroke="rgb(204, 204, 204)" stroke-width="1px"></line></g><g transform="translate(31.149001121520996, 0)"><text style="text-anchor: end; visibility: hidden; font-family: Roboto, sans-serif; font-size: 12px; font-weight: 200;" x="0" y="376.57899951934814" dx="0em" dy="0.3em" fill="rgb(255, 255, 255)" stroke="none" stroke-width="1px">3.6</text><text style="text-anchor: end; visibility: inherit; font-family: Roboto, sans-serif; font-size: 12px; font-weight: 200;" x="0" y="345.19741622606915" dx="0em" dy="0.3em" fill="rgb(255, 255, 255)" stroke="none" stroke-width="1px">3.8</text><text style="text-anchor: end; visibility: inherit; font-family: Roboto, sans-serif; font-size: 12px; font-weight: 200;" x="0" y="313.81583293279016" dx="0em" dy="0.3em" fill="rgb(255, 255, 255)" stroke="none" stroke-width="1px">4</text><text style="text-anchor: end; visibility: inherit; font-family: Roboto, sans-serif; font-size: 12px; font-weight: 200;" x="0" y="282.4342496395111" dx="0em" dy="0.3em" fill="rgb(255, 255, 255)" stroke="none" stroke-width="1px">4.2</text><text style="text-anchor: end; visibility: inherit; font-family: Roboto, sans-serif; font-size: 12px; font-weight: 200;" x="0" y="251.05266634623203" dx="0em" dy="0.3em" fill="rgb(255, 255, 255)" stroke="none" stroke-width="1px">4.4</text><text style="text-anchor: end; visibility: inherit; font-family: Roboto, sans-serif; font-size: 12px; font-weight: 200;" x="0" y="219.67108305295315" dx="0em" dy="0.3em" fill="rgb(255, 255, 255)" stroke="none" stroke-width="1px">4.6</text><text style="text-anchor: end; visibility: inherit; font-family: Roboto, sans-serif; font-size: 12px; font-weight: 200;" x="0" y="188.2894997596741" dx="0em" dy="0.3em" fill="rgb(255, 255, 255)" stroke="none" stroke-width="1px">4.8</text><text style="text-anchor: end; visibility: inherit; font-family: Roboto, sans-serif; font-size: 12px; font-weight: 200;" x="0" y="156.90791646639505" dx="0em" dy="0.3em" fill="rgb(255, 255, 255)" stroke="none" stroke-width="1px">5</text><text style="text-anchor: end; visibility: inherit; font-family: Roboto, sans-serif; font-size: 12px; font-weight: 200;" x="0" y="125.52633317311602" dx="0em" dy="0.3em" fill="rgb(255, 255, 255)" stroke="none" stroke-width="1px">5.2</text><text style="text-anchor: end; visibility: inherit; font-family: Roboto, sans-serif; font-size: 12px; font-weight: 200;" x="0" y="94.144749879837" dx="0em" dy="0.3em" fill="rgb(255, 255, 255)" stroke="none" stroke-width="1px">5.4</text><text style="text-anchor: end; visibility: inherit; font-family: Roboto, sans-serif; font-size: 12px; font-weight: 200;" x="0" y="62.76316658655809" dx="0em" dy="0.3em" fill="rgb(255, 255, 255)" stroke="none" stroke-width="1px">5.6</text><text style="text-anchor: end; visibility: inherit; font-family: Roboto, sans-serif; font-size: 12px; font-weight: 200;" x="0" y="31.381583293279025" dx="0em" dy="0.3em" fill="rgb(255, 255, 255)" stroke="none" stroke-width="1px">5.8</text><text style="text-anchor: end; visibility: hidden; font-family: Roboto, sans-serif; font-size: 12px; font-weight: 200;" x="0" y="0" dx="0em" dy="0.3em" fill="rgb(255, 255, 255)" stroke="none" stroke-width="1px">6</text></g><line x1="41.149001121520996" y1="0" x2="41.149001121520996" y2="376.57899951934814" fill="rgb(0, 0, 0)" stroke="rgb(204, 204, 204)" stroke-width="1px"></line></g></g><g transform="translate(41, 0)" clip-path="url(#clip_0)"><clipPath id="clip_0"><rect width="1152" height="376"></rect></clipPath><g><g><g><line x1="0" y1="0" x2="0" y2="376.57899951934814" fill="rgb(0, 0, 0)" stroke="rgb(189, 189, 189)" stroke-width="1px" opacity="0.25"></line><line x1="96.01508323987323" y1="0" x2="96.01508323987323" y2="376.57899951934814" fill="rgb(0, 0, 0)" stroke="rgb(189, 189, 189)" stroke-width="1px" opacity="0.25"></line><line x1="192.03016647974647" y1="0" x2="192.03016647974647" y2="376.57899951934814" fill="rgb(0, 0, 0)" stroke="rgb(189, 189, 189)" stroke-width="1px" opacity="0.25"></line><line x1="288.04524971961973" y1="0" x2="288.04524971961973" y2="376.57899951934814" fill="rgb(0, 0, 0)" stroke="rgb(189, 189, 189)" stroke-width="1px" opacity="0.25"></line><line x1="384.06033295949294" y1="0" x2="384.06033295949294" y2="376.57899951934814" fill="rgb(0, 0, 0)" stroke="rgb(189, 189, 189)" stroke-width="1px" opacity="0.25"></line><line x1="480.07541619936626" y1="0" x2="480.07541619936626" y2="376.57899951934814" fill="rgb(0, 0, 0)" stroke="rgb(189, 189, 189)" stroke-width="1px" opacity="0.25"></line><line x1="576.0904994392395" y1="0" x2="576.0904994392395" y2="376.57899951934814" fill="rgb(0, 0, 0)" stroke="rgb(189, 189, 189)" stroke-width="1px" opacity="0.25"></line><line x1="672.1055826791128" y1="0" x2="672.1055826791128" y2="376.57899951934814" fill="rgb(0, 0, 0)" stroke="rgb(189, 189, 189)" stroke-width="1px" opacity="0.25"></line><line x1="768.1206659189859" y1="0" x2="768.1206659189859" y2="376.57899951934814" fill="rgb(0, 0, 0)" stroke="rgb(189, 189, 189)" stroke-width="1px" opacity="0.25"></line><line x1="864.1357491588592" y1="0" x2="864.1357491588592" y2="376.57899951934814" fill="rgb(0, 0, 0)" stroke="rgb(189, 189, 189)" stroke-width="1px" opacity="0.25"></line><line x1="960.1508323987325" y1="0" x2="960.1508323987325" y2="376.57899951934814" fill="rgb(0, 0, 0)" stroke="rgb(189, 189, 189)" stroke-width="1px" opacity="0.25"></line><line x1="1056.1659156386056" y1="0" x2="1056.1659156386056" y2="376.57899951934814" fill="rgb(0, 0, 0)" stroke="rgb(189, 189, 189)" stroke-width="1px" opacity="0.25"></line><line x1="1152.180998878479" y1="0" x2="1152.180998878479" y2="376.57899951934814" fill="rgb(0, 0, 0)" stroke="rgb(189, 189, 189)" stroke-width="1px" opacity="0.25"></line></g><g><line x1="0" y1="376.57899951934814" x2="1152.180998878479" y2="376.57899951934814" fill="rgb(0, 0, 0)" stroke="rgb(189, 189, 189)" stroke-width="1px" opacity="0.25"></line><line x1="0" y1="345.19741622606915" x2="1152.180998878479" y2="345.19741622606915" fill="rgb(0, 0, 0)" stroke="rgb(189, 189, 189)" stroke-width="1px" opacity="0.25"></line><line x1="0" y1="313.81583293279016" x2="1152.180998878479" y2="313.81583293279016" fill="rgb(0, 0, 0)" stroke="rgb(189, 189, 189)" stroke-width="1px" opacity="0.25"></line><line x1="0" y1="282.4342496395111" x2="1152.180998878479" y2="282.4342496395111" fill="rgb(0, 0, 0)" stroke="rgb(189, 189, 189)" stroke-width="1px" opacity="0.25"></line><line x1="0" y1="251.05266634623203" x2="1152.180998878479" y2="251.05266634623203" fill="rgb(0, 0, 0)" stroke="rgb(189, 189, 189)" stroke-width="1px" opacity="0.25"></line><line x1="0" y1="219.67108305295315" x2="1152.180998878479" y2="219.67108305295315" fill="rgb(0, 0, 0)" stroke="rgb(189, 189, 189)" stroke-width="1px" opacity="0.25"></line><line x1="0" y1="188.2894997596741" x2="1152.180998878479" y2="188.2894997596741" fill="rgb(0, 0, 0)" stroke="rgb(189, 189, 189)" stroke-width="1px" opacity="0.25"></line><line x1="0" y1="156.90791646639505" x2="1152.180998878479" y2="156.90791646639505" fill="rgb(0, 0, 0)" stroke="rgb(189, 189, 189)" stroke-width="1px" opacity="0.25"></line><line x1="0" y1="125.52633317311602" x2="1152.180998878479" y2="125.52633317311602" fill="rgb(0, 0, 0)" stroke="rgb(189, 189, 189)" stroke-width="1px" opacity="0.25"></line><line x1="0" y1="94.144749879837" x2="1152.180998878479" y2="94.144749879837" fill="rgb(0, 0, 0)" stroke="rgb(189, 189, 189)" stroke-width="1px" opacity="0.25"></line><line x1="0" y1="62.76316658655809" x2="1152.180998878479" y2="62.76316658655809" fill="rgb(0, 0, 0)" stroke="rgb(189, 189, 189)" stroke-width="1px" opacity="0.25"></line><line x1="0" y1="31.381583293279025" x2="1152.180998878479" y2="31.381583293279025" fill="rgb(0, 0, 0)" stroke="rgb(189, 189, 189)" stroke-width="1px" opacity="0.25"></line><line x1="0" y1="0" x2="1152.180998878479" y2="0" fill="rgb(0, 0, 0)" stroke="rgb(189, 189, 189)" stroke-width="1px" opacity="0.25"></line></g></g></g><g><g><line x1="0" y1="941.4474987983704" x2="1152.180998878479" y2="941.4474987983704" fill="rgb(0, 0, 0)" stroke="rgb(153, 153, 153)" stroke-width="1.5px"></line></g></g><g><g><line x1="96.01508323987323" y1="0" x2="96.01508323987323" y2="376.57899951934814" fill="rgb(0, 0, 0)" stroke="rgb(153, 153, 153)" stroke-width="1.5px"></line></g></g><g><g><g><g><g><path style="fill: none;" stroke="rgb(255, 112, 67)" stroke-width="2px" d="M96.97523407227197,335.2584354184567L97.93538490467071,335.05307920346775L98.89553573706944,333.8865125427768L99.85568656946818,331.51241710330316L100.8158374018669,328.717000823975L101.77598823426564,323.5267608226016L102.73613906666438,318.58539910777137L103.6962898990631,312.6155483658379L104.65644073146184,305.95860931825655L105.61659156386057,302.4664868651467L106.5767423962593,295.47370251682236L107.53689322865804,291.0272453339272L108.49704406105676,286.365489594621L109.4571948934555,282.04269402069616L110.41734572585423,277.9414258808854L111.37749655825296,277.8553356245191L112.3376473906517,276.4521378384935L113.29779822305042,274.7840402911333L114.25794905544916,273.4730994683881L115.2180998878479,272.84092946120376L116.17825072024662,273.3858332962033L117.13840155264536,273.7736119854034L118.09855238504409,277.03520371885014L119.05870321744283,276.60984738223306L120.01885404984156,277.371435105558L120.97900488224029,278.52729169282975L121.93915571463903,278.341883559817L122.89930654703777,281.9288804092245L123.85945737943648,282.6217666282491L124.81960821183522,281.1126308152885L125.77975904423394,278.8331037462878L126.73990987663268,278.9490889247948L127.70006070903142,278.9614281227371L128.66021154143016,278.952880117941L129.6203623738289,279.0482189751004L130.5805132062276,277.6462021135615L131.54066403862635,276.4114712298341L132.50081487102509,276.7035312146795L133.4609657034238,276.87424810557354L134.42111653582253,277.7729974092769L135.38126736822127,277.95918861593634L136.34141820062,277.82612378176987L137.30156903301875,277.580484813891L138.26171986541746,277.58402737903987L139.2218706978162,279.4405398812293L140.18202153021494,280.664432084158L141.14217236261368,280.903282583571L142.10232319501242,279.73590444445426L143.06247402741113,280.71071665330174L144.02262485980987,281.56226076565895L144.98277569220858,280.68324995346626L145.94292652460734,281.2361176957346L146.90307735700605,280.94952978659757L147.8632281894048,279.66094052239254L148.82337902180353,280.8108881785279L149.78352985420227,281.19248061802034L150.74368068660098,282.4051631962505L151.70383151899972,283.00830298141926L152.66398235139846,283.2415870529722L153.6241331837972,285.1102476568331L154.5842840161959,284.7181443067541L155.54443484859468,284.006042500057L156.5045856809934,284.5842061928195L157.4647365133921,285.0939416226597L158.42488734579086,283.0823229136037L159.38503817818957,282.42859718373705L160.3451890105883,281.5033773776168L161.30533984298705,280.48403523311276L162.2654906753858,279.20073017888336L163.2256415077845,278.42712588133617L164.18579234018324,280.20500518858074L165.14594317258198,283.81080817290007L166.10609400498072,282.94356050092176L167.06624483737943,280.741209120398L168.0263956697782,280.3042548608647L168.9865465021769,280.34213852815435L169.94669733457565,279.73868916000345L170.90684816697438,277.24303603676196L171.86699899937312,277.2038767048216L172.82714983177183,278.56277657713485L173.7873006641706,277.7708733925532L174.7474514965693,278.8177102590982L175.70760232896802,277.9337995624595L176.66775316136676,279.4712253926484L177.6279039937655,280.44461802337304L178.58805482616424,280.7356004863372L179.54820565856295,280.76165824311073L180.50835649096172,281.43968511579345L181.46850732336043,281.4670764642869L182.42865815575917,281.8078988059184L183.3888089881579,281.81079848277113L184.34895982055664,280.25024675152565L185.30911065295535,279.6589833620204L186.26926148535406,280.27819597679326L187.22941231775283,278.837385155792L188.18956315015154,277.053067422996L189.14971398255028,276.424690103804L190.10986481494902,277.1652579209308L191.07001564734776,276.1448717344333L192.03016647974647,276.7263406519939L192.99031731214524,278.41712514708445L193.95046814454395,278.699830961952L194.9106189769427,280.27594180939576L195.87076980934143,279.1525491738602L196.83092064174016,279.3065562394795L197.79107147413887,280.48282604562877L198.7512223065376,281.3047976155288L199.71137313893635,280.43856964406757L200.6715239713351,281.5651916168237L201.6316748037338,281.7159616628758L202.59182563613257,277.32449472128127L203.55197646853128,276.4942614990208L204.51212730093,274.37639856092727L205.47227813332876,275.89082265182236L206.43242896572747,278.4108203242983L207.3925797981262,277.9923853996786L208.35273063052495,275.5136479079317L209.31288146292368,276.0412952207945L210.2730322953224,274.85957772892436L211.23318312772113,273.64970533353653L212.19333396011987,273.0616593169506L213.1534847925186,270.8957750496942L214.11363562491732,271.3109284351918L215.0737864573161,271.30264130053365L216.0339372897148,274.32372974394957L216.9940881221135,277.96545084565133L217.95423895451228,279.39007771032027L218.914389786911,281.93804960739664L219.87454061930973,280.36295971544496L220.83469145170847,278.28807109734396L221.7948422841072,279.1577471972975L222.75499311650591,277.3872621785155L223.71514394890465,279.85510599520217L224.6752947813034,280.2081324046039L225.63544561370213,278.1582737211156L226.59559644610084,276.38106864964476L227.5557472784996,275.5342660930752L228.51589811089832,271.85129283581773L229.47604894329703,270.3796184593691L230.4361997756958,271.3789533709431L231.3963506080945,272.80504071870854L232.35650144049325,275.26784645190736L233.316652272892,274.79196216659534L234.27680310529072,274.39228692808723L235.23695393768944,272.46150066464696L236.19710477008817,268.5912700429392L237.1572556024869,268.53730053381287L238.11740643488565,267.76196094521214L239.07755726728436,267.9662722294489L240.03770809968313,267.52908924184527L240.99785893208184,266.8139716840592L241.95800976448058,269.0047517085367L242.91816059687932,270.15177362630135L243.87831142927806,269.1742348004505L244.83846226167677,266.52652337496687L245.79861309407553,263.0273051295983L246.75876392647424,260.74030638056854L247.71891475887296,262.44962408728225L248.6790655912717,265.7252772501618L249.63921642367043,266.2259422711161L250.59936725606917,269.8122651820856L251.55951808846788,271.30816104481767L252.51966892086665,271.53881717233907L253.47981975326536,271.0313687091607L254.4399705856641,266.0012685052389L255.40012141806284,268.8685421462055L256.36027225046155,263.97147847936895L257.3204230828603,262.5427391597931L258.280573915259,261.5304395844637L259.2407247476578,260.93323529466426L260.2008755800565,257.56626998199096L261.1610264124552,256.7584963050929L262.121177244854,259.41185276035594L263.0813280772527,259.5496444180485L264.0414789096514,256.988017832749L265.00162974205017,258.7415148070856L265.9617805744489,261.2091385488293L266.9219314068476,260.9780814846436L267.88208223924636,257.4710722311991L268.84223307164507,260.14346486556855L269.80238390404384,262.48530930219584L270.76253473644255,262.7764729483498L271.7226855688413,261.3348898294542L272.68283640124,256.38302815301455L273.64298723363873,258.0855277393943L274.6031380660375,257.7404937590421L275.5632888984362,258.53707255120196L276.5234397308349,263.7365209147332L277.4835905632337,265.2987766285241L278.4437413956324,270.0055077978543L279.4038922280311,268.65365931523513L280.3640430604299,270.9998743245123L281.3241938928286,273.279041301512L282.28434472522736,272.1490657436321L283.24449555762607,268.8737654906812L284.20464639002483,271.3206927274183L285.16479722242354,268.7168113859256L286.12494805482226,268.415161649258L287.085098887221,262.77070045362683L288.04524971961973,262.6614182087965L289.0054005520185,259.8726875026466L289.96555138441715,254.7725352676734L290.9257022168159,256.2245102005802L291.8858530492147,253.15462157332743L292.8460038816134,254.8999254864021L293.8061547140121,258.14488648903705L294.7663055464109,260.49038180851096L295.7264563788096,261.0031666872559L296.68660721120835,261.1322284444528L297.64675804360706,258.85153363802783L298.6069088760058,254.04255586153187L299.56705970840454,250.09021284150376L300.5272105408032,249.48969540250894L301.48736137320196,248.7079714465729L302.44751220560073,245.69603091335924L303.40766303799944,245.80924437737787L304.36781387039815,251.61750597968307L305.3279647027969,254.76996497202222L306.28811553519563,253.40403767195383L307.2482663675944,255.4208296285654L308.2084171999931,252.6059734919298L309.1685680323918,252.7579792583586L310.1287188647906,252.83804957289775L311.08886969718935,251.3228425343443L312.049020529588,251.7843521533615L313.0091713619868,247.99137504355673L313.96932219438554,241.99481380005003L314.9294730267842,237.90597118659866L315.88962385918296,238.25064650276704L316.84977469158173,245.30200169393618L317.80992552398044,246.5632877175074L318.77007635637915,245.26764005000555L319.7302271887779,239.9839313151327L320.6903780211766,248.9039128281645L321.6505288535754,257.18736065280024L322.6106796859741,261.4402093810524L323.5708305183728,261.36949426719497L324.5309813507716,253.94465259618283L325.4911321831703,247.19332687704204L326.451283015569,241.6618231182467L327.41143384796777,237.86955269227926L328.3715846803665,235.81167583193206L329.33173551276525,237.25908004747245L330.29188634516396,231.7778289135952L331.25203717756267,231.17890001218612L332.21218800996144,231.90918430544747L333.1723388423602,230.04258430588203L334.13248967475886,228.3529185150787L335.0926405071576,227.88545121205473L336.0527913395564,228.7931647426604L337.01294217195505,232.0532927009169L337.9730930043538,236.15905413999883L338.9332438367526,241.35099951287904L339.8933946691513,249.70924969743476L340.85354550155,253.6757388406146L341.81369633394877,263.290859959665L342.7738471663475,269.3015697689945L343.73399799874625,269.5276794434711L344.69414883114496,268.1977205370836L345.65429966354367,267.953918450928L346.61445049594244,263.46047315841616L347.5746013283412,255.59847691624836L348.53475216073986,251.03145692150238L349.4949029931386,244.1455848285325L350.45505382553733,241.03175675162927L351.41520465793604,238.35929965092276L352.3753554903348,231.47105299034817L353.3355063227335,229.17220090173484L354.2956571551323,228.3859690592369L355.255807987531,228.89442558669325L356.2159588199297,232.03004184468062L357.1761096523285,237.51965801151587L358.13626048472725,240.41149722338463L359.0964113171259,249.16993948888398L360.05656214952467,253.14568075432888L361.01671298192343,246.5884863924307L361.9768638143221,245.63153795264085L362.93701464672085,240.88372629029925L363.8971654791196,238.2548889851172L364.85731631151833,244.50978426112005L365.81746714391704,238.08963032542374L366.7776179763158,230.6950429505221L367.7377688087145,235.88265523062157L368.6979196411133,238.21602213765232L369.658070473512,240.82294107553756L370.6182213059107,245.89472155310847L371.5783721383095,247.82989224144737L372.53852297070813,246.3022802045032L373.4986738031069,242.6779943730424L374.45882463550566,242.56368324202933L375.4189754679044,245.34733656718137L376.3791263003031,245.803028104867L377.33927713270185,243.67581367654228L378.29942796510056,243.16647493409852L379.25957879749933,239.94126418457355L380.21972962989804,234.15439866069678L381.17988046229675,227.7581826708128L382.1400312946955,233.86295040216922L383.1001821270943,237.75852969150395L384.06033295949294,238.77049427166781L385.0204837918917,232.91284707151402L385.9806346242905,231.52711365979349L386.9407854566891,225.9693541471165L387.9009362890879,221.13202309966312L388.86108712148666,218.77559750892937L389.8212379538854,216.61249943126512L390.7813887862841,212.98901032557805L391.74153961868285,211.26715599899958L392.70169045108156,213.34198661540952L393.6618412834803,212.72214300008937L394.62199211587904,220.9890188971835L395.58214294827775,220.50946569075538L396.5422937806765,220.20623116132103L397.5024446130752,226.87928525081682L398.46259544547394,229.89385394513093L399.4227462778727,227.90999344010763L400.3828971102714,226.68687625733898L401.3430479426702,220.87629168261228L402.3031987750689,217.65100122436223L403.2633496074676,216.54437836912285L404.22350043986637,213.32618578414898L405.18365127226514,207.48930196729196L406.1438021046638,206.49670832868537L407.10395293706256,209.93616912809233L408.0641037694613,213.13632426448535L409.02425460186,211.2334688253745L409.98440543425875,216.43938420621976L410.9445562666575,220.98315765803798L411.9047070990562,237.8776061144647L412.86485793145494,247.8545803941875L413.8250087638537,243.65441584089552L414.7851595962524,230.7375156279099L415.7453104286512,225.4275694158677L416.7054612610499,225.36666360831654L417.6656120934486,219.6022365688498L418.62576292584737,224.35960216746716L419.58591375824614,225.7491150830042L420.5460645906448,229.93123599799284L421.50621542304356,251.35709912174264L422.46636625544227,262.1313173777028L423.426517087841,260.846311283373L424.38666792023974,247.83252889746532L425.34681875263846,241.9416444688681L426.3069695850372,238.25765432859498L427.26712041743593,230.18221753628808L428.22727124983464,229.77683585708678L429.1874220822334,226.08780859017583L430.1475729146322,222.97703677514028L431.10772374703083,219.0168839544913L432.0678745794296,219.6787941825007L433.02802541182837,227.99049931152436L433.988176244227,225.37020229412883L434.9483270766258,222.80325360726897L435.90847790902455,222.52283570127085L436.86862874142327,231.86564297407156L437.828779573822,236.10093291808266L438.78893040622074,237.15684953005922L439.74908123861945,225.20659337304278L440.7092320710182,221.98188272608894L441.66938290341693,223.30508751739833L442.62953373581564,222.85619822652316L443.5896845682144,215.34209004746725L444.54983540061306,211.00942109594408L445.50998623301183,219.12529252686707L446.4701370654106,215.61814107907034L447.4302878978093,213.9120696501854L448.390438730208,215.98664346696305L449.3505895626068,228.82105188881928L450.3107403950055,231.58468569392375L451.27089122740426,232.58071318084797L452.231042059803,234.8480620482415L453.1911928922017,231.54275571827282L454.15134372460045,228.32618701477918L455.1114945569992,227.70872990001195L456.0716453893979,223.23661934353203L457.03179622179664,219.36548830313382L457.9919470541954,214.57415441584052L458.95209788659406,217.27658104288585L459.9122487189928,220.9695801713444L460.8723995513916,220.99020471309905L461.8325503837903,227.35263223507306L462.792701216189,231.49666101092268L463.7528520485878,227.5820584190895L464.7130028809865,227.9204550678175L465.67315371338526,227.31900359657968L466.633304545784,227.1092382265015L467.5934553781827,230.63947998467944L468.55360621058145,232.38466467142896L469.51375704298016,232.0268443710751L470.47390787537887,227.89193828743242L471.43405870777764,224.5736444413977L472.39420954017635,222.99701866315712L473.3543603725751,228.67457632086817L474.3145112049738,232.15227924766285L475.27466203737254,230.15058259156763L476.2348128697713,230.45412538978732L477.19496370217007,236.775342732986L478.1551145345687,233.7114023743892L479.1152653669675,233.86165134996642L480.07541619936626,230.03012036919262L481.0355670317649,222.75145362004636L481.9957178641637,217.56073002292723L482.95586869656245,225.8951795782292L483.91601952896116,224.5736892334041L484.87617036135987,225.17339588119484L485.83632119375864,220.76592923234153L486.79647202615735,222.26456547530228L487.7566228585561,218.5162576069607L488.7167736909548,214.28416641225954L489.67692452335353,210.91384633968875L490.6370753557523,211.82469938689277L491.59722618815107,217.09441818862027L492.5573770205497,218.6785750379622L493.5175278529485,216.4092258536393L494.4776786853472,218.9174617422543L495.4378295177459,218.42283650622974L496.3979803501447,228.04961438617516L497.3581311825434,222.80177230249734L498.31828201494216,226.78722847108023L499.27843284734087,223.7046458685311L500.2385836797396,224.16929414267221L501.19873451213834,228.52859036092016L502.1588853445371,233.39749276200965L503.11903617693577,234.1657976238157L504.07918700933453,227.35629794758285L505.0393378417333,223.32372000458412L505.99948867413195,221.9788210400842L506.9596395065307,224.06395558024752L507.9197903389295,225.87399801162152L508.8799411713282,221.61515602782535L509.8400920037269,215.8942965909503L510.8002428361257,221.436682229165L511.7603936685244,229.76251196167232L512.7205445009231,231.18510813273804L513.6806953333219,226.4619177209159L514.6408461657206,226.8127414466267L515.6009969981193,225.7755452833631L516.561147830518,226.89296110822212L517.5212986629168,235.0948038439901L518.4814494953156,242.06395930683624L519.4416003277142,240.25219913838254L520.401751160113,229.97954995460609L521.3619019925118,221.73971862593962L522.3220528249104,219.55393687006557L523.2822036573092,229.36753262596906L524.242354489708,227.5516133749876L525.2025053221066,226.00162246762625L526.1626561545054,229.70382442641989L527.1228069869042,230.21746476338336L528.0829578193028,227.08086825171122L529.0431086517016,226.50059051262878L530.0032594841003,228.1756934638889L530.963410316499,227.0310705705168L531.9235611488978,227.0920730950277L532.8837119812965,229.81478534021213L533.8438628136952,230.82417842644787L534.804013646094,233.39280926356903L535.7641644784927,232.30776258316362L536.7243153108914,228.81027063848947L537.6844661432901,227.86962258477L538.6446169756889,229.49645821693966L539.6047678080877,238.4475428368394L540.5649186404863,241.4134641478739L541.5250694728851,235.84834330020053L542.4852203052839,233.10731821872594L543.4453711376826,229.54498896098377L544.4055219700813,229.89504133406996L545.36567280248,230.04288276875212L546.3258236348788,228.1046069864126L547.2859744672775,227.82897115554954L548.2461252996762,225.52010004957236L549.206276132075,224.5598719991545L550.1664269644737,236.15806899675505L551.1265777968724,235.33922822258427L552.0867286292712,234.66410714909273L553.0468794616698,234.14737384590669L554.0070302940686,229.03817010882256L554.9671811264674,229.59493042150262L555.927331958866,235.32096042466324L556.8874827912648,235.6824536394969L557.8476336236636,236.50676440005486L558.8077844560622,233.56378274474812L559.767935288461,220.71961632572834L560.7280861208598,215.27347417980607L561.6882369532584,214.7431061056322L562.6483877856572,213.77153124112772L563.608538618056,213.23512406696724L564.5686894504547,210.3926698212651L565.5288402828534,211.1801539186144L566.4889911152521,207.3892782041913L567.4491419476509,205.25777777950339L568.4092927800497,203.6604755541543L569.3694436124483,203.4034823739869L570.3295944448471,217.47514174108244L571.2897452772459,220.17708557000583L572.2498961096445,231.804106366406L573.2100469420433,238.65456218664735L574.170197774442,231.26648129529713L575.1303486068407,227.10205528833183L576.0904994392395,231.58552782816759L577.0506502716382,229.55830015723296L578.010801104037,228.23377452154028L578.9709519364357,224.48686025098155L579.9311027688343,222.62956888718054L580.8912536012331,225.41035839536457L581.8514044336318,221.20358400892363L582.8115552660306,214.78692884225413L583.7717060984294,215.2617437090046L584.731856930828,214.70551152914646L585.6920077632268,217.54082802159826L586.6521585956256,219.1230848001493L587.6123094280242,227.2598717878603L588.572460260423,237.21680272133304L589.5326110928218,241.4887572323331L590.4927619252204,243.77880874491922L591.4529127576192,240.3614571278971L592.4130635900179,238.24987371405413L593.3732144224167,235.4835403850006L594.3333652548155,225.36793695159153L595.2935160872141,216.75767389516363L596.2536669196128,213.45410324415343L597.2138177520116,209.47242401216386L598.1739685844103,206.11929207398248L599.1341194168091,207.09621351184057L600.0942702492079,210.59039181614608L601.0544210816064,213.19755702067346L602.0145719140052,214.37833125830443L602.9747227464039,214.05060523542738L603.9348735788027,214.70960570945715L604.8950244112015,218.3176067577843L605.8551752436002,217.57605790254962L606.8153260759989,218.49035993595012L607.7754769083976,210.73071175109862L608.7356277407963,209.38197577244122L609.6957785731951,205.59853835575717L610.6559294055938,204.24109454373317L611.6160802379926,203.89556711132994L612.5762310703913,204.1807726209751L613.53638190279,202.50331495899323L614.4965327351888,200.9384472829182L615.4566835675876,202.35873593917597L616.4168343999862,201.7143989219426L617.376985232385,203.24877305174937L618.3371360647836,214.54396264781752L619.2972868971824,220.57030736392474L620.2574377295812,211.85268412780454L621.2175885619799,207.1568004395025L622.1777393943787,200.25394459534868L623.1378902267775,202.82506879853676L624.098041059176,204.50235860980706L625.0581918915748,203.17783494292138L626.0183427239735,204.48788376411576L626.9784935563723,206.25853800566674L627.9386443887711,205.3472214092395L628.8987952211697,203.88063013899796L629.8589460535684,206.79836482616395L630.8190968859672,201.92128262040885L631.7792477183659,201.03419455877258L632.7393985507647,197.89956900367883L633.6995493831635,199.24243779642003L634.6597002155621,201.41577020540467L635.6198510479609,202.3472581997882L636.5800018803596,199.16616236477756L637.5401527127583,202.10311658005588L638.5003035451571,203.39667946032165L639.4604543775558,202.14981694406157L640.4206052099545,199.25027895719757L641.3807560423533,196.40630975969495L642.340906874752,191.62759912273043L643.3010577071508,187.91925164064315L644.2612085395496,184.3395309041588L645.2213593719482,185.03726456439938L646.1815102043469,181.8419421367919L647.1416610367456,181.0695173403447L648.1018118691444,179.72444903564474L649.0619627015432,178.85171650988588L650.0221135339419,179.46832655523866L650.9822643663406,179.12310770700068L651.9424151987392,178.0104805788503L652.902566031138,178.84587891990725L653.8627168635368,179.14474607335532L654.8228676959355,179.34298074134108L655.7830185283343,179.7763730417495L656.743169360733,177.33904483495851L657.7033201931317,173.3115652440256L658.6634710255305,171.9609564424365L659.6236218579292,172.28090468937287L660.5837726903279,178.79329790256108L661.5439235227267,180.88091348811025L662.5040743551253,181.5596170827862L663.4642251875241,182.38439204464157L664.4243760199229,182.2730393024968L665.3845268523216,182.68857417089876L666.3446776847204,179.94319871260393L667.3048285171191,177.5873427525663L668.2649793495177,177.9701861158714L669.2251301819165,177.4843181968749L670.1852810143153,175.90997179785282L671.145431846714,172.83737695655782L672.1055826791128,170.10649041324004L673.0657335115113,166.11204128444584L674.0258843439101,166.04567080461715L674.9860351763089,165.12450444017819L675.9461860087076,166.4992453686206L676.9063368411064,167.9754687102264L677.8664876735052,172.04770642878356L678.8266385059038,172.99480819921956L679.7867893383026,174.17221990611878L680.7469401707012,175.27096066367227L681.7070910031,174.27295263973332L682.6672418354988,172.40469990881346L683.6273926678975,173.438400950849L684.5875435002962,172.85486520245286L685.547694332695,172.1667989229521L686.5078451650937,172.91650493450607L687.4679959974925,173.82503208523116L688.4281468298911,172.51893376061778L689.3882976622899,169.01244261250793L690.3484484946886,166.62171979265028L691.3085993270873,165.70548613079856L692.2687501594861,167.16138804831002L693.2289009918849,168.27530936869644L694.1890518242836,167.26788436807018L695.1492026566824,167.52517072868946L696.109353489081,166.7254738902315L697.0695043214797,166.94144744172968L698.0296551538785,165.03468352495125L698.9898059862772,165.59238030681792L699.949956818676,165.96276210888186L700.9101076510747,167.30623659158158L701.8702584834733,166.80402706727148L702.8304093158721,165.29484486909868L703.7905601482709,162.3408368116598L704.7507109806696,162.07942724822226L705.7108618130684,160.3706150672508L706.671012645467,158.4242096226429L707.6311634778658,157.63297791685486L708.5913143102646,155.4736623243856L709.5514651426632,155.43147957930307L710.511615975062,155.02581739502747L711.4717668074608,153.77493028879172L712.4319176398594,150.14878440168417L713.3920684722582,147.25001105213127L714.352219304657,146.19669244748417L715.3123701370557,146.37113605282013L716.2725209694545,145.643210541962L717.2326718018531,146.9335292946362L718.1928226342518,148.7250865192097L719.1529734666506,148.74018731860215L720.1131242990493,148.3742822668108L721.0732751314481,146.1778278187086L722.0334259638469,142.60480488329665L722.9935767962455,139.8959540693446L723.9537276286442,139.42002112382994L724.9138784610429,139.7722529153239L725.8740292934417,140.11404731398824L726.8341801258405,140.98507758119482L727.7943309582392,143.4779631847272L728.7544817906379,146.16835286622555L729.7146326230367,147.82643091676724L730.6747834554354,147.6429899397806L731.6349342878341,146.550155928974L732.5950851202329,145.76726233001145L733.5552359526316,143.67127890331759L734.5153867850303,141.10380845944158L735.475537617429,138.9041362501669L736.4356884498278,138.30604206263075L737.3958392822266,138.88033466575192L738.3559901146253,139.3141250292197L739.316140947024,137.83074518137374L740.2762917794226,136.59538027313437L741.2364426118214,133.225003220133L742.1965934442202,130.72090931960335L743.156744276619,129.46344203190432L744.1168951090177,129.545982649224L745.0770459414163,129.28159422057885L746.037196773815,127.73996713571431L746.9973476062138,129.47578268801794L747.9574984386126,130.23535204924747L748.9176492710113,129.0749021428272L749.8778001034101,129.41811482353006L750.8379509358087,126.07244936422956L751.7981017682075,125.04216315717483L752.7582526006062,122.49023591792728L753.7184034330049,121.49571513539858L754.6785542654037,121.57767561313706L755.6387050978025,121.17293680558659L756.5988559302011,121.95030263597454L757.5590067625999,123.85595051686524L758.5191575949987,122.62007835079991L759.4793084273974,120.57097910467087L760.4394592597961,117.49162176558458L761.3996100921948,115.72750595201884L762.3597609245935,114.81532359913483L763.3199117569923,113.22880091313935L764.280062589391,115.177430790634L765.2402134217898,113.43855334773002L766.2003642541886,113.87497751937867L767.1605150865873,114.0223282213272L768.1206659189859,115.17051232222796L769.0808167513846,114.91301564729771L770.0409675837834,114.00655148840589L771.0011184161822,113.29289252696945L771.961269248581,112.93215443383626L772.9214200809796,113.66289683648698L773.8815709133783,112.81663117842359L774.841721745777,109.81720203464478L775.8018725781758,108.02116581338694L776.7620234105746,108.04111658438757L777.7221742429733,106.86309746596825L778.682325075372,106.78530870539068L779.6424759077707,104.66493749449316L780.6026267401695,103.52463655441237L781.5627775725682,102.39743461900848L782.5229284049669,102.3579473266491L783.4830792373657,104.17197212397419L784.4432300697644,106.26314820406049L785.4033809021631,107.10685523745148L786.3635317345619,108.69482014975397L787.3236825669607,110.24474868996496L788.2838333993594,110.08281959423539L789.2439842317581,107.15221679771439L790.2041350641567,108.2580063919398L791.1642858965555,108.32636564672521L792.1244367289543,105.87101278448654L793.084587561353,103.59633431547817L794.0447383937518,102.34618067416386L795.0048892261505,102.22780470274901L795.9650400585491,101.47274909465523L796.9251908909479,100.96207476774865L797.8853417233466,100.55104254786225L798.8454925557454,100.85533434231778L799.8056433881442,100.02275810396192L800.7657942205428,100.90222598989641L801.7259450529416,101.70826528222014L802.6860958853404,101.70029465063716L803.646246717739,100.93486705285542L804.6063975501378,98.55280855762983L805.5665483825366,98.49995344216299L806.5266992149352,97.72683873587752L807.486850047334,96.21759150898217L808.4470008797327,95.680155235783L809.4071517121315,92.42892805794642L810.3673025445303,90.21901691668806L811.3274533769289,89.44230540096069L812.2876042093276,90.67156921649884L813.2477550417264,91.34394473565278L814.2079058741251,92.60240757870116L815.1680567065239,92.54081520538773L816.1282075389227,92.55093622652183L817.0883583713212,91.13406118518162L818.04850920372,90.31470194905229L819.0086600361187,90.28304691918734L819.9688108685175,87.83062367057782L820.9289617009163,85.90959415966785L821.889112533315,85.45671857861407L822.8492633657137,84.56306341047645L823.8094141981124,84.0712532518164L824.7695650305111,84.24974482198064L825.7297158629099,83.60795617457534L826.6898666953086,83.9493506459498L827.6500175277074,83.45384664708244L828.6101683601061,82.25383171488399L829.5703191925048,82.25292817412382L830.5304700249036,83.07821403866872L831.4906208573024,82.9170387563961L832.450771689701,82.35815841728022L833.4109225220998,82.40084838185724L834.3710733544984,81.46230803380558L835.3312241868972,79.80475374126873L836.291375019296,79.3653221855334L837.2515258516947,77.24551054839435L838.2116766840935,77.13102176204617L839.1718275164923,75.71581646294389L840.1319783488908,74.31955306115466L841.0921291812896,73.92041700336728L842.0522800136883,73.47739633291917L843.0124308460871,72.72049849644286L843.9725816784859,72.46412276300377L844.9327325108845,72.54960009166003L845.8928833432832,73.13434970201408L846.853034175682,71.76919869873527L847.8131850080807,71.19102696722737L848.7733358404795,71.84523910046416L849.7334866728783,69.71691701672054L850.6936375052769,68.5561933083048L851.6537883376757,68.33154108001587L852.6139391700744,69.34681562552902L853.5740900024731,70.32956920500405L854.5342408348719,69.89718664136113L855.4943916672706,67.85139605238592L856.4545424996693,66.16300349726848L857.414693332068,65.64308848948495L858.3748441644668,64.76939449120933L859.3349949968656,64.16751542530704L860.2951458292644,63.99265867517433L861.255296661663,64.47094785846656L862.2154474940617,64.09995846570264L863.1755983264604,63.473638673212335L864.1357491588592,62.6830174233779L865.095899991258,62.803100763407194L866.0560508236567,62.28263998514443L867.0162016560554,62.97049107259837L867.976352488454,62.50305476092893L868.9365033208528,62.21128026174924L869.8966541532516,61.9391896022377L870.8568049856503,63.19672805823161L871.8169558180491,63.10118161673115L872.7771066504478,62.30885666616444L873.7372574828465,61.65132104419509L874.6974083152453,60.08922601968003L875.657559147644,58.8860604131658L876.6177099800427,58.23544909266514L877.5778608124415,58.21786310166211L878.5380116448401,56.49992994684748L879.4981624772389,55.971209066624226L880.4583133096377,55.567664734464856L881.4184641420364,55.0842002753699L882.3786149744352,54.15288834296082L883.3387658068339,54.045143207949465L884.2989166392325,55.00465571278016L885.2590674716313,55.644917501837774L886.21921830403,54.92698297220783L887.1793691364288,54.46838939113444L888.1395199688276,54.61943518462877L889.0996708012261,54.374811333161865L890.0598216336249,53.44512551281355L891.0199724660237,53.14442383627106L891.9801232984224,52.54360688334643L892.9402741308212,52.42571153941074L893.90042496322,51.47467772985754L894.8605757956186,49.79107211822286L895.8207266280174,49.379554734571336L896.780877460416,49.922499065767504L897.7410282928148,49.84163651008368L898.7011791252136,49.019604799543615L899.6613299576123,48.08282570128413L900.621480790011,46.70393852413588L901.5816316224098,46.13877383340296L902.5417824548085,45.773697679887526L903.5019332872073,45.722726568709895L904.462084119606,45.825083234001035L905.4222349520047,45.7610997092967L906.3823857844034,45.694846803368726L907.3425366168021,45.34480352578425L908.3026874492009,45.33951370740916L909.2628382815997,45.80381220850543L910.2229891139984,46.50359530703223L911.1831399463972,47.124071276544576L912.1432907787957,46.656971571323226L913.1034416111945,46.65076070431429L914.0635924435933,47.772589190209516L915.023743275992,47.36900338936788L915.9838941083908,47.277059587227576L916.9440449407895,47.093084011725054L917.9041957731881,46.84281608250712L918.8643466055869,46.23924900355269L919.8244974379857,45.286992198699366L920.7846482703844,43.74804209084021L921.7447991027832,43.46470817067712L922.7049499351818,43.102960339941404L923.6651007675806,41.82018232757934L924.6252515999794,40.95073620163875L925.585402432378,42.087458261325395L926.5455532647768,41.21557974657891L927.5057040971756,40.92092153923246L928.4658549295742,39.983331756942725L929.426005761973,38.89213305181781L930.3861565943718,38.700666399655006L931.3463074267705,39.4358259956441L932.3064582591693,38.956282462172574L933.266609091568,38.89044112539236L934.2267599239666,39.1389017110957L935.1869107563654,39.42639418374453L936.1470615887641,39.54079978813348L937.1072124211629,40.07206723766903L938.0673632535617,40.86030526278132L939.0275140859603,40.81669407733559L939.987664918359,40.04170363218436L940.9478157507577,39.36152841122986L941.9079665831565,38.381532757463155L942.8681174155553,38.078178766065385L943.828268247954,36.934645691708596L944.7884190803527,37.163149648350554L945.7485699127515,37.32410448690165L946.7087207451502,37.49729258361945L947.6688715775489,38.24019411285255L948.6290224099477,37.414601661806344L949.5891732423464,37.442833227040495L950.5493240747451,37.63317389729178L951.5094749071438,36.0152464403642L952.4696257395426,34.370934674460905L953.4297765719414,34.142598608951424L954.3899274043401,34.05566619576731L955.3500782367388,33.28883064517709L956.3102290691374,33.999624953065855L957.2703799015362,34.68898742079484L958.230530733935,33.99698181678832L959.1906815663338,33.855109143068375L960.1508323987325,34.293811997178324L961.1109832311311,34.13337563135565L962.0711340635298,34.42171609810724L963.0312848959286,34.12383621569754L963.9914357283274,32.91436458221513L964.9515865607261,32.33529794329101L965.9117373931249,30.833751823100698L966.8718882255235,30.013240176443006L967.8320390579223,30.153247958021925L968.792189890321,29.862287095542367L969.7523407227197,29.114802511321116L970.7124915551185,29.25708673008888L971.6726423875173,30.422162862537956L972.6327932199159,30.08998599301081L973.5929440523147,30.867733084200115L974.5530948847135,31.84692501288752L975.5132457171122,32.20199086986909L976.4733965495109,32.550992424865214L977.4335473819096,32.3938375410445L978.3936982143083,32.78326780370056L979.3538490467071,32.296413935665605L980.3139998791058,33.07493908960443L981.2741507115046,32.884031423608455L982.2343015439034,33.389591047106414L983.1944523763021,32.37071617562775L984.1546032087007,33.473027725242105L985.1147540410994,33.98489531627595L986.0749048734982,33.84327828783177L987.035055705897,32.82707433496201L987.9952065382957,31.433871825381985L988.9553573706944,31.569586598930467L989.915508203093,30.966087603514705L990.8756590354918,31.22861152867026L991.8358098678906,31.29263140533936L992.7959607002894,31.150847987361132L993.7561115326881,31.682500317140324L994.7162623650868,31.53482737375643L995.6764131974855,32.12088622844253L996.6365640298843,32.274429366897635L997.596714862283,32.04563934339465L998.5568656946817,31.98064099043057L999.5170165270805,31.969474841947488L1000.4771673594792,32.95619887783045L1001.4373181918779,32.18047252697044L1002.3974690242767,32.26496022511184L1003.3576198566755,33.0529244432226L1004.3177706890742,32.404816706347724L1005.2779215214729,31.100191006186876L1006.2380723538715,31.464458759767364L1007.1982231862703,30.182439018768168L1008.1583740186691,30.53025275442076L1009.1185248510678,30.77126303060689L1010.0786756834666,31.336414782367694L1011.0388265158653,31.04504658807029L1011.9989773482639,30.94869638929872L1012.9591281806627,29.847872163901204L1013.9192790130614,28.915902464198368L1014.8794298454602,28.89248829890656L1015.839580677859,28.145926722294718L1016.7997315102576,27.28872697464651L1017.7598823426564,26.21936596189085L1018.7200331750552,25.417934848864356L1019.6801840074538,25.020784265604554L1020.6403348398526,23.908033235405753L1021.6004856722514,25.578492773143086L1022.56063650465,25.97571796111717L1023.5207873370488,25.113398005716892L1024.4809381694474,25.769206112089222L1025.4410890018462,25.687287714142645L1026.401239834245,25.193169996369548L1027.3613906666437,25.26029232933469L1028.3215414990425,24.704523465253985L1029.2816923314413,24.338829895440885L1030.2418431638398,24.051956469824503L1031.2019939962386,23.730612353819787L1032.1621448286373,23.033522285801833L1033.122295661036,21.889010079843228L1034.0824464934349,22.68582429771846L1035.0425973258336,22.227322014651268L1036.0027481582324,22.6730918041596L1036.9628989906312,23.09662720698836L1037.9230498230297,24.625643226660962L1038.8832006554285,25.3658203476744L1039.8433514878272,25.725709762956686L1040.803502320226,25.3023853906335L1041.7636531526248,24.50642805604087L1042.7238039850236,23.915427255404357L1043.6839548174223,22.296825719885177L1044.6441056498209,21.088157698453543L1045.6042564822196,21.10971560058904L1046.5644073146184,21.073927867198556L1047.5245581470172,21.449866616087263L1048.484708979416,21.559160323590223L1049.4448598118147,21.96286094541493L1050.4050106442132,21.93839460364468L1051.365161476612,21.952834557707583L1052.3253123090108,21.906401431944612L1053.2854631414095,21.24113905921417L1054.2456139738083,21.552168566756386L1055.205764806207,20.722078710132827L1056.1659156386056,22.002065915769446" fill="none"></path></g></g></g></g><g opacity="0.2"><g><g><g><path style="fill: none;" stroke="rgb(255, 112, 67)" stroke-width="2px" d="M96.97523407227197,335.2584354184567L97.93538490467071,334.9298654744745L98.89553573706944,332.76660854851355L99.85568656946818,328.7204808664819L100.8158374018669,325.0673053296842L101.77598823426564,316.3467904143017L102.73613906666438,311.51917279377665L103.6962898990631,303.9114486735319L104.65644073146184,296.1409172669145L105.61659156386057,297.2810920081977L106.5767423962593,285.0479500337063L107.53689322865804,284.3817569832184L108.49704406105676,279.3880774269837L109.4571948934555,275.5669694663518L110.41734572585423,271.79434455791164L111.37749655825296,277.7262609574884L112.3376473906517,274.34793494573194L113.29779822305042,272.2823174998795L114.25794905544916,271.50688794291L115.2180998878479,271.89273223327007L116.17825072024662,274.2031591648813L117.13840155264536,274.35526725918066L118.09855238504409,281.9275269245814L119.05870321744283,275.9718179160586L120.01885404984156,278.51381127750585L120.97900488224029,280.26107164453686L121.93915571463903,278.0637718347066L122.89930654703777,287.3093701764507L123.85945737943648,283.66109531853965L124.81960821183522,278.84892792992446L125.77975904423394,275.41381389870253L126.73990987663268,279.12306666947836L127.70006070903142,278.97993691817743L128.66021154143016,278.9400581113591L129.6203623738289,279.19122725674185L130.5805132062276,275.5431768574058L131.54066403862635,274.55937492334635L132.50081487102509,277.1416211892368L133.4609657034238,277.1303234409637L134.42111653582253,279.12112136182867L135.38126736822127,278.2384754255522L136.34141820062,277.62652653068017L137.30156903301875,277.21202636224996L138.26171986541746,277.58934122676146L139.2218706978162,282.2253086340313L140.18202153021494,282.50027038836004L141.14217236261368,281.26155833266847L142.10232319501242,277.9848372358449L143.06247402741113,282.1729349665401L144.02262485980987,282.8395769341779L144.98277569220858,279.36473373518766L145.94292652460734,282.0654193091332L146.90307735700605,280.51964792289334L147.8632281894048,277.7280566260881L148.82337902180353,282.53580966272904L149.78352985420227,281.76486927725875L150.74368068660098,284.2241870635949L151.70383151899972,283.9130126591723L152.66398235139846,283.59151316030136L153.6241331837972,287.9132385626241L154.5842840161959,284.12998928163574L155.54443484859468,282.93788979001135L156.5045856809934,285.4514517319634L157.4647365133921,285.85854476741986L158.42488734579086,280.06489485001987L159.38503817818957,281.4480085889371L160.3451890105883,280.1155476684363L161.30533984298705,278.9550220163566L162.2654906753858,277.27577259753923L163.2256415077845,277.2667194350157L164.18579234018324,282.8718241494475L165.14594317258198,289.2195126493793L166.10609400498072,281.64268899295433L167.06624483737943,277.43768204961196L168.0263956697782,279.64882347156487L168.9865465021769,280.39896402908863L169.94669733457565,278.8335151077771L170.90684816697438,273.4995563518997L171.86699899937312,277.1451377069112L172.82714983177183,280.60112638560463L173.7873006641706,276.58301861568077L174.7474514965693,280.3879655589155L175.70760232896802,276.6079335175016L176.66775316136676,281.77736413793167L177.6279039937655,281.9047069694602L178.58805482616424,281.1720741807835L179.54820565856295,280.800744878271L180.50835649096172,282.45672542481736L181.46850732336043,281.508163487027L182.42865815575917,282.3191323183655L183.3888089881579,281.8151479980503L184.34895982055664,277.9094191546576L185.30911065295535,278.7720882777624L186.26926148535406,281.20701489895265L187.22941231775283,276.6761689242901L188.18956315015154,274.3765908238021L189.14971398255028,275.48212412501607L190.10986481494902,278.27610964662085L191.07001564734776,274.6142924546871L192.03016647974647,277.5985440283349L192.99031731214524,280.95330188972036L193.95046814454395,279.1238896842532L194.9106189769427,282.6401080805615L195.87076980934143,277.467460220557L196.83092064174016,279.53756683790857L197.79107147413887,282.2472307548526L198.7512223065376,282.5377549703787L199.71137313893635,279.13922768687564L200.6715239713351,283.255124575958L201.6316748037338,281.94211673195394L202.59182563613257,270.73729430888955L203.55197646853128,275.2489116656303L204.51212730093,271.1996041537867L205.47227813332876,278.162458788165L206.43242896572747,282.1908168330121L207.3925797981262,277.36473301274924L208.35273063052495,271.7955416703114L209.31288146292368,276.83276619008876L210.2730322953224,273.0870014911191L211.23318312772113,271.83489674045484L212.19333396011987,272.1795902920718L213.1534847925186,267.6469486488096L214.11363562491732,271.9336585134382L215.0737864573161,271.2902105985465L216.0339372897148,278.8553624090734L216.9940881221135,283.4280324982039L217.95423895451228,281.5270180073238L218.914389786911,285.76000745301144L219.87454061930973,278.0003248775173L220.83469145170847,275.17573817019263L221.7948422841072,280.462261347228L222.75499311650591,274.7315346503424L223.71514394890465,283.5568717202322L224.6752947813034,280.73767201870663L225.63544561370213,275.08348569588316L226.59559644610084,273.7152610424384L227.5557472784996,274.26406225822103L228.51589811089832,266.3268329499317L229.47604894329703,268.1721068946962L230.4361997756958,272.8779557383043L231.3963506080945,274.9441717403566L232.35650144049325,278.9620550517054L233.316652272892,274.07813573862734L234.27680310529072,273.7927740703253L235.23695393768944,269.56532126948673L236.19710477008817,262.7859241103776L237.1572556024869,268.4563462701234L238.11740643488565,266.59895156231096L239.07755726728436,268.2727391558043L240.03770809968313,266.87331476043977L240.99785893208184,265.7412953473803L241.95800976448058,272.29092174525306L242.91816059687932,271.8723065029485L243.87831142927806,267.7079265616743L244.83846226167677,262.5549562367415L245.79861309407553,257.7784777615453L246.75876392647424,257.30980825702414L247.71891475887296,265.01360064735275L248.6790655912717,270.6387569944811L249.63921642367043,266.97693980254735L250.59936725606917,275.1917495485399L251.55951808846788,273.5520048389159L252.51966892086665,271.8848013636214L253.47981975326536,270.27019601439315L254.4399705856641,258.45611819935624L255.40012141806284,273.1694526076552L256.36027225046155,256.62588297911424L257.3204230828603,260.3996301804292L258.280573915259,260.01199022146943L259.2407247476578,260.03742885996513L260.2008755800565,252.5158220129809L261.1610264124552,255.5468357897458L262.121177244854,263.39188744325065L263.0813280772527,259.75633190458746L264.0414789096514,253.1455779547999L265.00162974205017,261.3717602685906L265.9617805744489,264.9105741614451L266.9219314068476,260.6314958883652L267.88208223924636,252.21055835103226L268.84223307164507,264.1520538171227L269.80238390404384,265.9980759571371L270.76253473644255,263.2132184175807L271.7226855688413,259.1725151511107L272.68283640124,248.95523563835508L273.64298723363873,260.63927711896383L274.6031380660375,257.22294278851376L275.5632888984362,259.73194073944154L276.5234397308349,271.5356934600302L277.4835905632337,267.64216019921037L278.4437413956324,277.06560455184956L279.4038922280311,266.6258865913064L280.3640430604299,274.5191968384281L281.3241938928286,276.6977917670115L282.28434472522736,270.4541024068122L283.24449555762607,263.9608151112549L284.20464639002483,274.9910835825237L285.16479722242354,264.8109893736868L286.12494805482226,267.9626870442564L287.085098887221,254.30400866017996L288.04524971961973,262.49749484155114L289.0054005520185,255.6895914434218L289.96555138441715,247.12230691521353L290.9257022168159,258.40247259994027L291.8858530492147,248.5497886324483L292.8460038816134,257.51788135601413L293.8061547140121,263.0123279929895L294.7663055464109,264.0086247877218L295.7264563788096,261.77234400537316L296.68660721120835,261.3258210802483L297.64675804360706,255.43049142839038L298.6069088760058,246.82908919678786L299.56705970840454,244.16169831146175L300.5272105408032,248.58891924401672L301.48736137320196,247.535385512669L302.44751220560073,241.17812011353882L303.40766303799944,245.9790645734059L304.36781387039815,260.3298983831409L305.3279647027969,259.4986534605308L306.28811553519563,251.3551467218512L307.2482663675944,258.44601756348294L308.2084171999931,248.38368928697625L309.1685680323918,252.98598790800176L310.1287188647906,252.95815504470644L311.08886969718935,249.0500319765141L312.049020529588,252.47661658188747L313.0091713619868,242.3019093788497L313.96932219438554,232.99997193479007L314.9294730267842,231.7727072664216L315.88962385918296,238.76765947701946L316.84977469158173,255.8790344806899L317.80992552398044,248.4552167528642L318.77007635637915,243.32416854875268L319.7302271887779,232.05836821282352L320.6903780211766,262.2838850977121L321.6505288535754,269.6125323897538L322.6106796859741,267.8194824734305L323.5708305183728,261.2634215964088L324.5309813507716,242.80739008966464L325.4911321831703,237.06633829833078L326.451283015569,233.36456748005372L327.41143384796777,232.18114705332786L328.3715846803665,232.72486054141137L329.33173551276525,239.43018637078296L330.29188634516396,223.55595221277935L331.25203717756267,230.28050666007272L332.21218800996144,233.00461074533928L333.1723388423602,227.24268430653393L334.13248967475886,225.8184198288736L335.0926405071576,227.18425025751876L336.0527913395564,230.15473503856887L337.01294217195505,236.94348463830144L337.9730930043538,242.31769629862205L338.9332438367526,249.13891757219915L339.8933946691513,262.24662497426834L340.85354550155,259.6254725553845L341.81369633394877,277.71354163824054L342.7738471663475,278.31763448298886L343.73399799874625,269.866843955186L344.69414883114496,266.2027821775026L345.65429966354367,267.58821532169446L346.61445049594244,256.72030521964837L347.5746013283412,243.8054825529967L348.53475216073986,244.1809269293835L349.4949029931386,233.8167766890776L350.45505382553733,236.36101463627446L351.41520465793604,234.3506139998628L352.3753554903348,221.13868299948612L353.3355063227335,225.7239227688145L354.2956571551323,227.20662129548998L355.255807987531,229.65711037787761L356.2159588199297,236.7334662316618L357.1761096523285,245.75408226176876L358.13626048472725,244.74925604118786L359.0964113171259,262.3076028871331L360.05656214952467,259.1092926524963L361.01671298192343,236.75269484958355L361.9768638143221,244.19611529295594L362.93701464672085,233.76200879678683L363.8971654791196,234.31163302734433L364.85731631151833,253.89212717512427L365.81746714391704,228.45939942187917L366.7776179763158,219.60316188816952L367.7377688087145,243.6640736507705L368.6979196411133,241.7160724981983L369.658070473512,244.73331948236554L370.6182213059107,253.50239226946485L371.5783721383095,250.73264827395596L372.53852297070813,244.01086214908713L373.4986738031069,237.24156562585128L374.45882463550566,242.3922165455095L375.4189754679044,249.52281655490955L376.3791263003031,246.4865654113955L377.33927713270185,240.48499203405547L378.29942796510056,242.40246682043278L379.25957879749933,235.1034480602861L380.21972962989804,225.47410037488154L381.17988046229675,218.16385868598672L382.1400312946955,243.02010199920386L383.1001821270943,243.60189862550595L384.06033295949294,240.28844114191355L385.0204837918917,224.12637627128333L385.9806346242905,229.4485135422127L386.9407854566891,217.63271487810113L387.9009362890879,213.8760265284833L388.86108712148666,215.2409591228286L389.8212379538854,213.3678523147688L390.7813887862841,207.55377666704723L391.74153961868285,208.68437450913197L392.70169045108156,216.45423254002444L393.6618412834803,211.79237757710894L394.62199211587904,233.38933274282454L395.58214294827775,219.79013588111306L396.5422937806765,219.7513793671696L397.5024446130752,236.88886638506062L398.46259544547394,234.41570698660183L399.4227462778727,224.9342026825724L400.3828971102714,224.8522004831862L401.3430479426702,212.16041482052202L402.3031987750689,212.81306553698718L403.2633496074676,214.8844440862636L404.22350043986637,208.49889690668817L405.18365127226514,198.73397624200646L406.1438021046638,205.00781787077568L407.10395293706256,215.0953603272031L408.0641037694613,217.93655696907499L409.02425460186,208.37918566670834L409.98440543425875,224.24825727748782L410.9445562666575,227.79881783576533L411.9047070990562,263.2192787991047L412.86485793145494,262.82004181377187L413.8250087638537,237.35416901095732L414.7851595962524,211.36216530843134L415.7453104286512,217.46265009780473L416.7054612610499,225.27530489699L417.6656120934486,210.95559600964975L418.62576292584737,231.49565056539322L419.58591375824614,227.83338445630952L420.5460645906448,236.20441737047582L421.50621542304356,283.49589380736745L422.46636625544227,278.2926447616431L423.426517087841,258.91880214187836L424.38666792023974,228.311855318604L425.34681875263846,233.10531782597235L426.3069695850372,232.7316691181852L427.26712041743593,218.0690623478277L428.22727124983464,229.1687633382848L429.1874220822334,220.55426768980948L430.1475729146322,218.31087905258698L431.10772374703083,213.07665472351783L432.0678745794296,220.67165952451472L433.02802541182837,240.45805700506L433.988176244227,221.43975676803547L434.9483270766258,218.95283057697895L435.90847790902455,222.10220884227397L436.86862874142327,245.8798538832726L437.828779573822,242.45386783409913L438.78893040622074,238.740724448024L439.74908123861945,207.2812091375181L440.7092320710182,217.1448167556582L441.66938290341693,225.28989470436255L442.62953373581564,222.1828642902104L443.5896845682144,204.07092777888334L444.54983540061306,204.5104176686594L445.50998623301183,231.2990996732513L446.4701370654106,210.35741390737542L447.4302878978093,211.3529625068579L448.390438730208,219.09850419212944L449.3505895626068,248.0726645216036L450.3107403950055,235.73013640158064L451.27089122740426,234.0747544112342L452.231042059803,238.24908534933172L453.1911928922017,226.58479622331964L454.15134372460045,223.50133395953853L455.1114945569992,226.78254422786137L456.0716453893979,216.52845350881194L457.03179622179664,213.5587917425367L457.9919470541954,207.38715358490026L458.95209788659406,221.3302209834539L459.9122487189928,226.50907886403238L460.8723995513916,221.0211415257309L461.8325503837903,236.89627351803438L462.792701216189,237.712704174697L463.7528520485878,221.71015453133995L464.7130028809865,228.42805004090945L465.67315371338526,226.4168263897229L466.633304545784,226.79459017138433L467.5934553781827,235.9348426219462L468.55360621058145,235.0024417015531L469.51375704298016,231.49011392054416L470.47390787537887,221.68957916196842L471.43405870777764,219.5962036723457L472.39420954017635,220.63207999579637L473.3543603725751,237.1909128074348L474.3145112049738,237.36883363785486L475.27466203737254,227.14803760742484L476.2348128697713,230.90943958711688L477.19496370217007,246.2571687477841L478.1551145345687,229.11549183649376L479.1152653669675,234.08702481333214L480.07541619936626,224.282823898032L481.0355670317649,211.83345349632702L481.9957178641637,209.7746446272485L482.95586869656245,238.39685391118186L483.91601952896116,222.59145371616665L484.87617036135987,226.07295585288077L485.83632119375864,214.1547292590614L486.79647202615735,224.51251983974336L487.7566228585561,212.8937958044486L488.7167736909548,207.9360296202079L489.67692452335353,205.85836623083253L490.6370753557523,213.19097895769858L491.59722618815107,224.9989963912115L492.5573770205497,221.05481031197525L493.5175278529485,213.00520207715485L494.4776786853472,222.67981557517678L495.4378295177459,217.680898652193L496.3979803501447,242.48978120609308L497.3581311825434,214.93000917698095L498.31828201494216,232.76541272395454L499.27843284734087,219.08077196470742L500.2385836797396,224.86626655388383L501.19873451213834,235.06753468829214L502.1588853445371,240.70084636364413L503.11903617693577,235.31825491652495L504.07918700933453,217.1420484332337L505.0393378417333,217.27485309008634L505.99948867413195,219.96147259333424L506.9596395065307,227.1916573904925L507.9197903389295,228.58906165868234L508.8799411713282,215.22689305213098L509.8400920037269,207.31300743563776L510.8002428361257,229.75026068648694L511.7603936685244,242.25125656043323L512.7205445009231,233.3190023893364L513.6806953333219,219.37713210318256L514.6408461657206,227.33897703519273L515.6009969981193,224.21975103846762L516.561147830518,228.5690848455107L517.5212986629168,247.3975679476422L518.4814494953156,252.51769250110556L519.4416003277142,237.53455888570198L520.401751160113,214.57057617894142L521.3619019925118,209.3799716329399L522.3220528249104,216.27526423625454L523.2822036573092,244.08792625982414L524.242354489708,224.82773449851533L525.2025053221066,223.67663610658403L526.1626561545054,235.25712736461023L527.1228069869042,230.98792526882866L528.0829578193028,222.37597348420292L529.0431086517016,225.6301739040053L530.0032594841003,230.68834789077908L530.963410316499,225.31413623045847L531.9235611488978,227.18357688179387L532.8837119812965,233.8988537079888L533.8438628136952,232.33826805580142L534.804013646094,237.24575551925057L535.7641644784927,230.68019256255545L536.7243153108914,223.564032721478L537.6844661432901,226.45865050419087L538.6446169756889,231.936711665194L539.6047678080877,251.87416976668885L540.5649186404863,245.86234611442555L541.5250694728851,227.5006620286905L542.4852203052839,228.9957805965139L543.4453711376826,224.2014950743707L544.4055219700813,230.42011989369922L545.36567280248,230.26464492077537L546.3258236348788,225.19719331290315L547.2859744672775,227.41551740925485L548.2461252996762,222.05679339060663L549.206276132075,223.11952992352778L550.1664269644737,253.55536449315593L551.1265777968724,234.1109670613281L552.0867286292712,233.65142553885545L553.0468794616698,233.3722738911274L554.0070302940686,221.37436450319646L554.9671811264674,230.43007089052253L555.927331958866,243.9100054294041L556.8874827912648,236.2246934617474L557.8476336236636,237.74323054089186L558.8077844560622,229.14931026178806L559.767935288461,201.45336669719882L560.7280861208598,207.1042609609229L561.6882369532584,213.94755399437128L562.6483877856572,212.31416894437115L563.608538618056,212.43051330572655L564.5686894504547,206.128988452712L565.5288402828534,212.36138006463818L566.4889911152521,201.7029646325568L567.4491419476509,202.06052714247164L568.4092927800497,201.26452221613062L569.3694436124483,203.01799260373554L570.3295944448471,238.5826307917256L571.2897452772459,224.23000131339091L572.2498961096445,249.24463756100636L573.2100469420433,248.93024591700927L574.170197774442,220.18435995827173L575.1303486068407,220.8554162778838L576.0904994392395,238.31073663792137L577.0506502716382,226.51745865083097L578.010801104037,226.2469860680015L578.9709519364357,218.8664888451435L579.9311027688343,219.84363184147907L580.8912536012331,229.58154265764034L581.8514044336318,214.8934224292621L582.8115552660306,205.16194609224974L583.7717060984294,215.97396600913027L584.731856930828,213.87116325935912L585.6920077632268,221.79380276027587L586.6521585956256,221.4964699679759L587.6123094280242,239.4650522694271L588.572460260423,252.15219912154208L589.5326110928218,247.8966889988332L590.4927619252204,247.21388601379812L591.4529127576192,235.2354297023639L592.4130635900179,235.0824985932896L593.3732144224167,231.33404039142042L594.3333652548155,210.19453180147784L595.2935160872141,203.8422793105218L596.2536669196128,208.4987472676382L597.2138177520116,203.49990516417944L598.1739685844103,201.08959416671004L599.1341194168091,208.56159566862763L600.0942702492079,215.8316592726042L601.0544210816064,217.10830482746437L602.0145719140052,216.14949261475073L602.9747227464039,213.55901620111166L603.9348735788027,215.6981064205017L604.8950244112015,223.7296083302751L605.8551752436002,216.46373461969785L606.8153260759989,219.861812986051L607.7754769083976,199.09123947382133L608.7356277407963,207.35887180445502L609.6957785731951,199.9233822307313L610.6559294055938,202.20492882569735L611.6160802379926,203.37727596272507L612.5762310703913,204.60858088544285L613.53638190279,199.98712846602058L614.4965327351888,198.5911457688055L615.4566835675876,204.48916892356294L616.4168343999862,200.74789339609254L617.376985232385,205.55033424645939L618.3371360647836,231.48674704191973L619.2972868971824,229.60982443808558L620.2574377295812,198.77624927362433L621.2175885619799,200.1129749070494L622.1777393943787,189.89966082911812L623.1378902267775,206.68175510331898L624.098041059176,207.01829332671235L625.0581918915748,201.19104944259297L626.0183427239735,206.45295699590747L626.9784935563723,208.91451936799325L627.9386443887711,203.9802465145986L628.8987952211697,201.68074323363555L629.8589460535684,211.17496685691285L630.8190968859672,194.60565931177618L631.7792477183659,199.7035624663183L632.7393985507647,193.19763067103813L633.6995493831635,201.2567409855319L634.6597002155621,204.67576881888155L635.6198510479609,203.74449019136327L636.5800018803596,194.39451861226172L637.5401527127583,206.50854790297313L638.5003035451571,205.33702378072027L639.4604543775558,200.27952316967136L640.4206052099545,194.90097197690147L641.3807560423533,192.14035596344104L642.340906874752,184.45953316728358L643.3010577071508,182.35673041751247L644.2612085395496,178.96994979943238L645.2213593719482,186.08386505476025L646.1815102043469,177.04895849538067L647.1416610367456,179.91088014567404L648.1018118691444,177.70684657859496L649.0619627015432,177.54261772124758L650.0221135339419,180.39324162326787L650.9822643663406,178.60527943464376L651.9424151987392,176.3415398866247L652.902566031138,180.0989764314924L653.8627168635368,179.59304680352753L654.8228676959355,179.6403327433196L655.7830185283343,180.42646149236228L656.743169360733,173.68305252477208L657.7033201931317,167.27034585762624L658.6634710255305,169.9350432400528L659.6236218579292,172.76082705977728L660.5837726903279,188.56188772234324L661.5439235227267,184.01233686643386L662.5040743551253,182.57767247480027L663.4642251875241,183.62155448742462L664.4243760199229,182.10601018927966L665.3845268523216,183.3118764735017L666.3446776847204,175.8251355251616L667.3048285171191,174.05355881250975L668.2649793495177,178.544451160829L669.2251301819165,176.75551631838005L670.1852810143153,173.54845219931974L671.145431846714,168.228484694615L672.1055826791128,166.0101605982633L673.0657335115113,160.12036759125445L674.0258843439101,165.9461150848741L674.9860351763089,163.74275489351987L675.9461860087076,168.56135676128397L676.9063368411064,170.18980372263493L677.8664876735052,178.15606300661935L678.8266385059038,174.41546085487383L679.7867893383026,175.93833746646757L680.7469401707012,176.9190718000025L681.7070910031,172.77594060382475L682.6672418354988,169.60232081243382L683.6273926678975,174.98895251390232L684.5875435002962,171.97956157985877L685.547694332695,171.13469950370094L686.5078451650937,174.04106395183683L687.4679959974925,175.18782281131885L688.4281468298911,170.55978627369768L689.3882976622899,163.7527058903432L690.3484484946886,163.03563556286386L691.3085993270873,164.33113563802087L692.2687501594861,169.34524092457707L693.2289009918849,169.94619134927595L694.1890518242836,165.75674686713094L695.1492026566824,167.9111002696184L696.109353489081,165.5259286325448L697.0695043214797,167.26540776897707L698.0296551538785,162.1745376497838L698.9898059862772,166.42892547961785L699.949956818676,166.51833481197778L700.9101076510747,169.32144831563107L701.8702584834733,166.0507127808065L702.8304093158721,163.03107157183965L703.7905601482709,157.90982472550147L704.7507109806696,161.68731290306576L705.7108618130684,157.8073967957937L706.671012645467,155.5046014557312L707.6311634778658,156.44613035817278L708.5913143102646,152.23468893568148L709.5514651426632,155.36820546167917L710.511615975062,154.41732411861418L711.4717668074608,151.89859962943805L712.4319176398594,144.70956557102284L713.3920684722582,142.90185102780205L714.352219304657,144.61671454051347L715.3123701370557,146.6328014608242L716.2725209694545,144.55132227567447L717.2326718018531,148.86900742364787L718.1928226342518,151.41242235606987L719.1529734666506,148.76283851769074L720.1131242990493,147.82542468912348L721.0732751314481,142.8831461465552L722.0334259638469,137.24527048017896L722.9935767962455,135.83267784841667L723.9537276286442,138.7061217055581L724.9138784610429,140.3006006025648L725.8740292934417,140.62673891198492L726.8341801258405,142.29162298200472L727.7943309582392,147.21729159002584L728.7544817906379,150.20393738847324L729.7146326230367,150.31354799257977L730.6747834554354,147.3678284743005L731.6349342878341,144.91090491276395L732.5950851202329,144.59292193156747L733.5552359526316,140.52730376327665L734.5153867850303,137.25260279362772L735.475537617429,135.60462793625504L736.4356884498278,137.40890078132642L737.3958392822266,139.74177357043382L738.3559901146253,139.9648105744213L739.316140947024,135.60567540960486L740.2762917794226,134.74233291077516L741.2364426118214,128.16943764063126L742.1965934442202,126.96476846880898L743.156744276619,127.5772411003559L744.1168951090177,129.66979357520378L745.0770459414163,128.88501157761084L746.037196773815,125.42752650841769L746.9973476062138,132.07950601647326L747.9574984386126,131.37470609109187L748.9176492710113,127.33422728319681L749.8778001034101,129.93293384458448L750.8379509358087,121.05395117527868L751.7981017682075,123.4967338465926L752.7582526006062,118.66234505905615L753.7184034330049,120.00393396160538L754.6785542654037,121.70061632974486L755.6387050978025,120.56582859426081L756.5988559302011,123.1163513815566L757.5590067625999,126.7144223382011L758.5191575949987,120.76627010170208L759.4793084273974,117.4973302354772L760.4394592597961,112.87258575695546L761.3996100921948,113.08133223167033L762.3597609245935,113.4470500698088L763.3199117569923,110.84901688414598L764.280062589391,118.1003756068757L765.2402134217898,110.83023718337415L766.2003642541886,114.52961377685162L767.1605150865873,114.24335427424978L768.1206659189859,116.89278847357892L769.0808167513846,114.52677063490208L770.0409675837834,112.64685525006846L771.0011184161822,112.22240408481488L771.961269248581,112.39104729413648L772.9214200809796,114.75901044046302L773.8815709133783,111.5472326913285L774.841721745777,105.31805831897677L775.8018725781758,105.32711148150022L776.7620234105746,108.07104274088849L777.7221742429733,105.09606878833912L778.682325075372,106.66862556452449L779.6424759077707,101.48438067814689L780.6026267401695,101.8141851442914L781.5627775725682,100.70663171590277L782.5229284049669,102.29871638810985L783.4830792373657,106.89300931996172L784.4432300697644,109.39991232418984L785.4033809021631,108.37241578753776L786.3635317345619,111.07676751820767L787.3236825669607,112.56964150028145L788.2838333993594,109.8399259506408L789.2439842317581,102.75631260293287L790.2041350641567,109.91669078327789L791.1642858965555,108.42890452890325L792.1244367289543,102.1879834911285L793.084587561353,100.18431661196567L794.0447383937518,100.47095021219243L795.0048892261505,102.05024074562667L795.9650400585491,100.34016568251445L796.9251908909479,100.1960632773887L797.8853417233466,99.93449421803271L798.8454925557454,101.31177203400094L799.8056433881442,98.77389374642803L800.7657942205428,102.22142781879788L801.7259450529416,102.91732422070575L802.6860958853404,101.68833870326259L803.646246717739,99.7867256561826L804.6063975501378,94.97972081479153L805.5665483825366,98.42067076896248L806.5266992149352,96.56716667644938L807.486850047334,93.95372066863919L808.4470008797327,94.87400082598433L809.4071517121315,87.55208729119147L810.3673025445303,86.90415020480052L811.3274533769289,88.27723812736943L812.2876042093276,92.51546493980621L813.2477550417264,92.35250801438363L814.2079058741251,94.49010184327392L815.1680567065239,92.4484266454175L816.1282075389227,92.5661177582227L817.0883583713212,89.00874862317133L818.04850920372,89.0856630948584L819.0086600361187,90.2355643743899L819.9688108685175,84.15198879766365L820.9289617009163,83.02804989330278L821.889112533315,84.77740520703341L822.8492633657137,83.22258065827006L823.8094141981124,83.33353801382637L824.7695650305111,84.51748217722715L825.7297158629099,82.64527320346721L826.6898666953086,84.46144235301156L827.6500175277074,82.71059064878122L828.6101683601061,80.45380931658599L829.5703191925048,82.25157286298347L830.5304700249036,84.31614283548603L831.4906208573024,82.67527583298715L832.450771689701,81.5198379086066L833.4109225220998,82.46488332872255L834.3710733544984,80.05449751172819L835.3312241868972,77.31842230246363L836.291375019296,78.70617485193009L837.2515258516947,74.065793092686L838.2116766840935,76.95928858252407L839.1718275164923,73.59300851429055L840.1319783488908,72.22515795847073L841.0921291812896,73.32171291668621L842.0522800136883,72.81286532724684L843.0124308460871,71.58515174172842L843.9725816784859,72.07955916284524L844.9327325108845,72.67781608464455L845.8928833432832,74.01147411754513L846.853034175682,69.72147219381705L847.8131850080807,70.3237693699657L848.7733358404795,72.82655730031954L849.7334866728783,66.52443389110508L850.6936375052769,66.81510774568116L851.6537883376757,67.99456273758267L852.6139391700744,70.86972744379884L853.5740900024731,71.80369957421667L854.5342408348719,69.24861279589663L855.4943916672706,64.78271016892316L856.4545424996693,63.63041466459208L857.414693332068,64.86321597780963L858.3748441644668,63.458853493795935L859.3349949968656,63.26469682645361L860.2951458292644,63.730373549975276L861.255296661663,65.1883816334049L862.2154474940617,63.543474376556695L863.1755983264604,62.53415898447656L864.1357491588592,61.49708554862607L865.095899991258,62.983225773450975L866.0560508236567,61.50194881775028L867.0162016560554,64.0022677037795L867.976352488454,61.80190029342477L868.9365033208528,61.77361851297953L869.8966541532516,61.53105361297037L870.8568049856503,65.08303574222262L871.8169558180491,62.957861954480244L872.7771066504478,61.120369240314496L873.7372574828465,60.66501761124109L874.6974083152453,57.74608348290733L875.657559147644,57.08131200339417L876.6177099800427,57.259532111914176L877.5778608124415,58.191484115157344L878.5380116448401,53.92303021462567L879.4981624772389,55.17812774628944L880.4583133096377,54.962348236225786L881.4184641420364,54.35900358672732L882.3786149744352,52.75592044434709L883.3387658068339,53.88352550543232L884.2989166392325,56.443924470026445L885.2590674716313,56.60531018542429L886.21921830403,53.850081177762945L887.1793691364288,53.780499019524655L888.1395199688276,54.84600387487035L889.0996708012261,54.00787555596139L890.0598216336249,52.05059678229077L891.0199724660237,52.69337132145758L891.9801232984224,51.64238145395948L892.9402741308212,52.24886852350742L893.90042496322,50.04812701552773L894.8605757956186,47.26566370077101L895.8207266280174,48.762278659094136L896.780877460416,50.736915562561855L897.7410282928148,49.72034267655793L898.7011791252136,47.78655723373333L899.6613299576123,46.677657053894926L900.621480790011,44.635607758413585L901.5816316224098,45.29102679730329L902.5417824548085,45.2260834496142L903.5019332872073,45.64626990194349L904.462084119606,45.978618231937595L905.4222349520047,45.66512442224032L906.3823857844034,45.59546744447707L907.3425366168021,44.819738609407615L908.3026874492009,45.33157897984645L909.2628382815997,46.50025996014981L910.2229891139984,47.553269954822575L911.1831399463972,48.054785230813195L912.1432907787957,45.95632201349133L913.1034416111945,46.64144440380105L914.0635924435933,49.45533191905249L915.023743275992,46.76362468810546L915.9838941083908,47.139143884017265L916.9440449407895,46.81712064847147L917.9041957731881,46.46741418868032L918.8643466055869,45.333898385121074L919.8244974379857,43.85860699141936L920.7846482703844,41.43961692905143L921.7447991027832,43.03970729043215L922.7049499351818,42.560338593837834L923.6651007675806,39.896015309036194L924.6252515999794,39.646567012728156L925.585402432378,43.79254135085546L926.5455532647768,39.907761974459184L927.5057040971756,40.4789342282131L928.4658549295742,38.57694708350814L929.426005761973,37.25533499413054L930.3861565943718,38.41346642141068L931.3463074267705,40.53856538962805L932.3064582591693,38.23696716196537L933.266609091568,38.791679120222035L934.2267599239666,39.51159258965085L935.1869107563654,39.85763289271765L936.1470615887641,39.71240819471709L937.1072124211629,40.868968411972446L938.0673632535617,42.04266230044993L939.0275140859603,40.751277299167235L939.987664918359,38.879217964457304L940.9478157507577,38.3412655797978L941.9079665831565,36.911539276813414L942.8681174155553,37.62314777896868L943.828268247954,35.21934608017318L944.7884190803527,37.50590558331339L945.7485699127515,37.56553674472834L946.7087207451502,37.757074728696125L947.6688715775489,39.3545464067023L948.6290224099477,36.17621298523716L949.5891732423464,37.485180574891864L950.5493240747451,37.91868490266893L951.5094749071438,33.58835525497263L952.4696257395426,31.904467025606007L953.4297765719414,33.80009451068702L954.3899274043401,33.92526757599094L955.3500782367388,32.138577319291606L956.3102290691374,35.06581641489902L957.2703799015362,35.72303112238842L958.230530733935,32.95897341077855L959.1906815663338,33.64230013248857L960.1508323987325,34.95186627834321L961.1109832311311,33.892721082621414L962.0711340635298,34.85422679823464L963.0312848959286,33.67701639208271L963.9914357283274,31.100157131991384L964.9515865607261,31.4666979849047L965.9117373931249,28.58143264281523L966.8718882255235,28.782472706456385L967.8320390579223,30.36325963039039L968.792189890321,29.42584580182313L969.7523407227197,27.993575634989156L970.7124915551185,29.470513058240613L971.6726423875173,32.169777061211356L972.6327932199159,29.591720688720216L973.5929440523147,32.03435372098418L974.5530948847135,33.31571290591853L975.5132457171122,32.734589655341324L976.4733965495109,33.07449475735914L977.4335473819096,32.15810521531332L978.3936982143083,33.36741319768485L979.3538490467071,31.56613313361297L980.3139998791058,34.24272682051253L981.2741507115046,32.597669924614365L982.2343015439034,34.147930482353466L983.1944523763021,30.842403868409747L984.1546032087007,35.12649504966382L985.1147540410994,34.75269670282671L986.0749048734982,33.6308527451655L987.035055705897,31.302768405657275L987.9952065382957,29.34406806101188L988.9553573706944,31.773158759253104L989.915508203093,30.06083911039127L990.8756590354918,31.622397416403487L991.8358098678906,31.388661220342808L992.7959607002894,30.938172860393617L993.7561115326881,32.479978811809154L994.7162623650868,31.3133179586805L995.6764131974855,32.99997451047168L996.6365640298843,32.50474407458L997.596714862283,31.702454308140002L998.5568656946817,31.883143460984595L999.5170165270805,31.952725619222885L1000.4771673594792,34.436284931654974L1001.4373181918779,31.016883000680398L1002.3974690242767,32.391691772324045L1003.3576198566755,34.23487077038885L1004.3177706890742,31.432655101035404L1005.2779215214729,29.143252455945685L1006.2380723538715,32.0108603901381L1007.1982231862703,28.259409407269434L1008.1583740186691,31.051973357899467L1009.1185248510678,31.13277844488587L1010.0786756834666,32.18414241000894L1011.0388265158653,30.60799429662418L1011.9989773482639,30.804171091141168L1012.9591281806627,28.19663582580497L1013.9192790130614,27.517947914644196L1014.8794298454602,28.857367050968808L1015.839580677859,27.026084357376956L1016.7997315102576,26.00292735317416L1017.7598823426564,24.61532444275767L1018.7200331750552,24.215788179324907L1019.6801840074538,24.425058390714664L1020.6403348398526,22.23890669010757L1021.6004856722514,28.084182079748896L1022.56063650465,26.571555743078445L1023.5207873370488,23.8199180726165L1024.4809381694474,26.752918271647925L1025.4410890018462,25.56441011722293L1026.401239834245,24.45199341971013L1027.3613906666437,25.36097582878219L1028.3215414990425,23.870870169132925L1029.2816923314413,23.790289540721485L1030.2418431638398,23.62164633139989L1031.2019939962386,23.24859617981267L1032.1621448286373,21.9878871837748L1033.122295661036,20.17224177090534L1034.0824464934349,23.881045624531225L1035.0425973258336,21.53956859005027L1036.0027481582324,23.341746488421993L1036.9628989906312,23.731930311231306L1037.9230498230297,26.919167256169974L1038.8832006554285,26.476086029194537L1039.8433514878272,26.265543885879968L1040.803502320226,24.66739883214891L1041.7636531526248,23.312492054151903L1042.7238039850236,23.02892605444961L1043.6839548174223,19.86892341660641L1044.6441056498209,19.27515566630632L1045.6042564822196,21.142052453792164L1046.5644073146184,21.020246267112636L1047.5245581470172,22.013774739420455L1048.484708979416,21.72310088484437L1049.4448598118147,22.56841187815212L1050.4050106442132,21.901695090989303L1051.365161476612,21.974494488802065L1052.3253123090108,21.83675174330026L1053.2854631414095,20.243245500118405L1054.2456139738083,22.018712828069624L1055.205764806207,19.47694392519736L1056.1659156386056,23.922046724224312" fill="none"></path></g></g></g></g></g><g><g opacity="0.520186"><span fill="rgb(0, 0, 0)" stroke="none" stroke-width="1px">Alt + Scroll to Zoom</span></g></g></g><g transform="translate(41, 376)" clip-path="url(#clip_1)"><clipPath id="clip_1"><rect width="1152" height="23"></rect></clipPath><g><g><line x1="0" y1="0" x2="0" y2="5" style="visibility: inherit;" fill="rgb(0, 0, 0)" stroke="rgb(204, 204, 204)" stroke-width="1px"></line><line x1="96.01508323987323" y1="0" x2="96.01508323987323" y2="5" style="visibility: inherit;" fill="rgb(0, 0, 0)" stroke="rgb(204, 204, 204)" stroke-width="1px"></line><line x1="192.03016647974647" y1="0" x2="192.03016647974647" y2="5" style="visibility: inherit;" fill="rgb(0, 0, 0)" stroke="rgb(204, 204, 204)" stroke-width="1px"></line><line x1="288.04524971961973" y1="0" x2="288.04524971961973" y2="5" style="visibility: inherit;" fill="rgb(0, 0, 0)" stroke="rgb(204, 204, 204)" stroke-width="1px"></line><line x1="384.06033295949294" y1="0" x2="384.06033295949294" y2="5" style="visibility: inherit;" fill="rgb(0, 0, 0)" stroke="rgb(204, 204, 204)" stroke-width="1px"></line><line x1="480.07541619936626" y1="0" x2="480.07541619936626" y2="5" style="visibility: inherit;" fill="rgb(0, 0, 0)" stroke="rgb(204, 204, 204)" stroke-width="1px"></line><line x1="576.0904994392395" y1="0" x2="576.0904994392395" y2="5" style="visibility: inherit;" fill="rgb(0, 0, 0)" stroke="rgb(204, 204, 204)" stroke-width="1px"></line><line x1="672.1055826791128" y1="0" x2="672.1055826791128" y2="5" style="visibility: inherit;" fill="rgb(0, 0, 0)" stroke="rgb(204, 204, 204)" stroke-width="1px"></line><line x1="768.1206659189859" y1="0" x2="768.1206659189859" y2="5" style="visibility: inherit;" fill="rgb(0, 0, 0)" stroke="rgb(204, 204, 204)" stroke-width="1px"></line><line x1="864.1357491588592" y1="0" x2="864.1357491588592" y2="5" style="visibility: inherit;" fill="rgb(0, 0, 0)" stroke="rgb(204, 204, 204)" stroke-width="1px"></line><line x1="960.1508323987325" y1="0" x2="960.1508323987325" y2="5" style="visibility: inherit;" fill="rgb(0, 0, 0)" stroke="rgb(204, 204, 204)" stroke-width="1px"></line><line x1="1056.1659156386056" y1="0" x2="1056.1659156386056" y2="5" style="visibility: inherit;" fill="rgb(0, 0, 0)" stroke="rgb(204, 204, 204)" stroke-width="1px"></line><line x1="1152.180998878479" y1="0" x2="1152.180998878479" y2="5" style="visibility: inherit;" fill="rgb(0, 0, 0)" stroke="rgb(204, 204, 204)" stroke-width="1px"></line></g><g transform="translate(0, 8)"><text style="text-anchor: middle; visibility: hidden; font-family: Roboto, sans-serif; font-size: 12px; font-weight: 200;" x="0" y="0" dx="0em" dy="0.95em" fill="rgb(255, 255, 255)" stroke="none" stroke-width="1px">-100</text><text style="text-anchor: middle; visibility: inherit; font-family: Roboto, sans-serif; font-size: 12px; font-weight: 200;" x="96.01508323987323" y="0" dx="0em" dy="0.95em" fill="rgb(255, 255, 255)" stroke="none" stroke-width="1px">0</text><text style="text-anchor: middle; visibility: inherit; font-family: Roboto, sans-serif; font-size: 12px; font-weight: 200;" x="192.03016647974647" y="0" dx="0em" dy="0.95em" fill="rgb(255, 255, 255)" stroke="none" stroke-width="1px">100</text><text style="text-anchor: middle; visibility: inherit; font-family: Roboto, sans-serif; font-size: 12px; font-weight: 200;" x="288.04524971961973" y="0" dx="0em" dy="0.95em" fill="rgb(255, 255, 255)" stroke="none" stroke-width="1px">200</text><text style="text-anchor: middle; visibility: inherit; font-family: Roboto, sans-serif; font-size: 12px; font-weight: 200;" x="384.06033295949294" y="0" dx="0em" dy="0.95em" fill="rgb(255, 255, 255)" stroke="none" stroke-width="1px">300</text><text style="text-anchor: middle; visibility: inherit; font-family: Roboto, sans-serif; font-size: 12px; font-weight: 200;" x="480.07541619936626" y="0" dx="0em" dy="0.95em" fill="rgb(255, 255, 255)" stroke="none" stroke-width="1px">400</text><text style="text-anchor: middle; visibility: inherit; font-family: Roboto, sans-serif; font-size: 12px; font-weight: 200;" x="576.0904994392395" y="0" dx="0em" dy="0.95em" fill="rgb(255, 255, 255)" stroke="none" stroke-width="1px">500</text><text style="text-anchor: middle; visibility: inherit; font-family: Roboto, sans-serif; font-size: 12px; font-weight: 200;" x="672.1055826791128" y="0" dx="0em" dy="0.95em" fill="rgb(255, 255, 255)" stroke="none" stroke-width="1px">600</text><text style="text-anchor: middle; visibility: inherit; font-family: Roboto, sans-serif; font-size: 12px; font-weight: 200;" x="768.1206659189859" y="0" dx="0em" dy="0.95em" fill="rgb(255, 255, 255)" stroke="none" stroke-width="1px">700</text><text style="text-anchor: middle; visibility: inherit; font-family: Roboto, sans-serif; font-size: 12px; font-weight: 200;" x="864.1357491588592" y="0" dx="0em" dy="0.95em" fill="rgb(255, 255, 255)" stroke="none" stroke-width="1px">800</text><text style="text-anchor: middle; visibility: inherit; font-family: Roboto, sans-serif; font-size: 12px; font-weight: 200;" x="960.1508323987325" y="0" dx="0em" dy="0.95em" fill="rgb(255, 255, 255)" stroke="none" stroke-width="1px">900</text><text style="text-anchor: middle; visibility: inherit; font-family: Roboto, sans-serif; font-size: 12px; font-weight: 200;" x="1056.1659156386056" y="0" dx="0em" dy="0.95em" fill="rgb(255, 255, 255)" stroke="none" stroke-width="1px">1k</text><text style="text-anchor: middle; visibility: hidden; font-family: Roboto, sans-serif; font-size: 12px; font-weight: 200;" x="1152.180998878479" y="0" dx="0em" dy="0.95em" fill="rgb(255, 255, 255)" stroke="none" stroke-width="1px">1.1k</text></g><line x1="0" y1="0" x2="1152.180998878479" y2="0" fill="rgb(0, 0, 0)" stroke="rgb(204, 204, 204)" stroke-width="1px"></line></g></g></g></g></svg>